<svg width="96" height="101" viewBox="0 0 96 101" fill="none" xmlns="http://www.w3.org/2000/svg">
<path d="M95.8948 47.5271H94.839V17.423C94.839 12.8021 93.0758 8.37052 89.9373 5.10308C86.7988 1.83563 82.5421 0 78.1036 0H16.8407C12.4022 0 8.14553 1.83563 5.00703 5.10308C1.86854 8.37052 0.105347 12.8021 0.105347 17.423V100H94.8387V68.9557H95.8946L95.8948 47.5271Z" fill="#636363"/>
<path d="M78.6499 4.67178H70.6531C71.021 5.61051 71.1615 6.62903 71.0622 7.63762C70.963 8.64621 70.6269 9.61389 70.0838 10.4554C69.5406 11.2969 68.8069 11.9864 67.9475 12.4632C67.088 12.9399 66.1291 13.1893 65.1552 13.1893H30.0587C29.085 13.1892 28.1262 12.9398 27.2668 12.4631C26.4075 11.9863 25.6739 11.2969 25.1308 10.4555C24.5877 9.61412 24.2516 8.64658 24.1523 7.63813C24.0529 6.62968 24.1933 5.61127 24.5611 4.67261H17.0909C13.7761 4.67261 10.5972 6.04348 8.2533 8.48366C5.90943 10.9238 4.59265 14.2334 4.59265 17.6843V100.14L91.1457 100.139V17.6835C91.1457 14.2326 89.829 10.923 87.4851 8.48283C85.1412 6.04266 81.9623 4.67179 78.6475 4.67179L78.6499 4.67178Z" fill="#1C1C1C"/>
<rect x="19.2632" y="29" width="57.4737" height="10" rx="2" fill="#919191"/>
<rect x="19.2632" y="54" width="57.4737" height="4" rx="2" fill="#909090"/>
<rect x="19.2632" y="80" width="50.7684" height="4" rx="2" fill="#909090"/>
<rect x="19.2632" y="67" width="43.1053" height="4" rx="2" fill="#909090"/>
</svg>
