<svg width="96" height="101" viewBox="0 0 96 101" fill="none" xmlns="http://www.w3.org/2000/svg">
<path d="M95.7895 47.5271H94.7336V17.423C94.7336 12.8021 92.9705 8.37052 89.832 5.10308C86.6935 1.83563 82.4367 0 77.9982 0H16.7354C12.2969 0 8.04018 1.83563 4.90169 5.10308C1.76319 8.37052 0 12.8021 0 17.423V100H94.7334V68.9557H95.7892L95.7895 47.5271Z" fill="#636363"/>
<path d="M78.5445 4.67178H70.5477C70.9157 5.61051 71.0562 6.62903 70.9569 7.63762C70.8576 8.64621 70.5216 9.61389 69.9784 10.4554C69.4352 11.2969 68.7016 11.9864 67.8421 12.4632C66.9826 12.9399 66.0237 13.1893 65.0499 13.1893H29.9533C28.9796 13.1892 28.0208 12.9398 27.1615 12.4631C26.3021 11.9863 25.5686 11.2969 25.0255 10.4555C24.4823 9.61412 24.1463 8.64658 24.0469 7.63813C23.9476 6.62968 24.088 5.61127 24.4557 4.67261H16.9855C13.6708 4.67261 10.4918 6.04348 8.14795 8.48366C5.80408 10.9238 4.4873 14.2334 4.4873 17.6843V100.14L91.0404 100.139V17.6835C91.0404 14.2326 89.7236 10.923 87.3798 8.48283C85.0359 6.04266 81.8569 4.67179 78.5422 4.67179L78.5445 4.67178Z" fill="white"/>
<rect x="19.158" y="29" width="57.4737" height="10" rx="2" fill="#919191"/>
<rect x="19.158" y="54" width="57.4737" height="4" rx="2" fill="#909090"/>
<rect x="19.158" y="80" width="50.7684" height="4" rx="2" fill="#909090"/>
<rect x="19.158" y="67" width="43.1053" height="4" rx="2" fill="#909090"/>
</svg>
