<svg width="115" height="141" viewBox="0 0 115 141" fill="none" xmlns="http://www.w3.org/2000/svg">
<path d="M43.5 67.5L48.5 72L53.5 67.5L57.5 72L61.5 67.5L65.5 72L70 67.5" stroke="#EC407A" stroke-width="4" stroke-linecap="round" stroke-linejoin="round"/>
<line x1="35.0701" y1="49.7417" x2="42.1412" y2="56.8128" stroke="#EC407A" stroke-width="4" stroke-linecap="round"/>
<line x1="2" y1="-2" x2="12" y2="-2" transform="matrix(-0.707107 0.707107 0.707107 0.707107 45.1411 49.7417)" stroke="#EC407A" stroke-width="4" stroke-linecap="round"/>
<line x1="71.8284" y1="50" x2="78.8995" y2="57.0711" stroke="#EC407A" stroke-width="4" stroke-linecap="round"/>
<line x1="2" y1="-2" x2="12" y2="-2" transform="matrix(-0.707107 0.707107 0.707107 0.707107 81.8994 50)" stroke="#EC407A" stroke-width="4" stroke-linecap="round"/>
<path d="M72 11C72 9.89543 71.1046 9 70 9C68.8954 9 68 9.89543 68 11H72ZM68 22C68 23.1046 68.8954 24 70 24C71.1046 24 72 23.1046 72 22H68ZM78 16C78 14.8954 77.1046 14 76 14C74.8954 14 74 14.8954 74 16H78ZM74 27C74 28.1046 74.8954 29 76 29C77.1046 29 78 28.1046 78 27H74ZM83 2C83 0.895431 82.1046 0 81 0C79.8954 0 79 0.895431 79 2H83ZM79 23C79 24.1046 79.8954 25 81 25C82.1046 25 83 24.1046 83 23H79ZM89 11C89 9.89543 88.1046 9 87 9C85.8954 9 85 9.89543 85 11H89ZM85 33C85 34.1046 85.8954 35 87 35C88.1046 35 89 34.1046 89 33H85ZM25 16H90V12H25V16ZM98 24V88H102V24H98ZM90 96H25V100H90V96ZM17 88V24H13V88H17ZM25 96C20.5817 96 17 92.4183 17 88H13C13 94.6274 18.3726 100 25 100V96ZM98 88C98 92.4183 94.4183 96 90 96V100C96.6274 100 102 94.6274 102 88H98ZM90 16C94.4183 16 98 19.5817 98 24H102C102 17.3726 96.6274 12 90 12V16ZM25 12C18.3726 12 13 17.3726 13 24H17C17 19.5817 20.5817 16 25 16V12ZM68 11V22H72V11H68ZM74 16V27H78V16H74ZM79 2V23H83V2H79ZM85 11V33H89V11H85Z" fill="#8D8D8D"/>
<circle cx="24" cy="4" r="4" fill="#EC407A"/>
<circle cx="4" cy="83" r="4" fill="#EC407A"/>
<path d="M115 39C115 41.7614 112.761 44 110 44C107.239 44 105 41.7614 105 39C105 36.2386 107.239 34 110 34C112.761 34 115 36.2386 115 39ZM106.159 39C106.159 41.1213 107.879 42.841 110 42.841C112.121 42.841 113.841 41.1213 113.841 39C113.841 36.8787 112.121 35.159 110 35.159C107.879 35.159 106.159 36.8787 106.159 39Z" fill="#EC407A"/>
<path d="M38.4908 120.112C37.4561 120.112 36.5014 119.872 35.6268 119.392C34.7628 118.901 34.0748 118.224 33.5628 117.36C33.0614 116.485 32.8108 115.504 32.8108 114.416C32.8108 113.328 33.0614 112.352 33.5628 111.488C34.0748 110.624 34.7628 109.952 35.6268 109.472C36.5014 108.981 37.4561 108.736 38.4908 108.736C39.5361 108.736 40.4908 108.981 41.3548 109.472C42.2294 109.952 42.9174 110.624 43.4188 111.488C43.9201 112.352 44.1708 113.328 44.1708 114.416C44.1708 115.504 43.9201 116.485 43.4188 117.36C42.9174 118.224 42.2294 118.901 41.3548 119.392C40.4908 119.872 39.5361 120.112 38.4908 120.112ZM38.4908 118.528C39.2268 118.528 39.8828 118.363 40.4588 118.032C41.0348 117.691 41.4828 117.211 41.8028 116.592C42.1334 115.963 42.2988 115.237 42.2988 114.416C42.2988 113.595 42.1334 112.875 41.8028 112.256C41.4828 111.637 41.0348 111.163 40.4588 110.832C39.8828 110.501 39.2268 110.336 38.4908 110.336C37.7548 110.336 37.0988 110.501 36.5228 110.832C35.9468 111.163 35.4934 111.637 35.1628 112.256C34.8428 112.875 34.6828 113.595 34.6828 114.416C34.6828 115.237 34.8428 115.963 35.1628 116.592C35.4934 117.211 35.9468 117.691 36.5228 118.032C37.0988 118.363 37.7548 118.528 38.4908 118.528ZM51.0376 120.112C50.003 120.112 49.0483 119.872 48.1736 119.392C47.3096 118.901 46.6216 118.224 46.1096 117.36C45.6083 116.485 45.3576 115.504 45.3576 114.416C45.3576 113.328 45.6083 112.352 46.1096 111.488C46.6216 110.624 47.3096 109.952 48.1736 109.472C49.0483 108.981 50.003 108.736 51.0376 108.736C52.083 108.736 53.0376 108.981 53.9016 109.472C54.7763 109.952 55.4643 110.624 55.9656 111.488C56.467 112.352 56.7176 113.328 56.7176 114.416C56.7176 115.504 56.467 116.485 55.9656 117.36C55.4643 118.224 54.7763 118.901 53.9016 119.392C53.0376 119.872 52.083 120.112 51.0376 120.112ZM51.0376 118.528C51.7736 118.528 52.4296 118.363 53.0056 118.032C53.5816 117.691 54.0296 117.211 54.3496 116.592C54.6803 115.963 54.8456 115.237 54.8456 114.416C54.8456 113.595 54.6803 112.875 54.3496 112.256C54.0296 111.637 53.5816 111.163 53.0056 110.832C52.4296 110.501 51.7736 110.336 51.0376 110.336C50.3016 110.336 49.6456 110.501 49.0696 110.832C48.4936 111.163 48.0403 111.637 47.7096 112.256C47.3896 112.875 47.2296 113.595 47.2296 114.416C47.2296 115.237 47.3896 115.963 47.7096 116.592C48.0403 117.211 48.4936 117.691 49.0696 118.032C49.6456 118.363 50.3016 118.528 51.0376 118.528ZM66.2885 112.192C66.2885 112.757 66.1552 113.291 65.8885 113.792C65.6218 114.293 65.1952 114.704 64.6085 115.024C64.0218 115.333 63.2698 115.488 62.3525 115.488H60.3365V120H58.5125V108.88H62.3525C63.2058 108.88 63.9258 109.029 64.5125 109.328C65.1098 109.616 65.5525 110.011 65.8405 110.512C66.1392 111.013 66.2885 111.573 66.2885 112.192ZM62.3525 114C63.0458 114 63.5632 113.845 63.9045 113.536C64.2458 113.216 64.4165 112.768 64.4165 112.192C64.4165 110.976 63.7285 110.368 62.3525 110.368H60.3365V114H62.3525ZM71.6921 120.112C70.9455 120.112 70.2735 119.984 69.6761 119.728C69.0788 119.461 68.6095 119.088 68.2681 118.608C67.9268 118.128 67.7561 117.568 67.7561 116.928H69.7081C69.7508 117.408 69.9375 117.803 70.2681 118.112C70.6095 118.421 71.0841 118.576 71.6921 118.576C72.3215 118.576 72.8121 118.427 73.1641 118.128C73.5161 117.819 73.6921 117.424 73.6921 116.944C73.6921 116.571 73.5801 116.267 73.3561 116.032C73.1428 115.797 72.8708 115.616 72.5401 115.488C72.2201 115.36 71.7721 115.221 71.1961 115.072C70.4708 114.88 69.8788 114.688 69.4201 114.496C68.9721 114.293 68.5881 113.984 68.2681 113.568C67.9481 113.152 67.7881 112.597 67.7881 111.904C67.7881 111.264 67.9481 110.704 68.2681 110.224C68.5881 109.744 69.0361 109.376 69.6121 109.12C70.1881 108.864 70.8548 108.736 71.6121 108.736C72.6895 108.736 73.5695 109.008 74.2521 109.552C74.9455 110.085 75.3295 110.821 75.4041 111.76H73.3881C73.3561 111.355 73.1641 111.008 72.8121 110.72C72.4601 110.432 71.9961 110.288 71.4201 110.288C70.8975 110.288 70.4708 110.421 70.1401 110.688C69.8095 110.955 69.6441 111.339 69.6441 111.84C69.6441 112.181 69.7455 112.464 69.9481 112.688C70.1615 112.901 70.4281 113.072 70.7481 113.2C71.0681 113.328 71.5055 113.467 72.0601 113.616C72.7961 113.819 73.3935 114.021 73.8521 114.224C74.3215 114.427 74.7161 114.741 75.0361 115.168C75.3668 115.584 75.5321 116.144 75.5321 116.848C75.5321 117.413 75.3775 117.947 75.0681 118.448C74.7695 118.949 74.3268 119.355 73.7401 119.664C73.1641 119.963 72.4815 120.112 71.6921 120.112ZM84.1286 108.88L83.9206 116.64H82.4006L82.1926 108.88H84.1286ZM83.2166 120.112C82.886 120.112 82.6086 120 82.3846 119.776C82.1606 119.552 82.0486 119.275 82.0486 118.944C82.0486 118.613 82.1606 118.336 82.3846 118.112C82.6086 117.888 82.886 117.776 83.2166 117.776C83.5366 117.776 83.8086 117.888 84.0326 118.112C84.2566 118.336 84.3686 118.613 84.3686 118.944C84.3686 119.275 84.2566 119.552 84.0326 119.776C83.8086 120 83.5366 120.112 83.2166 120.112Z" fill="#EC407A"/>
<path d="M28.2627 137H27.3527L23.6927 131.45V137H22.7827V130.02H23.6927L27.3527 135.56V130.02H28.2627V137ZM32.2039 137.09C31.6906 137.09 31.2239 136.973 30.8039 136.74C30.3906 136.507 30.0639 136.177 29.8239 135.75C29.5906 135.317 29.4739 134.817 29.4739 134.25C29.4739 133.69 29.5939 133.197 29.8339 132.77C30.0806 132.337 30.4139 132.007 30.8339 131.78C31.2539 131.547 31.7239 131.43 32.2439 131.43C32.7639 131.43 33.2339 131.547 33.6539 131.78C34.0739 132.007 34.4039 132.333 34.6439 132.76C34.8906 133.187 35.0139 133.683 35.0139 134.25C35.0139 134.817 34.8873 135.317 34.6339 135.75C34.3873 136.177 34.0506 136.507 33.6239 136.74C33.1973 136.973 32.7239 137.09 32.2039 137.09ZM32.2039 136.29C32.5306 136.29 32.8373 136.213 33.1239 136.06C33.4106 135.907 33.6406 135.677 33.8139 135.37C33.9939 135.063 34.0839 134.69 34.0839 134.25C34.0839 133.81 33.9973 133.437 33.8239 133.13C33.6506 132.823 33.4239 132.597 33.1439 132.45C32.8639 132.297 32.5606 132.22 32.2339 132.22C31.9006 132.22 31.5939 132.297 31.3139 132.45C31.0406 132.597 30.8206 132.823 30.6539 133.13C30.4873 133.437 30.4039 133.81 30.4039 134.25C30.4039 134.697 30.4839 135.073 30.6439 135.38C30.8106 135.687 31.0306 135.917 31.3039 136.07C31.5773 136.217 31.8773 136.29 32.2039 136.29ZM41.0464 130.03C41.8064 130.03 42.4631 130.173 43.0164 130.46C43.5764 130.74 44.0031 131.143 44.2964 131.67C44.5964 132.197 44.7464 132.817 44.7464 133.53C44.7464 134.243 44.5964 134.863 44.2964 135.39C44.0031 135.91 43.5764 136.31 43.0164 136.59C42.4631 136.863 41.8064 137 41.0464 137H38.8764V130.03H41.0464ZM41.0464 136.25C41.9464 136.25 42.6331 136.013 43.1064 135.54C43.5798 135.06 43.8164 134.39 43.8164 133.53C43.8164 132.663 43.5764 131.987 43.0964 131.5C42.6231 131.013 41.9398 130.77 41.0464 130.77H39.7864V136.25H41.0464ZM45.6068 134.24C45.6068 133.68 45.7201 133.19 45.9468 132.77C46.1734 132.343 46.4834 132.013 46.8768 131.78C47.2768 131.547 47.7201 131.43 48.2068 131.43C48.6868 131.43 49.1034 131.533 49.4568 131.74C49.8101 131.947 50.0734 132.207 50.2468 132.52V131.52H51.1668V137H50.2468V135.98C50.0668 136.3 49.7968 136.567 49.4368 136.78C49.0834 136.987 48.6701 137.09 48.1968 137.09C47.7101 137.09 47.2701 136.97 46.8768 136.73C46.4834 136.49 46.1734 136.153 45.9468 135.72C45.7201 135.287 45.6068 134.793 45.6068 134.24ZM50.2468 134.25C50.2468 133.837 50.1634 133.477 49.9968 133.17C49.8301 132.863 49.6034 132.63 49.3168 132.47C49.0368 132.303 48.7268 132.22 48.3868 132.22C48.0468 132.22 47.7368 132.3 47.4568 132.46C47.1768 132.62 46.9534 132.853 46.7868 133.16C46.6201 133.467 46.5368 133.827 46.5368 134.24C46.5368 134.66 46.6201 135.027 46.7868 135.34C46.9534 135.647 47.1768 135.883 47.4568 136.05C47.7368 136.21 48.0468 136.29 48.3868 136.29C48.7268 136.29 49.0368 136.21 49.3168 136.05C49.6034 135.883 49.8301 135.647 49.9968 135.34C50.1634 135.027 50.2468 134.663 50.2468 134.25ZM53.8146 132.27V135.5C53.8146 135.767 53.8712 135.957 53.9846 136.07C54.0979 136.177 54.2946 136.23 54.5746 136.23H55.2446V137H54.4246C53.9179 137 53.5379 136.883 53.2846 136.65C53.0312 136.417 52.9046 136.033 52.9046 135.5V132.27H52.1946V131.52H52.9046V130.14H53.8146V131.52H55.2446V132.27H53.8146ZM56.0071 134.24C56.0071 133.68 56.1205 133.19 56.3471 132.77C56.5738 132.343 56.8838 132.013 57.2771 131.78C57.6771 131.547 58.1205 131.43 58.6071 131.43C59.0871 131.43 59.5038 131.533 59.8571 131.74C60.2105 131.947 60.4738 132.207 60.6471 132.52V131.52H61.5671V137H60.6471V135.98C60.4671 136.3 60.1971 136.567 59.8371 136.78C59.4838 136.987 59.0705 137.09 58.5971 137.09C58.1105 137.09 57.6705 136.97 57.2771 136.73C56.8838 136.49 56.5738 136.153 56.3471 135.72C56.1205 135.287 56.0071 134.793 56.0071 134.24ZM60.6471 134.25C60.6471 133.837 60.5638 133.477 60.3971 133.17C60.2305 132.863 60.0038 132.63 59.7171 132.47C59.4371 132.303 59.1271 132.22 58.7871 132.22C58.4471 132.22 58.1371 132.3 57.8571 132.46C57.5771 132.62 57.3538 132.853 57.1871 133.16C57.0205 133.467 56.9371 133.827 56.9371 134.24C56.9371 134.66 57.0205 135.027 57.1871 135.34C57.3538 135.647 57.5771 135.883 57.8571 136.05C58.1371 136.21 58.4471 136.29 58.7871 136.29C59.1271 136.29 59.4371 136.21 59.7171 136.05C60.0038 135.883 60.2305 135.647 60.3971 135.34C60.5638 135.027 60.6471 134.663 60.6471 134.25ZM69.711 130.03V130.77H66.681V133.12H69.141V133.86H66.681V137H65.771V130.03H69.711ZM73.2 137.09C72.6867 137.09 72.22 136.973 71.8 136.74C71.3867 136.507 71.06 136.177 70.82 135.75C70.5867 135.317 70.47 134.817 70.47 134.25C70.47 133.69 70.59 133.197 70.83 132.77C71.0767 132.337 71.41 132.007 71.83 131.78C72.25 131.547 72.72 131.43 73.24 131.43C73.76 131.43 74.23 131.547 74.65 131.78C75.07 132.007 75.4 132.333 75.64 132.76C75.8867 133.187 76.01 133.683 76.01 134.25C76.01 134.817 75.8834 135.317 75.63 135.75C75.3834 136.177 75.0467 136.507 74.62 136.74C74.1934 136.973 73.72 137.09 73.2 137.09ZM73.2 136.29C73.5267 136.29 73.8334 136.213 74.12 136.06C74.4067 135.907 74.6367 135.677 74.81 135.37C74.99 135.063 75.08 134.69 75.08 134.25C75.08 133.81 74.9934 133.437 74.82 133.13C74.6467 132.823 74.42 132.597 74.14 132.45C73.86 132.297 73.5567 132.22 73.23 132.22C72.8967 132.22 72.59 132.297 72.31 132.45C72.0367 132.597 71.8167 132.823 71.65 133.13C71.4834 133.437 71.4 133.81 71.4 134.25C71.4 134.697 71.48 135.073 71.64 135.38C71.8067 135.687 72.0267 135.917 72.3 136.07C72.5734 136.217 72.8734 136.29 73.2 136.29ZM82.0665 131.52V137H81.1565V136.19C80.9832 136.47 80.7399 136.69 80.4265 136.85C80.1199 137.003 79.7799 137.08 79.4065 137.08C78.9799 137.08 78.5965 136.993 78.2565 136.82C77.9165 136.64 77.6465 136.373 77.4465 136.02C77.2532 135.667 77.1565 135.237 77.1565 134.73V131.52H78.0565V134.61C78.0565 135.15 78.1932 135.567 78.4665 135.86C78.7399 136.147 79.1132 136.29 79.5865 136.29C80.0732 136.29 80.4565 136.14 80.7365 135.84C81.0165 135.54 81.1565 135.103 81.1565 134.53V131.52H82.0665ZM86.273 131.42C86.9397 131.42 87.4797 131.623 87.893 132.03C88.3063 132.43 88.513 133.01 88.513 133.77V137H87.613V133.9C87.613 133.353 87.4763 132.937 87.203 132.65C86.9297 132.357 86.5563 132.21 86.083 132.21C85.603 132.21 85.2197 132.36 84.933 132.66C84.653 132.96 84.513 133.397 84.513 133.97V137H83.603V131.52H84.513V132.3C84.693 132.02 84.9363 131.803 85.243 131.65C85.5563 131.497 85.8997 131.42 86.273 131.42ZM89.6595 134.24C89.6595 133.68 89.7728 133.19 89.9995 132.77C90.2262 132.343 90.5362 132.013 90.9295 131.78C91.3295 131.547 91.7762 131.43 92.2695 131.43C92.6962 131.43 93.0928 131.53 93.4595 131.73C93.8262 131.923 94.1062 132.18 94.2995 132.5V129.6H95.2195V137H94.2995V135.97C94.1195 136.297 93.8528 136.567 93.4995 136.78C93.1462 136.987 92.7328 137.09 92.2595 137.09C91.7728 137.09 91.3295 136.97 90.9295 136.73C90.5362 136.49 90.2262 136.153 89.9995 135.72C89.7728 135.287 89.6595 134.793 89.6595 134.24ZM94.2995 134.25C94.2995 133.837 94.2162 133.477 94.0495 133.17C93.8828 132.863 93.6562 132.63 93.3695 132.47C93.0895 132.303 92.7795 132.22 92.4395 132.22C92.0995 132.22 91.7895 132.3 91.5095 132.46C91.2295 132.62 91.0062 132.853 90.8395 133.16C90.6728 133.467 90.5895 133.827 90.5895 134.24C90.5895 134.66 90.6728 135.027 90.8395 135.34C91.0062 135.647 91.2295 135.883 91.5095 136.05C91.7895 136.21 92.0995 136.29 92.4395 136.29C92.7795 136.29 93.0895 136.21 93.3695 136.05C93.6562 135.883 93.8828 135.647 94.0495 135.34C94.2162 135.027 94.2995 134.663 94.2995 134.25Z" fill="#8D8D8D"/>
</svg>
