<svg width="176" height="171" viewBox="0 0 176 171" fill="none" xmlns="http://www.w3.org/2000/svg">
<path d="M39.6938 167H38.7838L35.1238 161.45V167H34.2138V160.02H35.1238L38.7838 165.56V160.02H39.6938V167ZM43.6351 167.09C43.1218 167.09 42.6551 166.973 42.2351 166.74C41.8218 166.507 41.4951 166.177 41.2551 165.75C41.0218 165.317 40.9051 164.817 40.9051 164.25C40.9051 163.69 41.0251 163.197 41.2651 162.77C41.5118 162.337 41.8451 162.007 42.2651 161.78C42.6851 161.547 43.1551 161.43 43.6751 161.43C44.1951 161.43 44.6651 161.547 45.0851 161.78C45.5051 162.007 45.8351 162.333 46.0751 162.76C46.3218 163.187 46.4451 163.683 46.4451 164.25C46.4451 164.817 46.3184 165.317 46.0651 165.75C45.8184 166.177 45.4818 166.507 45.0551 166.74C44.6284 166.973 44.1551 167.09 43.6351 167.09ZM43.6351 166.29C43.9618 166.29 44.2684 166.213 44.5551 166.06C44.8418 165.907 45.0718 165.677 45.2451 165.37C45.4251 165.063 45.5151 164.69 45.5151 164.25C45.5151 163.81 45.4284 163.437 45.2551 163.13C45.0818 162.823 44.8551 162.597 44.5751 162.45C44.2951 162.297 43.9918 162.22 43.6651 162.22C43.3318 162.22 43.0251 162.297 42.7451 162.45C42.4718 162.597 42.2518 162.823 42.0851 163.13C41.9184 163.437 41.8351 163.81 41.8351 164.25C41.8351 164.697 41.9151 165.073 42.0751 165.38C42.2418 165.687 42.4618 165.917 42.7351 166.07C43.0084 166.217 43.3084 166.29 43.6351 166.29ZM54.2476 160.03V160.77H51.2176V163.12H53.6776V163.86H51.2176V167H50.3076V160.03H54.2476ZM55.0067 164.24C55.0067 163.68 55.12 163.19 55.3467 162.77C55.5733 162.343 55.8833 162.013 56.2767 161.78C56.6767 161.547 57.12 161.43 57.6067 161.43C58.0867 161.43 58.5033 161.533 58.8567 161.74C59.21 161.947 59.4733 162.207 59.6467 162.52V161.52H60.5667V167H59.6467V165.98C59.4667 166.3 59.1967 166.567 58.8367 166.78C58.4833 166.987 58.07 167.09 57.5967 167.09C57.11 167.09 56.67 166.97 56.2767 166.73C55.8833 166.49 55.5733 166.153 55.3467 165.72C55.12 165.287 55.0067 164.793 55.0067 164.24ZM59.6467 164.25C59.6467 163.837 59.5633 163.477 59.3967 163.17C59.23 162.863 59.0033 162.63 58.7167 162.47C58.4367 162.303 58.1267 162.22 57.7867 162.22C57.4467 162.22 57.1367 162.3 56.8567 162.46C56.5767 162.62 56.3533 162.853 56.1867 163.16C56.02 163.467 55.9367 163.827 55.9367 164.24C55.9367 164.66 56.02 165.027 56.1867 165.34C56.3533 165.647 56.5767 165.883 56.8567 166.05C57.1367 166.21 57.4467 166.29 57.7867 166.29C58.1267 166.29 58.4367 166.21 58.7167 166.05C59.0033 165.883 59.23 165.647 59.3967 165.34C59.5633 165.027 59.6467 164.663 59.6467 164.25ZM64.1445 166.16L65.8445 161.52H66.8145L64.6645 167H63.6045L61.4545 161.52H62.4345L64.1445 166.16ZM70.0999 167.09C69.5866 167.09 69.1199 166.973 68.6999 166.74C68.2866 166.507 67.9599 166.177 67.7199 165.75C67.4866 165.317 67.3699 164.817 67.3699 164.25C67.3699 163.69 67.4899 163.197 67.7299 162.77C67.9766 162.337 68.3099 162.007 68.7299 161.78C69.1499 161.547 69.6199 161.43 70.1399 161.43C70.6599 161.43 71.1299 161.547 71.5499 161.78C71.9699 162.007 72.2999 162.333 72.5399 162.76C72.7866 163.187 72.9099 163.683 72.9099 164.25C72.9099 164.817 72.7833 165.317 72.5299 165.75C72.2833 166.177 71.9466 166.507 71.5199 166.74C71.0933 166.973 70.6199 167.09 70.0999 167.09ZM70.0999 166.29C70.4266 166.29 70.7333 166.213 71.0199 166.06C71.3066 165.907 71.5366 165.677 71.7099 165.37C71.8899 165.063 71.9799 164.69 71.9799 164.25C71.9799 163.81 71.8933 163.437 71.7199 163.13C71.5466 162.823 71.3199 162.597 71.0399 162.45C70.7599 162.297 70.4566 162.22 70.1299 162.22C69.7966 162.22 69.4899 162.297 69.2099 162.45C68.9366 162.597 68.7166 162.823 68.5499 163.13C68.3833 163.437 68.2999 163.81 68.2999 164.25C68.2999 164.697 68.3799 165.073 68.5399 165.38C68.7066 165.687 68.9266 165.917 69.1999 166.07C69.4733 166.217 69.7733 166.29 70.0999 166.29ZM78.9664 161.52V167H78.0564V166.19C77.8831 166.47 77.6398 166.69 77.3264 166.85C77.0198 167.003 76.6798 167.08 76.3064 167.08C75.8798 167.08 75.4964 166.993 75.1564 166.82C74.8164 166.64 74.5464 166.373 74.3464 166.02C74.1531 165.667 74.0564 165.237 74.0564 164.73V161.52H74.9564V164.61C74.9564 165.15 75.0931 165.567 75.3664 165.86C75.6398 166.147 76.0131 166.29 76.4864 166.29C76.9731 166.29 77.3564 166.14 77.6364 165.84C77.9164 165.54 78.0564 165.103 78.0564 164.53V161.52H78.9664ZM81.4129 162.41C81.5729 162.097 81.7996 161.853 82.0929 161.68C82.3929 161.507 82.7562 161.42 83.1829 161.42V162.36H82.9429C81.9229 162.36 81.4129 162.913 81.4129 164.02V167H80.5029V161.52H81.4129V162.41ZM84.7034 160.63C84.53 160.63 84.3834 160.57 84.2634 160.45C84.1434 160.33 84.0834 160.183 84.0834 160.01C84.0834 159.837 84.1434 159.69 84.2634 159.57C84.3834 159.45 84.53 159.39 84.7034 159.39C84.87 159.39 85.01 159.45 85.1234 159.57C85.2434 159.69 85.3034 159.837 85.3034 160.01C85.3034 160.183 85.2434 160.33 85.1234 160.45C85.01 160.57 84.87 160.63 84.7034 160.63ZM85.1434 161.52V167H84.2334V161.52H85.1434ZM87.8043 162.27V165.5C87.8043 165.767 87.861 165.957 87.9743 166.07C88.0876 166.177 88.2843 166.23 88.5643 166.23H89.2343V167H88.4143C87.9076 167 87.5276 166.883 87.2743 166.65C87.021 166.417 86.8943 166.033 86.8943 165.5V162.27H86.1843V161.52H86.8943V160.14H87.8043V161.52H89.2343V162.27H87.8043ZM95.3369 164.05C95.3369 164.223 95.3269 164.407 95.3069 164.6H90.9269C90.9602 165.14 91.1436 165.563 91.4769 165.87C91.8169 166.17 92.2269 166.32 92.7069 166.32C93.1002 166.32 93.4269 166.23 93.6869 166.05C93.9536 165.863 94.1402 165.617 94.2469 165.31H95.2269C95.0802 165.837 94.7869 166.267 94.3469 166.6C93.9069 166.927 93.3602 167.09 92.7069 167.09C92.1869 167.09 91.7202 166.973 91.3069 166.74C90.9002 166.507 90.5802 166.177 90.3469 165.75C90.1136 165.317 89.9969 164.817 89.9969 164.25C89.9969 163.683 90.1102 163.187 90.3369 162.76C90.5636 162.333 90.8802 162.007 91.2869 161.78C91.7002 161.547 92.1736 161.43 92.7069 161.43C93.2269 161.43 93.6869 161.543 94.0869 161.77C94.4869 161.997 94.7936 162.31 95.0069 162.71C95.2269 163.103 95.3369 163.55 95.3369 164.05ZM94.3969 163.86C94.3969 163.513 94.3202 163.217 94.1669 162.97C94.0136 162.717 93.8036 162.527 93.5369 162.4C93.2769 162.267 92.9869 162.2 92.6669 162.2C92.2069 162.2 91.8136 162.347 91.4869 162.64C91.1669 162.933 90.9836 163.34 90.9369 163.86H94.3969ZM98.4781 167.09C98.0581 167.09 97.6814 167.02 97.3481 166.88C97.0147 166.733 96.7514 166.533 96.5581 166.28C96.3647 166.02 96.2581 165.723 96.2381 165.39H97.1781C97.2047 165.663 97.3314 165.887 97.5581 166.06C97.7914 166.233 98.0947 166.32 98.4681 166.32C98.8147 166.32 99.0881 166.243 99.2881 166.09C99.4881 165.937 99.5881 165.743 99.5881 165.51C99.5881 165.27 99.4814 165.093 99.2681 164.98C99.0547 164.86 98.7247 164.743 98.2781 164.63C97.8714 164.523 97.5381 164.417 97.2781 164.31C97.0247 164.197 96.8047 164.033 96.6181 163.82C96.4381 163.6 96.3481 163.313 96.3481 162.96C96.3481 162.68 96.4314 162.423 96.5981 162.19C96.7647 161.957 97.0014 161.773 97.3081 161.64C97.6147 161.5 97.9647 161.43 98.3581 161.43C98.9647 161.43 99.4547 161.583 99.8281 161.89C100.201 162.197 100.401 162.617 100.428 163.15H99.5181C99.4981 162.863 99.3814 162.633 99.1681 162.46C98.9614 162.287 98.6814 162.2 98.3281 162.2C98.0014 162.2 97.7414 162.27 97.5481 162.41C97.3547 162.55 97.2581 162.733 97.2581 162.96C97.2581 163.14 97.3147 163.29 97.4281 163.41C97.5481 163.523 97.6947 163.617 97.8681 163.69C98.0481 163.757 98.2947 163.833 98.6081 163.92C99.0014 164.027 99.3214 164.133 99.5681 164.24C99.8147 164.34 100.025 164.493 100.198 164.7C100.378 164.907 100.471 165.177 100.478 165.51C100.478 165.81 100.395 166.08 100.228 166.32C100.061 166.56 99.8247 166.75 99.5181 166.89C99.2181 167.023 98.8714 167.09 98.4781 167.09ZM111.019 161.42C111.445 161.42 111.825 161.51 112.159 161.69C112.492 161.863 112.755 162.127 112.949 162.48C113.142 162.833 113.239 163.263 113.239 163.77V167H112.339V163.9C112.339 163.353 112.202 162.937 111.929 162.65C111.662 162.357 111.299 162.21 110.839 162.21C110.365 162.21 109.989 162.363 109.709 162.67C109.429 162.97 109.289 163.407 109.289 163.98V167H108.389V163.9C108.389 163.353 108.252 162.937 107.979 162.65C107.712 162.357 107.349 162.21 106.889 162.21C106.415 162.21 106.039 162.363 105.759 162.67C105.479 162.97 105.339 163.407 105.339 163.98V167H104.429V161.52H105.339V162.31C105.519 162.023 105.759 161.803 106.059 161.65C106.365 161.497 106.702 161.42 107.069 161.42C107.529 161.42 107.935 161.523 108.289 161.73C108.642 161.937 108.905 162.24 109.079 162.64C109.232 162.253 109.485 161.953 109.839 161.74C110.192 161.527 110.585 161.42 111.019 161.42ZM114.391 164.24C114.391 163.68 114.505 163.19 114.731 162.77C114.958 162.343 115.268 162.013 115.661 161.78C116.061 161.547 116.505 161.43 116.991 161.43C117.471 161.43 117.888 161.533 118.241 161.74C118.595 161.947 118.858 162.207 119.031 162.52V161.52H119.951V167H119.031V165.98C118.851 166.3 118.581 166.567 118.221 166.78C117.868 166.987 117.455 167.09 116.981 167.09C116.495 167.09 116.055 166.97 115.661 166.73C115.268 166.49 114.958 166.153 114.731 165.72C114.505 165.287 114.391 164.793 114.391 164.24ZM119.031 164.25C119.031 163.837 118.948 163.477 118.781 163.17C118.615 162.863 118.388 162.63 118.101 162.47C117.821 162.303 117.511 162.22 117.171 162.22C116.831 162.22 116.521 162.3 116.241 162.46C115.961 162.62 115.738 162.853 115.571 163.16C115.405 163.467 115.321 163.827 115.321 164.24C115.321 164.66 115.405 165.027 115.571 165.34C115.738 165.647 115.961 165.883 116.241 166.05C116.521 166.21 116.831 166.29 117.171 166.29C117.511 166.29 117.821 166.21 118.101 166.05C118.388 165.883 118.615 165.647 118.781 165.34C118.948 165.027 119.031 164.663 119.031 164.25ZM122.399 162.41C122.559 162.097 122.786 161.853 123.079 161.68C123.379 161.507 123.743 161.42 124.169 161.42V162.36H123.929C122.909 162.36 122.399 162.913 122.399 164.02V167H121.489V161.52H122.399V162.41ZM128.28 167L126.13 164.58V167H125.22V159.6H126.13V163.95L128.24 161.52H129.51L126.93 164.25L129.52 167H128.28ZM135.366 164.05C135.366 164.223 135.356 164.407 135.336 164.6H130.956C130.99 165.14 131.173 165.563 131.506 165.87C131.846 166.17 132.256 166.32 132.736 166.32C133.13 166.32 133.456 166.23 133.716 166.05C133.983 165.863 134.17 165.617 134.276 165.31H135.256C135.11 165.837 134.816 166.267 134.376 166.6C133.936 166.927 133.39 167.09 132.736 167.09C132.216 167.09 131.75 166.973 131.336 166.74C130.93 166.507 130.61 166.177 130.376 165.75C130.143 165.317 130.026 164.817 130.026 164.25C130.026 163.683 130.14 163.187 130.366 162.76C130.593 162.333 130.91 162.007 131.316 161.78C131.73 161.547 132.203 161.43 132.736 161.43C133.256 161.43 133.716 161.543 134.116 161.77C134.516 161.997 134.823 162.31 135.036 162.71C135.256 163.103 135.366 163.55 135.366 164.05ZM134.426 163.86C134.426 163.513 134.35 163.217 134.196 162.97C134.043 162.717 133.833 162.527 133.566 162.4C133.306 162.267 133.016 162.2 132.696 162.2C132.236 162.2 131.843 162.347 131.516 162.64C131.196 162.933 131.013 163.34 130.966 163.86H134.426ZM136.227 164.24C136.227 163.68 136.341 163.19 136.567 162.77C136.794 162.343 137.104 162.013 137.497 161.78C137.897 161.547 138.344 161.43 138.837 161.43C139.264 161.43 139.661 161.53 140.027 161.73C140.394 161.923 140.674 162.18 140.867 162.5V159.6H141.787V167H140.867V165.97C140.687 166.297 140.421 166.567 140.067 166.78C139.714 166.987 139.301 167.09 138.827 167.09C138.341 167.09 137.897 166.97 137.497 166.73C137.104 166.49 136.794 166.153 136.567 165.72C136.341 165.287 136.227 164.793 136.227 164.24ZM140.867 164.25C140.867 163.837 140.784 163.477 140.617 163.17C140.451 162.863 140.224 162.63 139.937 162.47C139.657 162.303 139.347 162.22 139.007 162.22C138.667 162.22 138.357 162.3 138.077 162.46C137.797 162.62 137.574 162.853 137.407 163.16C137.241 163.467 137.157 163.827 137.157 164.24C137.157 164.66 137.241 165.027 137.407 165.34C137.574 165.647 137.797 165.883 138.077 166.05C138.357 166.21 138.667 166.29 139.007 166.29C139.347 166.29 139.657 166.21 139.937 166.05C140.224 165.883 140.451 165.647 140.617 165.34C140.784 165.027 140.867 164.663 140.867 164.25Z" fill="#8D8D8D"/>
<path d="M66.4903 152.112C65.4556 152.112 64.5009 151.872 63.6263 151.392C62.7623 150.901 62.0743 150.224 61.5623 149.36C61.0609 148.485 60.8103 147.504 60.8103 146.416C60.8103 145.328 61.0609 144.352 61.5623 143.488C62.0743 142.624 62.7623 141.952 63.6263 141.472C64.5009 140.981 65.4556 140.736 66.4903 140.736C67.5356 140.736 68.4903 140.981 69.3543 141.472C70.2289 141.952 70.9169 142.624 71.4183 143.488C71.9196 144.352 72.1703 145.328 72.1703 146.416C72.1703 147.504 71.9196 148.485 71.4183 149.36C70.9169 150.224 70.2289 150.901 69.3543 151.392C68.4903 151.872 67.5356 152.112 66.4903 152.112ZM66.4903 150.528C67.2263 150.528 67.8823 150.363 68.4583 150.032C69.0343 149.691 69.4823 149.211 69.8023 148.592C70.1329 147.963 70.2983 147.237 70.2983 146.416C70.2983 145.595 70.1329 144.875 69.8023 144.256C69.4823 143.637 69.0343 143.163 68.4583 142.832C67.8823 142.501 67.2263 142.336 66.4903 142.336C65.7543 142.336 65.0983 142.501 64.5223 142.832C63.9463 143.163 63.4929 143.637 63.1623 144.256C62.8423 144.875 62.6823 145.595 62.6823 146.416C62.6823 147.237 62.8423 147.963 63.1623 148.592C63.4929 149.211 63.9463 149.691 64.5223 150.032C65.0983 150.363 65.7543 150.528 66.4903 150.528ZM79.0371 152.112C78.0025 152.112 77.0478 151.872 76.1731 151.392C75.3091 150.901 74.6211 150.224 74.1091 149.36C73.6078 148.485 73.3571 147.504 73.3571 146.416C73.3571 145.328 73.6078 144.352 74.1091 143.488C74.6211 142.624 75.3091 141.952 76.1731 141.472C77.0478 140.981 78.0025 140.736 79.0371 140.736C80.0825 140.736 81.0371 140.981 81.9011 141.472C82.7758 141.952 83.4638 142.624 83.9651 143.488C84.4665 144.352 84.7171 145.328 84.7171 146.416C84.7171 147.504 84.4665 148.485 83.9651 149.36C83.4638 150.224 82.7758 150.901 81.9011 151.392C81.0371 151.872 80.0825 152.112 79.0371 152.112ZM79.0371 150.528C79.7731 150.528 80.4291 150.363 81.0051 150.032C81.5811 149.691 82.0291 149.211 82.3491 148.592C82.6798 147.963 82.8451 147.237 82.8451 146.416C82.8451 145.595 82.6798 144.875 82.3491 144.256C82.0291 143.637 81.5811 143.163 81.0051 142.832C80.4291 142.501 79.7731 142.336 79.0371 142.336C78.3011 142.336 77.6451 142.501 77.0691 142.832C76.4931 143.163 76.0398 143.637 75.7091 144.256C75.3891 144.875 75.2291 145.595 75.2291 146.416C75.2291 147.237 75.3891 147.963 75.7091 148.592C76.0398 149.211 76.4931 149.691 77.0691 150.032C77.6451 150.363 78.3011 150.528 79.0371 150.528ZM94.288 144.192C94.288 144.757 94.1547 145.291 93.888 145.792C93.6213 146.293 93.1947 146.704 92.608 147.024C92.0213 147.333 91.2693 147.488 90.352 147.488H88.336V152H86.512V140.88H90.352C91.2053 140.88 91.9253 141.029 92.512 141.328C93.1093 141.616 93.552 142.011 93.84 142.512C94.1387 143.013 94.288 143.573 94.288 144.192ZM90.352 146C91.0453 146 91.5627 145.845 91.904 145.536C92.2453 145.216 92.416 144.768 92.416 144.192C92.416 142.976 91.728 142.368 90.352 142.368H88.336V146H90.352ZM99.6916 152.112C98.945 152.112 98.273 151.984 97.6756 151.728C97.0783 151.461 96.609 151.088 96.2676 150.608C95.9263 150.128 95.7556 149.568 95.7556 148.928H97.7076C97.7503 149.408 97.937 149.803 98.2676 150.112C98.609 150.421 99.0836 150.576 99.6916 150.576C100.321 150.576 100.812 150.427 101.164 150.128C101.516 149.819 101.692 149.424 101.692 148.944C101.692 148.571 101.58 148.267 101.356 148.032C101.142 147.797 100.87 147.616 100.54 147.488C100.22 147.36 99.7716 147.221 99.1956 147.072C98.4703 146.88 97.8783 146.688 97.4196 146.496C96.9716 146.293 96.5876 145.984 96.2676 145.568C95.9476 145.152 95.7876 144.597 95.7876 143.904C95.7876 143.264 95.9476 142.704 96.2676 142.224C96.5876 141.744 97.0356 141.376 97.6116 141.12C98.1876 140.864 98.8543 140.736 99.6116 140.736C100.689 140.736 101.569 141.008 102.252 141.552C102.945 142.085 103.329 142.821 103.404 143.76H101.388C101.356 143.355 101.164 143.008 100.812 142.72C100.46 142.432 99.9956 142.288 99.4196 142.288C98.897 142.288 98.4703 142.421 98.1396 142.688C97.809 142.955 97.6436 143.339 97.6436 143.84C97.6436 144.181 97.745 144.464 97.9476 144.688C98.161 144.901 98.4276 145.072 98.7476 145.2C99.0676 145.328 99.505 145.467 100.06 145.616C100.796 145.819 101.393 146.021 101.852 146.224C102.321 146.427 102.716 146.741 103.036 147.168C103.366 147.584 103.532 148.144 103.532 148.848C103.532 149.413 103.377 149.947 103.068 150.448C102.769 150.949 102.326 151.355 101.74 151.664C101.164 151.963 100.481 152.112 99.6916 152.112ZM112.128 140.88L111.92 148.64H110.4L110.192 140.88H112.128ZM111.216 152.112C110.885 152.112 110.608 152 110.384 151.776C110.16 151.552 110.048 151.275 110.048 150.944C110.048 150.613 110.16 150.336 110.384 150.112C110.608 149.888 110.885 149.776 111.216 149.776C111.536 149.776 111.808 149.888 112.032 150.112C112.256 150.336 112.368 150.613 112.368 150.944C112.368 151.275 112.256 151.552 112.032 151.776C111.808 152 111.536 152.112 111.216 152.112Z" fill="#EC407A"/>
<circle cx="113.511" cy="91.1826" r="2.5" transform="rotate(19.1799 113.511 91.1826)" fill="#EC407A"/>
<circle cx="44.8781" cy="61.3464" r="2.5" transform="rotate(19.1799 44.8781 61.3464)" stroke="#EC407A"/>
<circle cx="119.658" cy="50.3009" r="1.5" transform="rotate(19.1799 119.658 50.3009)" stroke="#EC407A"/>
<path d="M74.7111 114.262L74.1113 113.514L73.1519 113.513L38.6904 113.481C35.3767 113.478 32.6929 110.789 32.696 107.475L32.7548 44.1115C32.7579 40.7978 35.4466 38.114 38.7603 38.117L137.76 38.2089C141.074 38.212 143.758 40.9008 143.755 44.2145L143.696 107.578C143.693 110.892 141.004 113.576 137.69 113.573L100.575 113.538L99.5769 113.537L98.9761 114.334L87.2396 129.903L74.7111 114.262Z" stroke="#8D8D8D" stroke-width="4"/>
<path d="M97.8858 53.7673C96.9691 53.7613 96.0537 53.8458 95.1661 54.0188C93.9148 54.2636 92.7061 54.6818 91.5737 55.2609L90.7851 55.6654L93.4265 62.5136L85.9545 72.1402L85.98 68.2201L82.5095 65.9946L84.6914 56.6721L84.1682 56.2869C81.8304 54.565 79.0572 53.645 76.1486 53.6261C68.577 53.5769 62.3774 59.7003 62.3282 67.276C62.2966 72.1471 64.5625 84.8689 86.2333 97.7658L86.7287 98.0613L87.2279 97.7723C109.064 85.158 111.496 72.4668 111.527 67.5957C111.576 60.0199 105.457 53.8165 97.8858 53.7673ZM86.7436 95.7768C72.6148 87.2396 64.2355 76.6176 64.2961 67.2888C64.3383 60.7985 69.6495 55.5531 76.1357 55.5952C78.4111 55.61 80.5892 56.2684 82.4747 57.5067L80.2761 66.9013L84.0049 69.2919L83.9487 77.9351L95.6634 62.8435L93.2714 56.6422C94.0018 56.3354 94.7625 56.1048 95.5428 55.9521C96.3024 55.8042 97.0866 55.7314 97.8731 55.7365C104.359 55.7786 109.601 61.0926 109.559 67.5829C109.499 76.9116 100.982 87.4239 86.7436 95.7768Z" fill="#EC407A"/>
<circle cx="37.3649" cy="126.365" r="5" transform="rotate(19.1799 37.3649 126.365)" fill="#EC407A"/>
<circle cx="51.5171" cy="96.5461" r="2" transform="rotate(19.1799 51.5171 96.5461)" fill="#EC407A"/>
<circle cx="152.819" cy="73.8191" r="2.5" transform="rotate(19.1799 152.819 73.8191)" stroke="#EC407A"/>
<circle cx="41.2031" cy="29.5461" r="1.5" transform="rotate(19.1799 41.2031 29.5461)" stroke="#EC407A"/>
</svg>
