<svg width="141" height="150" viewBox="0 0 141 150" fill="none" xmlns="http://www.w3.org/2000/svg">
<path d="M37.4033 146H36.4933L32.8333 140.45V146H31.9233V139.02H32.8333L36.4933 144.56V139.02H37.4033V146ZM41.3446 146.09C40.8312 146.09 40.3646 145.973 39.9446 145.74C39.5312 145.507 39.2046 145.177 38.9646 144.75C38.7312 144.317 38.6146 143.817 38.6146 143.25C38.6146 142.69 38.7346 142.197 38.9746 141.77C39.2212 141.337 39.5546 141.007 39.9746 140.78C40.3946 140.547 40.8646 140.43 41.3846 140.43C41.9046 140.43 42.3746 140.547 42.7946 140.78C43.2146 141.007 43.5446 141.333 43.7846 141.76C44.0312 142.187 44.1546 142.683 44.1546 143.25C44.1546 143.817 44.0279 144.317 43.7746 144.75C43.5279 145.177 43.1912 145.507 42.7646 145.74C42.3379 145.973 41.8646 146.09 41.3446 146.09ZM41.3446 145.29C41.6712 145.29 41.9779 145.213 42.2646 145.06C42.5512 144.907 42.7812 144.677 42.9546 144.37C43.1346 144.063 43.2246 143.69 43.2246 143.25C43.2246 142.81 43.1379 142.437 42.9646 142.13C42.7912 141.823 42.5646 141.597 42.2846 141.45C42.0046 141.297 41.7012 141.22 41.3746 141.22C41.0412 141.22 40.7346 141.297 40.4546 141.45C40.1812 141.597 39.9612 141.823 39.7946 142.13C39.6279 142.437 39.5446 142.81 39.5446 143.25C39.5446 143.697 39.6246 144.073 39.7846 144.38C39.9512 144.687 40.1712 144.917 40.4446 145.07C40.7179 145.217 41.0179 145.29 41.3446 145.29ZM51.9571 139.03V139.77H48.9271V142.12H51.3871V142.86H48.9271V146H48.0171V139.03H51.9571ZM52.7161 143.24C52.7161 142.68 52.8295 142.19 53.0561 141.77C53.2828 141.343 53.5928 141.013 53.9861 140.78C54.3861 140.547 54.8295 140.43 55.3161 140.43C55.7961 140.43 56.2128 140.533 56.5661 140.74C56.9195 140.947 57.1828 141.207 57.3561 141.52V140.52H58.2761V146H57.3561V144.98C57.1761 145.3 56.9061 145.567 56.5461 145.78C56.1928 145.987 55.7795 146.09 55.3061 146.09C54.8195 146.09 54.3795 145.97 53.9861 145.73C53.5928 145.49 53.2828 145.153 53.0561 144.72C52.8295 144.287 52.7161 143.793 52.7161 143.24ZM57.3561 143.25C57.3561 142.837 57.2728 142.477 57.1061 142.17C56.9395 141.863 56.7128 141.63 56.4261 141.47C56.1461 141.303 55.8361 141.22 55.4961 141.22C55.1561 141.22 54.8461 141.3 54.5661 141.46C54.2861 141.62 54.0628 141.853 53.8961 142.16C53.7295 142.467 53.6461 142.827 53.6461 143.24C53.6461 143.66 53.7295 144.027 53.8961 144.34C54.0628 144.647 54.2861 144.883 54.5661 145.05C54.8461 145.21 55.1561 145.29 55.4961 145.29C55.8361 145.29 56.1461 145.21 56.4261 145.05C56.7128 144.883 56.9395 144.647 57.1061 144.34C57.2728 144.027 57.3561 143.663 57.3561 143.25ZM61.8539 145.16L63.5539 140.52H64.5239L62.3739 146H61.3139L59.1639 140.52H60.1439L61.8539 145.16ZM67.8094 146.09C67.2961 146.09 66.8294 145.973 66.4094 145.74C65.9961 145.507 65.6694 145.177 65.4294 144.75C65.1961 144.317 65.0794 143.817 65.0794 143.25C65.0794 142.69 65.1994 142.197 65.4394 141.77C65.6861 141.337 66.0194 141.007 66.4394 140.78C66.8594 140.547 67.3294 140.43 67.8494 140.43C68.3694 140.43 68.8394 140.547 69.2594 140.78C69.6794 141.007 70.0094 141.333 70.2494 141.76C70.4961 142.187 70.6194 142.683 70.6194 143.25C70.6194 143.817 70.4927 144.317 70.2394 144.75C69.9927 145.177 69.6561 145.507 69.2294 145.74C68.8027 145.973 68.3294 146.09 67.8094 146.09ZM67.8094 145.29C68.1361 145.29 68.4427 145.213 68.7294 145.06C69.0161 144.907 69.2461 144.677 69.4194 144.37C69.5994 144.063 69.6894 143.69 69.6894 143.25C69.6894 142.81 69.6027 142.437 69.4294 142.13C69.2561 141.823 69.0294 141.597 68.7494 141.45C68.4694 141.297 68.1661 141.22 67.8394 141.22C67.5061 141.22 67.1994 141.297 66.9194 141.45C66.6461 141.597 66.4261 141.823 66.2594 142.13C66.0927 142.437 66.0094 142.81 66.0094 143.25C66.0094 143.697 66.0894 144.073 66.2494 144.38C66.4161 144.687 66.6361 144.917 66.9094 145.07C67.1827 145.217 67.4827 145.29 67.8094 145.29ZM76.6759 140.52V146H75.7659V145.19C75.5926 145.47 75.3492 145.69 75.0359 145.85C74.7292 146.003 74.3892 146.08 74.0159 146.08C73.5892 146.08 73.2059 145.993 72.8659 145.82C72.5259 145.64 72.2559 145.373 72.0559 145.02C71.8626 144.667 71.7659 144.237 71.7659 143.73V140.52H72.6659V143.61C72.6659 144.15 72.8026 144.567 73.0759 144.86C73.3492 145.147 73.7226 145.29 74.1959 145.29C74.6826 145.29 75.0659 145.14 75.3459 144.84C75.6259 144.54 75.7659 144.103 75.7659 143.53V140.52H76.6759ZM79.1224 141.41C79.2824 141.097 79.509 140.853 79.8024 140.68C80.1024 140.507 80.4657 140.42 80.8924 140.42V141.36H80.6524C79.6324 141.36 79.1224 141.913 79.1224 143.02V146H78.2124V140.52H79.1224V141.41ZM82.4129 139.63C82.2395 139.63 82.0929 139.57 81.9729 139.45C81.8529 139.33 81.7929 139.183 81.7929 139.01C81.7929 138.837 81.8529 138.69 81.9729 138.57C82.0929 138.45 82.2395 138.39 82.4129 138.39C82.5795 138.39 82.7195 138.45 82.8329 138.57C82.9529 138.69 83.0129 138.837 83.0129 139.01C83.0129 139.183 82.9529 139.33 82.8329 139.45C82.7195 139.57 82.5795 139.63 82.4129 139.63ZM82.8529 140.52V146H81.9429V140.52H82.8529ZM85.5138 141.27V144.5C85.5138 144.767 85.5705 144.957 85.6838 145.07C85.7971 145.177 85.9938 145.23 86.2738 145.23H86.9438V146H86.1238C85.6171 146 85.2371 145.883 84.9838 145.65C84.7305 145.417 84.6038 145.033 84.6038 144.5V141.27H83.8938V140.52H84.6038V139.14H85.5138V140.52H86.9438V141.27H85.5138ZM93.0464 143.05C93.0464 143.223 93.0364 143.407 93.0164 143.6H88.6364C88.6697 144.14 88.853 144.563 89.1864 144.87C89.5264 145.17 89.9364 145.32 90.4164 145.32C90.8097 145.32 91.1364 145.23 91.3964 145.05C91.663 144.863 91.8497 144.617 91.9564 144.31H92.9364C92.7897 144.837 92.4964 145.267 92.0564 145.6C91.6164 145.927 91.0697 146.09 90.4164 146.09C89.8964 146.09 89.4297 145.973 89.0164 145.74C88.6097 145.507 88.2897 145.177 88.0564 144.75C87.823 144.317 87.7064 143.817 87.7064 143.25C87.7064 142.683 87.8197 142.187 88.0464 141.76C88.273 141.333 88.5897 141.007 88.9964 140.78C89.4097 140.547 89.883 140.43 90.4164 140.43C90.9364 140.43 91.3964 140.543 91.7964 140.77C92.1964 140.997 92.503 141.31 92.7164 141.71C92.9364 142.103 93.0464 142.55 93.0464 143.05ZM92.1064 142.86C92.1064 142.513 92.0297 142.217 91.8764 141.97C91.723 141.717 91.513 141.527 91.2464 141.4C90.9864 141.267 90.6964 141.2 90.3764 141.2C89.9164 141.2 89.523 141.347 89.1964 141.64C88.8764 141.933 88.693 142.34 88.6464 142.86H92.1064ZM96.1875 146.09C95.7675 146.09 95.3909 146.02 95.0575 145.88C94.7242 145.733 94.4609 145.533 94.2675 145.28C94.0742 145.02 93.9675 144.723 93.9475 144.39H94.8875C94.9142 144.663 95.0409 144.887 95.2675 145.06C95.5009 145.233 95.8042 145.32 96.1775 145.32C96.5242 145.32 96.7975 145.243 96.9975 145.09C97.1975 144.937 97.2975 144.743 97.2975 144.51C97.2975 144.27 97.1909 144.093 96.9775 143.98C96.7642 143.86 96.4342 143.743 95.9875 143.63C95.5809 143.523 95.2475 143.417 94.9875 143.31C94.7342 143.197 94.5142 143.033 94.3275 142.82C94.1475 142.6 94.0575 142.313 94.0575 141.96C94.0575 141.68 94.1409 141.423 94.3075 141.19C94.4742 140.957 94.7109 140.773 95.0175 140.64C95.3242 140.5 95.6742 140.43 96.0675 140.43C96.6742 140.43 97.1642 140.583 97.5375 140.89C97.9109 141.197 98.1109 141.617 98.1375 142.15H97.2275C97.2075 141.863 97.0909 141.633 96.8775 141.46C96.6709 141.287 96.3909 141.2 96.0375 141.2C95.7109 141.2 95.4509 141.27 95.2575 141.41C95.0642 141.55 94.9675 141.733 94.9675 141.96C94.9675 142.14 95.0242 142.29 95.1375 142.41C95.2575 142.523 95.4042 142.617 95.5775 142.69C95.7575 142.757 96.0042 142.833 96.3175 142.92C96.7109 143.027 97.0309 143.133 97.2775 143.24C97.5242 143.34 97.7342 143.493 97.9075 143.7C98.0875 143.907 98.1809 144.177 98.1875 144.51C98.1875 144.81 98.1042 145.08 97.9375 145.32C97.7709 145.56 97.5342 145.75 97.2275 145.89C96.9275 146.023 96.5809 146.09 96.1875 146.09ZM106.858 140.52L103.558 148.58H102.618L103.698 145.94L101.488 140.52H102.498L104.218 144.96L105.918 140.52H106.858ZM112.773 143.05C112.773 143.223 112.763 143.407 112.743 143.6H108.363C108.396 144.14 108.58 144.563 108.913 144.87C109.253 145.17 109.663 145.32 110.143 145.32C110.536 145.32 110.863 145.23 111.123 145.05C111.39 144.863 111.576 144.617 111.683 144.31H112.663C112.516 144.837 112.223 145.267 111.783 145.6C111.343 145.927 110.796 146.09 110.143 146.09C109.623 146.09 109.156 145.973 108.743 145.74C108.336 145.507 108.016 145.177 107.783 144.75C107.55 144.317 107.433 143.817 107.433 143.25C107.433 142.683 107.546 142.187 107.773 141.76C108 141.333 108.316 141.007 108.723 140.78C109.136 140.547 109.61 140.43 110.143 140.43C110.663 140.43 111.123 140.543 111.523 140.77C111.923 140.997 112.23 141.31 112.443 141.71C112.663 142.103 112.773 142.55 112.773 143.05ZM111.833 142.86C111.833 142.513 111.756 142.217 111.603 141.97C111.45 141.717 111.24 141.527 110.973 141.4C110.713 141.267 110.423 141.2 110.103 141.2C109.643 141.2 109.25 141.347 108.923 141.64C108.603 141.933 108.42 142.34 108.373 142.86H111.833ZM115.084 141.27V144.5C115.084 144.767 115.141 144.957 115.254 145.07C115.367 145.177 115.564 145.23 115.844 145.23H116.514V146H115.694C115.187 146 114.807 145.883 114.554 145.65C114.301 145.417 114.174 145.033 114.174 144.5V141.27H113.464V140.52H114.174V139.14H115.084V140.52H116.514V141.27H115.084Z" fill="#8D8D8D"/>
<path d="M53.4908 129.112C52.4561 129.112 51.5014 128.872 50.6268 128.392C49.7628 127.901 49.0748 127.224 48.5628 126.36C48.0614 125.485 47.8108 124.504 47.8108 123.416C47.8108 122.328 48.0614 121.352 48.5628 120.488C49.0748 119.624 49.7628 118.952 50.6268 118.472C51.5014 117.981 52.4561 117.736 53.4908 117.736C54.5361 117.736 55.4908 117.981 56.3548 118.472C57.2294 118.952 57.9174 119.624 58.4188 120.488C58.9201 121.352 59.1708 122.328 59.1708 123.416C59.1708 124.504 58.9201 125.485 58.4188 126.36C57.9174 127.224 57.2294 127.901 56.3548 128.392C55.4908 128.872 54.5361 129.112 53.4908 129.112ZM53.4908 127.528C54.2268 127.528 54.8828 127.363 55.4588 127.032C56.0348 126.691 56.4828 126.211 56.8028 125.592C57.1334 124.963 57.2988 124.237 57.2988 123.416C57.2988 122.595 57.1334 121.875 56.8028 121.256C56.4828 120.637 56.0348 120.163 55.4588 119.832C54.8828 119.501 54.2268 119.336 53.4908 119.336C52.7548 119.336 52.0988 119.501 51.5228 119.832C50.9468 120.163 50.4934 120.637 50.1628 121.256C49.8428 121.875 49.6828 122.595 49.6828 123.416C49.6828 124.237 49.8428 124.963 50.1628 125.592C50.4934 126.211 50.9468 126.691 51.5228 127.032C52.0988 127.363 52.7548 127.528 53.4908 127.528ZM66.0376 129.112C65.003 129.112 64.0483 128.872 63.1736 128.392C62.3096 127.901 61.6216 127.224 61.1096 126.36C60.6083 125.485 60.3576 124.504 60.3576 123.416C60.3576 122.328 60.6083 121.352 61.1096 120.488C61.6216 119.624 62.3096 118.952 63.1736 118.472C64.0483 117.981 65.003 117.736 66.0376 117.736C67.083 117.736 68.0376 117.981 68.9016 118.472C69.7763 118.952 70.4643 119.624 70.9656 120.488C71.467 121.352 71.7176 122.328 71.7176 123.416C71.7176 124.504 71.467 125.485 70.9656 126.36C70.4643 127.224 69.7763 127.901 68.9016 128.392C68.0376 128.872 67.083 129.112 66.0376 129.112ZM66.0376 127.528C66.7736 127.528 67.4296 127.363 68.0056 127.032C68.5816 126.691 69.0296 126.211 69.3496 125.592C69.6803 124.963 69.8456 124.237 69.8456 123.416C69.8456 122.595 69.6803 121.875 69.3496 121.256C69.0296 120.637 68.5816 120.163 68.0056 119.832C67.4296 119.501 66.7736 119.336 66.0376 119.336C65.3016 119.336 64.6456 119.501 64.0696 119.832C63.4936 120.163 63.0403 120.637 62.7096 121.256C62.3896 121.875 62.2296 122.595 62.2296 123.416C62.2296 124.237 62.3896 124.963 62.7096 125.592C63.0403 126.211 63.4936 126.691 64.0696 127.032C64.6456 127.363 65.3016 127.528 66.0376 127.528ZM81.2885 121.192C81.2885 121.757 81.1552 122.291 80.8885 122.792C80.6218 123.293 80.1952 123.704 79.6085 124.024C79.0218 124.333 78.2698 124.488 77.3525 124.488H75.3365V129H73.5125V117.88H77.3525C78.2058 117.88 78.9258 118.029 79.5125 118.328C80.1098 118.616 80.5525 119.011 80.8405 119.512C81.1392 120.013 81.2885 120.573 81.2885 121.192ZM77.3525 123C78.0458 123 78.5632 122.845 78.9045 122.536C79.2458 122.216 79.4165 121.768 79.4165 121.192C79.4165 119.976 78.7285 119.368 77.3525 119.368H75.3365V123H77.3525ZM86.6921 129.112C85.9455 129.112 85.2735 128.984 84.6761 128.728C84.0788 128.461 83.6095 128.088 83.2681 127.608C82.9268 127.128 82.7561 126.568 82.7561 125.928H84.7081C84.7508 126.408 84.9375 126.803 85.2681 127.112C85.6095 127.421 86.0841 127.576 86.6921 127.576C87.3215 127.576 87.8121 127.427 88.1641 127.128C88.5161 126.819 88.6921 126.424 88.6921 125.944C88.6921 125.571 88.5801 125.267 88.3561 125.032C88.1428 124.797 87.8708 124.616 87.5401 124.488C87.2201 124.36 86.7721 124.221 86.1961 124.072C85.4708 123.88 84.8788 123.688 84.4201 123.496C83.9721 123.293 83.5881 122.984 83.2681 122.568C82.9481 122.152 82.7881 121.597 82.7881 120.904C82.7881 120.264 82.9481 119.704 83.2681 119.224C83.5881 118.744 84.0361 118.376 84.6121 118.12C85.1881 117.864 85.8548 117.736 86.6121 117.736C87.6895 117.736 88.5695 118.008 89.2521 118.552C89.9455 119.085 90.3295 119.821 90.4041 120.76H88.3881C88.3561 120.355 88.1641 120.008 87.8121 119.72C87.4601 119.432 86.9961 119.288 86.4201 119.288C85.8975 119.288 85.4708 119.421 85.1401 119.688C84.8095 119.955 84.6441 120.339 84.6441 120.84C84.6441 121.181 84.7455 121.464 84.9481 121.688C85.1615 121.901 85.4281 122.072 85.7481 122.2C86.0681 122.328 86.5055 122.467 87.0601 122.616C87.7961 122.819 88.3935 123.021 88.8521 123.224C89.3215 123.427 89.7161 123.741 90.0361 124.168C90.3668 124.584 90.5321 125.144 90.5321 125.848C90.5321 126.413 90.3775 126.947 90.0681 127.448C89.7695 127.949 89.3268 128.355 88.7401 128.664C88.1641 128.963 87.4815 129.112 86.6921 129.112ZM99.1286 117.88L98.9206 125.64H97.4006L97.1926 117.88H99.1286ZM98.2166 129.112C97.886 129.112 97.6086 129 97.3846 128.776C97.1606 128.552 97.0486 128.275 97.0486 127.944C97.0486 127.613 97.1606 127.336 97.3846 127.112C97.6086 126.888 97.886 126.776 98.2166 126.776C98.5366 126.776 98.8086 126.888 99.0326 127.112C99.2566 127.336 99.3686 127.613 99.3686 127.944C99.3686 128.275 99.2566 128.552 99.0326 128.776C98.8086 129 98.5366 129.112 98.2166 129.112Z" fill="#EC407A"/>
<circle cx="47.6235" cy="85.879" r="5" fill="#EC407A"/>
<circle cx="118.624" cy="67.879" r="3" fill="#EC407A"/>
<circle cx="21.6235" cy="56.879" r="2.5" stroke="#EC407A"/>
<circle cx="88.6235" cy="21.879" r="1.5" stroke="#EC407A"/>
<path d="M67.1852 97.0565L66.3727 96.5463L65.4663 96.8607L32.9072 108.152C29.7764 109.238 26.3582 107.58 25.2725 104.449L4.51086 44.5837C3.4251 41.4529 5.08291 38.0348 8.21369 36.949L101.749 4.51084C104.879 3.42508 108.297 5.08289 109.383 8.21367L130.145 68.0794C131.231 71.2102 129.573 74.6284 126.442 75.7141L91.3756 87.8753L90.4325 88.2023L90.1269 89.1525L84.1569 107.713L67.1852 97.0565Z" stroke="#8D8D8D" stroke-width="4"/>
<path d="M69.1988 32.3058C68.331 32.6013 67.4942 32.9818 66.7127 33.4369C65.6113 34.0792 64.6071 34.8712 63.7278 35.7903L63.1158 36.4314L67.8604 42.0316L63.9659 53.5787L62.7021 49.8678L58.6931 48.906L57.6911 39.3841L57.0705 39.1923C54.2966 38.334 51.3751 38.3761 48.6218 39.3138C41.4543 41.7549 37.6106 49.5752 40.053 56.7466C41.6235 61.3577 47.9431 72.6289 72.6482 77.6903L73.2131 77.8066L73.5896 77.3696C90.0699 58.2815 88.1965 45.4961 86.6261 40.8849C84.1836 33.7135 76.3658 29.8649 69.1988 32.3058ZM72.4766 75.644C56.3273 72.2225 44.9235 64.943 41.9159 56.1121C39.8235 49.9682 43.1165 43.2691 49.2565 41.1779C51.4105 40.4443 53.684 40.3506 55.8717 40.9007L56.8815 50.4962L61.1888 51.529L63.9753 59.7109L70.0816 41.6083L65.7851 36.5371C66.3741 36.0074 67.0168 35.5396 67.7037 35.1391C68.3725 34.7498 69.0892 34.4234 69.8338 34.1698C75.9733 32.0788 82.6707 35.3755 84.7632 41.5194C87.7706 50.3502 83.1805 63.0769 72.4766 75.644Z" fill="#EC407A"/>
</svg>
