<svg width="172" height="164" viewBox="0 0 172 164" fill="none" xmlns="http://www.w3.org/2000/svg">
<path d="M35.6143 159.479H34.7043L31.0443 153.929V159.479H30.1343V152.499H31.0443L34.7043 158.039V152.499H35.6143V159.479ZM39.5555 159.569C39.0422 159.569 38.5755 159.452 38.1555 159.219C37.7422 158.986 37.4155 158.656 37.1755 158.229C36.9422 157.796 36.8255 157.296 36.8255 156.729C36.8255 156.169 36.9455 155.676 37.1855 155.249C37.4322 154.816 37.7655 154.486 38.1855 154.259C38.6055 154.026 39.0755 153.909 39.5955 153.909C40.1155 153.909 40.5855 154.026 41.0055 154.259C41.4255 154.486 41.7555 154.812 41.9955 155.239C42.2422 155.666 42.3655 156.162 42.3655 156.729C42.3655 157.296 42.2388 157.796 41.9855 158.229C41.7388 158.656 41.4022 158.986 40.9755 159.219C40.5488 159.452 40.0755 159.569 39.5555 159.569ZM39.5555 158.769C39.8822 158.769 40.1888 158.692 40.4755 158.539C40.7622 158.386 40.9922 158.156 41.1655 157.849C41.3455 157.542 41.4355 157.169 41.4355 156.729C41.4355 156.289 41.3488 155.916 41.1755 155.609C41.0022 155.302 40.7755 155.076 40.4955 154.929C40.2155 154.776 39.9122 154.699 39.5855 154.699C39.2522 154.699 38.9455 154.776 38.6655 154.929C38.3922 155.076 38.1722 155.302 38.0055 155.609C37.8388 155.916 37.7555 156.289 37.7555 156.729C37.7555 157.176 37.8355 157.552 37.9955 157.859C38.1622 158.166 38.3822 158.396 38.6555 158.549C38.9288 158.696 39.2288 158.769 39.5555 158.769ZM50.888 154.549C50.888 155.129 50.688 155.612 50.288 155.999C49.8947 156.379 49.2913 156.569 48.478 156.569H47.138V159.479H46.228V152.509H48.478C49.2647 152.509 49.8613 152.699 50.268 153.079C50.6813 153.459 50.888 153.949 50.888 154.549ZM48.478 155.819C48.9847 155.819 49.358 155.709 49.598 155.489C49.838 155.269 49.958 154.956 49.958 154.549C49.958 153.689 49.4647 153.259 48.478 153.259H47.138V155.819H48.478ZM52.929 152.079V159.479H52.019V152.079H52.929ZM54.14 156.719C54.14 156.159 54.2533 155.669 54.48 155.249C54.7066 154.822 55.0166 154.492 55.41 154.259C55.81 154.026 56.2533 153.909 56.74 153.909C57.22 153.909 57.6366 154.012 57.99 154.219C58.3433 154.426 58.6066 154.686 58.78 154.999V153.999H59.7V159.479H58.78V158.459C58.6 158.779 58.33 159.046 57.97 159.259C57.6166 159.466 57.2033 159.569 56.73 159.569C56.2433 159.569 55.8033 159.449 55.41 159.209C55.0166 158.969 54.7066 158.632 54.48 158.199C54.2533 157.766 54.14 157.272 54.14 156.719ZM58.78 156.729C58.78 156.316 58.6966 155.956 58.53 155.649C58.3633 155.342 58.1366 155.109 57.85 154.949C57.57 154.782 57.26 154.699 56.92 154.699C56.58 154.699 56.27 154.779 55.99 154.939C55.71 155.099 55.4866 155.332 55.32 155.639C55.1533 155.946 55.07 156.306 55.07 156.719C55.07 157.139 55.1533 157.506 55.32 157.819C55.4866 158.126 55.71 158.362 55.99 158.529C56.27 158.689 56.58 158.769 56.92 158.769C57.26 158.769 57.57 158.689 57.85 158.529C58.1366 158.362 58.3633 158.126 58.53 157.819C58.6966 157.506 58.78 157.142 58.78 156.729ZM65.9578 153.999L62.6578 162.059H61.7178L62.7978 159.419L60.5878 153.999H61.5978L63.3178 158.439L65.0178 153.999H65.9578ZM67.7825 152.079V159.479H66.8725V152.079H67.7825ZM69.8035 153.109C69.6301 153.109 69.4835 153.049 69.3635 152.929C69.2435 152.809 69.1835 152.662 69.1835 152.489C69.1835 152.316 69.2435 152.169 69.3635 152.049C69.4835 151.929 69.6301 151.869 69.8035 151.869C69.9701 151.869 70.1101 151.929 70.2235 152.049C70.3435 152.169 70.4035 152.316 70.4035 152.489C70.4035 152.662 70.3435 152.809 70.2235 152.929C70.1101 153.049 69.9701 153.109 69.8035 153.109ZM70.2435 153.999V159.479H69.3335V153.999H70.2435ZM73.7344 159.569C73.3144 159.569 72.9377 159.499 72.6044 159.359C72.2711 159.212 72.0077 159.012 71.8144 158.759C71.6211 158.499 71.5144 158.202 71.4944 157.869H72.4344C72.4611 158.142 72.5877 158.366 72.8144 158.539C73.0477 158.712 73.3511 158.799 73.7244 158.799C74.0711 158.799 74.3444 158.722 74.5444 158.569C74.7444 158.416 74.8444 158.222 74.8444 157.989C74.8444 157.749 74.7377 157.572 74.5244 157.459C74.3111 157.339 73.9811 157.222 73.5344 157.109C73.1277 157.002 72.7944 156.896 72.5344 156.789C72.2811 156.676 72.0611 156.512 71.8744 156.299C71.6944 156.079 71.6044 155.792 71.6044 155.439C71.6044 155.159 71.6877 154.902 71.8544 154.669C72.0211 154.436 72.2577 154.252 72.5644 154.119C72.8711 153.979 73.2211 153.909 73.6144 153.909C74.2211 153.909 74.7111 154.062 75.0844 154.369C75.4577 154.676 75.6577 155.096 75.6844 155.629H74.7744C74.7544 155.342 74.6377 155.112 74.4244 154.939C74.2177 154.766 73.9377 154.679 73.5844 154.679C73.2577 154.679 72.9977 154.749 72.8044 154.889C72.6111 155.029 72.5144 155.212 72.5144 155.439C72.5144 155.619 72.5711 155.769 72.6844 155.889C72.8044 156.002 72.9511 156.096 73.1244 156.169C73.3044 156.236 73.5511 156.312 73.8644 156.399C74.2577 156.506 74.5777 156.612 74.8244 156.719C75.0711 156.819 75.2811 156.972 75.4544 157.179C75.6344 157.386 75.7277 157.656 75.7344 157.989C75.7344 158.289 75.6511 158.559 75.4844 158.799C75.3177 159.039 75.0811 159.229 74.7744 159.369C74.4744 159.502 74.1277 159.569 73.7344 159.569ZM78.129 154.749V157.979C78.129 158.246 78.1857 158.436 78.299 158.549C78.4124 158.656 78.609 158.709 78.889 158.709H79.559V159.479H78.739C78.2324 159.479 77.8524 159.362 77.599 159.129C77.3457 158.896 77.219 158.512 77.219 157.979V154.749H76.509V153.999H77.219V152.619H78.129V153.999H79.559V154.749H78.129ZM82.6016 159.569C82.1816 159.569 81.8049 159.499 81.4716 159.359C81.1383 159.212 80.8749 159.012 80.6816 158.759C80.4883 158.499 80.3816 158.202 80.3616 157.869H81.3016C81.3283 158.142 81.4549 158.366 81.6816 158.539C81.9149 158.712 82.2183 158.799 82.5916 158.799C82.9383 158.799 83.2116 158.722 83.4116 158.569C83.6116 158.416 83.7116 158.222 83.7116 157.989C83.7116 157.749 83.6049 157.572 83.3916 157.459C83.1783 157.339 82.8483 157.222 82.4016 157.109C81.9949 157.002 81.6616 156.896 81.4016 156.789C81.1483 156.676 80.9283 156.512 80.7416 156.299C80.5616 156.079 80.4716 155.792 80.4716 155.439C80.4716 155.159 80.5549 154.902 80.7216 154.669C80.8883 154.436 81.1249 154.252 81.4316 154.119C81.7383 153.979 82.0883 153.909 82.4816 153.909C83.0883 153.909 83.5783 154.062 83.9516 154.369C84.3249 154.676 84.5249 155.096 84.5516 155.629H83.6416C83.6216 155.342 83.5049 155.112 83.2916 154.939C83.0849 154.766 82.8049 154.679 82.4516 154.679C82.1249 154.679 81.8649 154.749 81.6716 154.889C81.4783 155.029 81.3816 155.212 81.3816 155.439C81.3816 155.619 81.4383 155.769 81.5516 155.889C81.6716 156.002 81.8183 156.096 81.9916 156.169C82.1716 156.236 82.4183 156.312 82.7316 156.399C83.1249 156.506 83.4449 156.612 83.6916 156.719C83.9383 156.819 84.1483 156.972 84.3216 157.179C84.5016 157.386 84.5949 157.656 84.6016 157.989C84.6016 158.289 84.5183 158.559 84.3516 158.799C84.1849 159.039 83.9483 159.229 83.6416 159.369C83.3416 159.502 82.9949 159.569 82.6016 159.569ZM88.2122 156.729C88.2122 156.162 88.3256 155.669 88.5522 155.249C88.7789 154.822 89.0922 154.492 89.4922 154.259C89.8989 154.026 90.3622 153.909 90.8822 153.909C91.5556 153.909 92.1089 154.072 92.5422 154.399C92.9822 154.726 93.2722 155.179 93.4122 155.759H92.4322C92.3389 155.426 92.1556 155.162 91.8822 154.969C91.6156 154.776 91.2822 154.679 90.8822 154.679C90.3622 154.679 89.9422 154.859 89.6222 155.219C89.3022 155.572 89.1422 156.076 89.1422 156.729C89.1422 157.389 89.3022 157.899 89.6222 158.259C89.9422 158.619 90.3622 158.799 90.8822 158.799C91.2822 158.799 91.6156 158.706 91.8822 158.519C92.1489 158.332 92.3322 158.066 92.4322 157.719H93.4122C93.2656 158.279 92.9722 158.729 92.5322 159.069C92.0922 159.402 91.5422 159.569 90.8822 159.569C90.3622 159.569 89.8989 159.452 89.4922 159.219C89.0922 158.986 88.7789 158.656 88.5522 158.229C88.3256 157.802 88.2122 157.302 88.2122 156.729ZM95.5364 154.889C95.6964 154.576 95.9231 154.332 96.2164 154.159C96.5164 153.986 96.8798 153.899 97.3064 153.899V154.839H97.0664C96.0464 154.839 95.5364 155.392 95.5364 156.499V159.479H94.6264V153.999H95.5364V154.889ZM103.357 156.529C103.357 156.702 103.347 156.886 103.327 157.079H98.9469C98.9802 157.619 99.1636 158.042 99.4969 158.349C99.8369 158.649 100.247 158.799 100.727 158.799C101.12 158.799 101.447 158.709 101.707 158.529C101.974 158.342 102.16 158.096 102.267 157.789H103.247C103.1 158.316 102.807 158.746 102.367 159.079C101.927 159.406 101.38 159.569 100.727 159.569C100.207 159.569 99.7402 159.452 99.3269 159.219C98.9202 158.986 98.6002 158.656 98.3669 158.229C98.1336 157.796 98.0169 157.296 98.0169 156.729C98.0169 156.162 98.1302 155.666 98.3569 155.239C98.5836 154.812 98.9002 154.486 99.3069 154.259C99.7202 154.026 100.194 153.909 100.727 153.909C101.247 153.909 101.707 154.022 102.107 154.249C102.507 154.476 102.814 154.789 103.027 155.189C103.247 155.582 103.357 156.029 103.357 156.529ZM102.417 156.339C102.417 155.992 102.34 155.696 102.187 155.449C102.034 155.196 101.824 155.006 101.557 154.879C101.297 154.746 101.007 154.679 100.687 154.679C100.227 154.679 99.8336 154.826 99.5069 155.119C99.1869 155.412 99.0036 155.819 98.9569 156.339H102.417ZM104.218 156.719C104.218 156.159 104.331 155.669 104.558 155.249C104.785 154.822 105.095 154.492 105.488 154.259C105.888 154.026 106.331 153.909 106.818 153.909C107.298 153.909 107.715 154.012 108.068 154.219C108.421 154.426 108.685 154.686 108.858 154.999V153.999H109.778V159.479H108.858V158.459C108.678 158.779 108.408 159.046 108.048 159.259C107.695 159.466 107.281 159.569 106.808 159.569C106.321 159.569 105.881 159.449 105.488 159.209C105.095 158.969 104.785 158.632 104.558 158.199C104.331 157.766 104.218 157.272 104.218 156.719ZM108.858 156.729C108.858 156.316 108.775 155.956 108.608 155.649C108.441 155.342 108.215 155.109 107.928 154.949C107.648 154.782 107.338 154.699 106.998 154.699C106.658 154.699 106.348 154.779 106.068 154.939C105.788 155.099 105.565 155.332 105.398 155.639C105.231 155.946 105.148 156.306 105.148 156.719C105.148 157.139 105.231 157.506 105.398 157.819C105.565 158.126 105.788 158.362 106.068 158.529C106.348 158.689 106.658 158.769 106.998 158.769C107.338 158.769 107.648 158.689 107.928 158.529C108.215 158.362 108.441 158.126 108.608 157.819C108.775 157.506 108.858 157.142 108.858 156.729ZM112.426 154.749V157.979C112.426 158.246 112.483 158.436 112.596 158.549C112.709 158.656 112.906 158.709 113.186 158.709H113.856V159.479H113.036C112.529 159.479 112.149 159.362 111.896 159.129C111.643 158.896 111.516 158.512 111.516 157.979V154.749H110.806V153.999H111.516V152.619H112.426V153.999H113.856V154.749H112.426ZM119.958 156.529C119.958 156.702 119.948 156.886 119.928 157.079H115.548C115.582 157.619 115.765 158.042 116.098 158.349C116.438 158.649 116.848 158.799 117.328 158.799C117.722 158.799 118.048 158.709 118.308 158.529C118.575 158.342 118.762 158.096 118.868 157.789H119.848C119.702 158.316 119.408 158.746 118.968 159.079C118.528 159.406 117.982 159.569 117.328 159.569C116.808 159.569 116.342 159.452 115.928 159.219C115.522 158.986 115.202 158.656 114.968 158.229C114.735 157.796 114.618 157.296 114.618 156.729C114.618 156.162 114.732 155.666 114.958 155.239C115.185 154.812 115.502 154.486 115.908 154.259C116.322 154.026 116.795 153.909 117.328 153.909C117.848 153.909 118.308 154.022 118.708 154.249C119.108 154.476 119.415 154.789 119.628 155.189C119.848 155.582 119.958 156.029 119.958 156.529ZM119.018 156.339C119.018 155.992 118.942 155.696 118.788 155.449C118.635 155.196 118.425 155.006 118.158 154.879C117.898 154.746 117.608 154.679 117.288 154.679C116.828 154.679 116.435 154.826 116.108 155.119C115.788 155.412 115.605 155.819 115.558 156.339H119.018ZM120.82 156.719C120.82 156.159 120.933 155.669 121.16 155.249C121.386 154.822 121.696 154.492 122.09 154.259C122.49 154.026 122.936 153.909 123.43 153.909C123.856 153.909 124.253 154.009 124.62 154.209C124.986 154.402 125.266 154.659 125.46 154.979V152.079H126.38V159.479H125.46V158.449C125.28 158.776 125.013 159.046 124.66 159.259C124.306 159.466 123.893 159.569 123.42 159.569C122.933 159.569 122.49 159.449 122.09 159.209C121.696 158.969 121.386 158.632 121.16 158.199C120.933 157.766 120.82 157.272 120.82 156.719ZM125.46 156.729C125.46 156.316 125.376 155.956 125.21 155.649C125.043 155.342 124.816 155.109 124.53 154.949C124.25 154.782 123.94 154.699 123.6 154.699C123.26 154.699 122.95 154.779 122.67 154.939C122.39 155.099 122.166 155.332 122 155.639C121.833 155.946 121.75 156.306 121.75 156.719C121.75 157.139 121.833 157.506 122 157.819C122.166 158.126 122.39 158.362 122.67 158.529C122.95 158.689 123.26 158.769 123.6 158.769C123.94 158.769 124.25 158.689 124.53 158.529C124.816 158.362 125.043 158.126 125.21 157.819C125.376 157.506 125.46 157.142 125.46 156.729ZM135.303 153.999L132.003 162.059H131.063L132.143 159.419L129.933 153.999H130.943L132.663 158.439L134.363 153.999H135.303ZM141.218 156.529C141.218 156.702 141.208 156.886 141.188 157.079H136.808C136.842 157.619 137.025 158.042 137.358 158.349C137.698 158.649 138.108 158.799 138.588 158.799C138.982 158.799 139.308 158.709 139.568 158.529C139.835 158.342 140.022 158.096 140.128 157.789H141.108C140.962 158.316 140.668 158.746 140.228 159.079C139.788 159.406 139.242 159.569 138.588 159.569C138.068 159.569 137.602 159.452 137.188 159.219C136.782 158.986 136.462 158.656 136.228 158.229C135.995 157.796 135.878 157.296 135.878 156.729C135.878 156.162 135.992 155.666 136.218 155.239C136.445 154.812 136.762 154.486 137.168 154.259C137.582 154.026 138.055 153.909 138.588 153.909C139.108 153.909 139.568 154.022 139.968 154.249C140.368 154.476 140.675 154.789 140.888 155.189C141.108 155.582 141.218 156.029 141.218 156.529ZM140.278 156.339C140.278 155.992 140.202 155.696 140.048 155.449C139.895 155.196 139.685 155.006 139.418 154.879C139.158 154.746 138.868 154.679 138.548 154.679C138.088 154.679 137.695 154.826 137.368 155.119C137.048 155.412 136.865 155.819 136.818 156.339H140.278ZM143.529 154.749V157.979C143.529 158.246 143.586 158.436 143.699 158.549C143.813 158.656 144.009 158.709 144.289 158.709H144.959V159.479H144.139C143.633 159.479 143.253 159.362 142.999 159.129C142.746 158.896 142.619 158.512 142.619 157.979V154.749H141.909V153.999H142.619V152.619H143.529V153.999H144.959V154.749H143.529Z" fill="#8D8D8D"/>
<path d="M65.8189 144.591C64.7842 144.591 63.8295 144.351 62.9549 143.871C62.0909 143.38 61.4029 142.703 60.8909 141.839C60.3895 140.964 60.1389 139.983 60.1389 138.895C60.1389 137.807 60.3895 136.831 60.8909 135.967C61.4029 135.103 62.0909 134.431 62.9549 133.951C63.8295 133.46 64.7842 133.215 65.8189 133.215C66.8642 133.215 67.8189 133.46 68.6829 133.951C69.5575 134.431 70.2455 135.103 70.7469 135.967C71.2482 136.831 71.4989 137.807 71.4989 138.895C71.4989 139.983 71.2482 140.964 70.7469 141.839C70.2455 142.703 69.5575 143.38 68.6829 143.871C67.8189 144.351 66.8642 144.591 65.8189 144.591ZM65.8189 143.007C66.5549 143.007 67.2109 142.842 67.7869 142.511C68.3629 142.17 68.8109 141.69 69.1309 141.071C69.4615 140.442 69.6269 139.716 69.6269 138.895C69.6269 138.074 69.4615 137.354 69.1309 136.735C68.8109 136.116 68.3629 135.642 67.7869 135.311C67.2109 134.98 66.5549 134.815 65.8189 134.815C65.0829 134.815 64.4269 134.98 63.8509 135.311C63.2749 135.642 62.8215 136.116 62.4909 136.735C62.1709 137.354 62.0109 138.074 62.0109 138.895C62.0109 139.716 62.1709 140.442 62.4909 141.071C62.8215 141.69 63.2749 142.17 63.8509 142.511C64.4269 142.842 65.0829 143.007 65.8189 143.007ZM78.3658 144.591C77.3311 144.591 76.3764 144.351 75.5018 143.871C74.6378 143.38 73.9498 142.703 73.4378 141.839C72.9364 140.964 72.6858 139.983 72.6858 138.895C72.6858 137.807 72.9364 136.831 73.4378 135.967C73.9498 135.103 74.6378 134.431 75.5018 133.951C76.3764 133.46 77.3311 133.215 78.3658 133.215C79.4111 133.215 80.3658 133.46 81.2298 133.951C82.1044 134.431 82.7924 135.103 83.2938 135.967C83.7951 136.831 84.0458 137.807 84.0458 138.895C84.0458 139.983 83.7951 140.964 83.2938 141.839C82.7924 142.703 82.1044 143.38 81.2298 143.871C80.3658 144.351 79.4111 144.591 78.3658 144.591ZM78.3658 143.007C79.1018 143.007 79.7578 142.842 80.3338 142.511C80.9098 142.17 81.3578 141.69 81.6778 141.071C82.0084 140.442 82.1738 139.716 82.1738 138.895C82.1738 138.074 82.0084 137.354 81.6778 136.735C81.3578 136.116 80.9098 135.642 80.3338 135.311C79.7578 134.98 79.1018 134.815 78.3658 134.815C77.6298 134.815 76.9738 134.98 76.3978 135.311C75.8218 135.642 75.3684 136.116 75.0378 136.735C74.7178 137.354 74.5578 138.074 74.5578 138.895C74.5578 139.716 74.7178 140.442 75.0378 141.071C75.3684 141.69 75.8218 142.17 76.3978 142.511C76.9738 142.842 77.6298 143.007 78.3658 143.007ZM93.6166 136.671C93.6166 137.236 93.4833 137.77 93.2166 138.271C92.95 138.772 92.5233 139.183 91.9366 139.503C91.35 139.812 90.598 139.967 89.6806 139.967H87.6646V144.479H85.8406V133.359H89.6806C90.534 133.359 91.254 133.508 91.8406 133.807C92.438 134.095 92.8806 134.49 93.1686 134.991C93.4673 135.492 93.6166 136.052 93.6166 136.671ZM89.6806 138.479C90.374 138.479 90.8913 138.324 91.2326 138.015C91.574 137.695 91.7446 137.247 91.7446 136.671C91.7446 135.455 91.0566 134.847 89.6806 134.847H87.6646V138.479H89.6806ZM99.0203 144.591C98.2736 144.591 97.6016 144.463 97.0043 144.207C96.4069 143.94 95.9376 143.567 95.5963 143.087C95.2549 142.607 95.0843 142.047 95.0843 141.407H97.0363C97.0789 141.887 97.2656 142.282 97.5963 142.591C97.9376 142.9 98.4123 143.055 99.0203 143.055C99.6496 143.055 100.14 142.906 100.492 142.607C100.844 142.298 101.02 141.903 101.02 141.423C101.02 141.05 100.908 140.746 100.684 140.511C100.471 140.276 100.199 140.095 99.8683 139.967C99.5483 139.839 99.1003 139.7 98.5243 139.551C97.7989 139.359 97.2069 139.167 96.7483 138.975C96.3003 138.772 95.9163 138.463 95.5963 138.047C95.2763 137.631 95.1163 137.076 95.1163 136.383C95.1163 135.743 95.2763 135.183 95.5963 134.703C95.9163 134.223 96.3643 133.855 96.9403 133.599C97.5163 133.343 98.1829 133.215 98.9403 133.215C100.018 133.215 100.898 133.487 101.58 134.031C102.274 134.564 102.658 135.3 102.732 136.239H100.716C100.684 135.834 100.492 135.487 100.14 135.199C99.7883 134.911 99.3243 134.767 98.7483 134.767C98.2256 134.767 97.7989 134.9 97.4683 135.167C97.1376 135.434 96.9723 135.818 96.9723 136.319C96.9723 136.66 97.0736 136.943 97.2763 137.167C97.4896 137.38 97.7563 137.551 98.0763 137.679C98.3963 137.807 98.8336 137.946 99.3883 138.095C100.124 138.298 100.722 138.5 101.18 138.703C101.65 138.906 102.044 139.22 102.364 139.647C102.695 140.063 102.86 140.623 102.86 141.327C102.86 141.892 102.706 142.426 102.396 142.927C102.098 143.428 101.655 143.834 101.068 144.143C100.492 144.442 99.8096 144.591 99.0203 144.591ZM111.457 133.359L111.249 141.119H109.729L109.521 133.359H111.457ZM110.545 144.591C110.214 144.591 109.937 144.479 109.713 144.255C109.489 144.031 109.377 143.754 109.377 143.423C109.377 143.092 109.489 142.815 109.713 142.591C109.937 142.367 110.214 142.255 110.545 142.255C110.865 142.255 111.137 142.367 111.361 142.591C111.585 142.815 111.697 143.092 111.697 143.423C111.697 143.754 111.585 144.031 111.361 144.255C111.137 144.479 110.865 144.591 110.545 144.591Z" fill="#EC407A"/>
<circle cx="35.41" cy="109.888" r="5.76119" transform="rotate(19.1799 35.41 109.888)" fill="#EC407A"/>
<circle cx="150.006" cy="97.7364" r="3.45672" transform="rotate(19.1799 150.006 97.7364)" fill="#EC407A"/>
<circle cx="30.1726" cy="27.4499" r="2.8806" transform="rotate(19.1799 30.1726 27.4499)" stroke="#EC407A" stroke-width="1.15224"/>
<circle cx="80.5572" cy="17.9174" r="1.72836" transform="rotate(19.1799 80.5572 17.9174)" stroke="#EC407A" stroke-width="1.15224"/>
<path d="M159.944 71.7477C159.944 71.665 159.944 71.665 159.868 71.5823C159.868 71.4997 159.792 71.4997 159.792 71.417C159.792 71.3344 159.717 71.3344 159.717 71.2517L159.641 71.169C159.641 71.0864 159.565 71.0864 159.565 71.0037L157.666 69.1852C155.161 66.8708 153.339 63.7298 152.427 60.1755L152.124 59.2662C149.77 50.5871 143.62 43.8917 135.571 41.2466L129.345 39.2628C128.889 39.0975 128.358 39.1802 127.978 39.5108C127.599 39.8414 127.371 40.3374 127.371 40.8333V91.8337C126.688 91.2551 125.852 90.7591 124.865 90.4285C122.284 89.4366 119.171 89.3539 116.133 90.2632C109.528 92.1643 105.427 97.7851 106.642 102.91C107.25 105.472 109.148 107.539 111.957 108.613C113.324 109.109 114.843 109.44 116.437 109.44C117.804 109.44 119.247 109.192 120.689 108.779C127.219 106.878 131.395 101.339 130.18 96.2146C130.332 95.9666 130.408 95.7186 130.408 95.388V55.7945L133.749 57.1997C137.697 58.7703 141.114 61.9939 143.012 66.0442L143.24 66.5402C145.518 71.169 149.846 74.0621 154.705 74.0621H158.502C158.502 74.0621 158.502 74.0621 158.578 74.0621C158.654 74.0621 158.654 74.0621 158.729 74.0621C158.805 74.0621 158.805 74.0621 158.881 74.0621C158.957 74.0621 158.957 74.0621 159.033 73.9794C159.109 73.9794 159.109 73.9794 159.185 73.8968C159.261 73.8968 159.261 73.8141 159.337 73.8141C159.413 73.8141 159.413 73.7315 159.489 73.7315L159.565 73.6488C159.641 73.6488 159.641 73.5661 159.717 73.5661C159.641 73.4835 159.641 73.4835 159.717 73.4008C159.717 73.3182 159.792 73.3182 159.792 73.2355C159.792 73.1528 159.868 73.1528 159.868 73.0702C159.868 72.9875 159.944 72.9875 159.944 72.9049C159.944 72.8222 159.944 72.8222 160.02 72.7396C160.02 72.6569 160.02 72.6569 160.02 72.5742C160.02 72.4916 160.02 72.4916 160.02 72.4089V72.3263C160.02 72.3263 160.02 72.3263 160.02 72.2436C160.02 72.1609 160.02 72.1609 160.02 72.0783C160.02 71.9956 160.02 71.9956 160.02 71.913C160.02 71.8303 160.02 71.8303 159.944 71.7477ZM119.93 105.803C117.5 106.547 114.995 106.464 113.02 105.72C111.198 105.059 109.983 103.819 109.604 102.331C108.768 99.025 112.109 95.0574 116.893 93.7348C118.032 93.4042 119.247 93.2389 120.385 93.2389C121.6 93.2389 122.739 93.4042 123.802 93.8175C125.625 94.4788 126.839 95.7186 127.219 97.2065C128.054 100.43 124.713 104.398 119.93 105.803ZM145.973 65.0523L145.746 64.5564C143.468 59.6795 139.519 55.9599 134.812 54.1414L130.408 52.2402V43.1478L134.66 44.4703C141.646 46.7021 147.036 52.5709 149.162 60.2581L149.466 61.1674C150.377 64.8043 152.124 68.028 154.553 70.5904C150.909 70.6731 147.644 68.524 145.973 65.0523Z" fill="#EC407A"/>
<path d="M59.7065 38.2584H110.755C112.268 38.2584 113.507 36.9103 113.507 35.2626C113.507 33.6149 112.268 32.2667 110.755 32.2667H59.7065C58.193 32.2667 56.9546 33.6149 56.9546 35.2626C56.9546 36.9103 58.193 38.2584 59.7065 38.2584Z" fill="#8D8D8D"/>
<path d="M49.9365 32.2667H45.8086C44.295 32.2667 43.0566 33.6149 43.0566 35.2626C43.0566 36.9103 44.295 38.2584 45.8086 38.2584H49.9365C51.45 38.2584 52.6884 36.9103 52.6884 35.2626C52.6884 33.6149 51.45 32.2667 49.9365 32.2667Z" fill="#8D8D8D"/>
<path d="M59.7065 56.2333H103.875C105.389 56.2333 106.627 54.8851 106.627 53.2374C106.627 51.5897 105.389 50.2416 103.875 50.2416H59.7065C58.193 50.2416 56.9546 51.5897 56.9546 53.2374C56.9546 54.8851 58.193 56.2333 59.7065 56.2333Z" fill="#8D8D8D"/>
<path d="M49.9365 50.2416H45.8086C44.295 50.2416 43.0566 51.5897 43.0566 53.2374C43.0566 54.8851 44.295 56.2333 45.8086 56.2333H49.9365C51.45 56.2333 52.6884 54.8851 52.6884 53.2374C52.6884 51.5897 51.45 50.2416 49.9365 50.2416Z" fill="#8D8D8D"/>
<path d="M59.7065 74.2085H114.883C116.396 74.2085 117.635 72.8604 117.635 71.2126C117.635 69.5649 116.396 68.2168 114.883 68.2168H59.7065C58.193 68.2168 56.9546 69.5649 56.9546 71.2126C56.9546 72.8604 58.193 74.2085 59.7065 74.2085Z" fill="#8D8D8D"/>
<path d="M49.9365 68.2168H45.8086C44.295 68.2168 43.0566 69.5649 43.0566 71.2126C43.0566 72.8604 44.295 74.2085 45.8086 74.2085H49.9365C51.45 74.2085 52.6884 72.8604 52.6884 71.2126C52.6884 69.5649 51.45 68.2168 49.9365 68.2168Z" fill="#8D8D8D"/>
<path d="M99.7471 89.1873C99.7471 87.5395 98.5088 86.1914 96.9952 86.1914H59.7065C58.193 86.1914 56.9546 87.5395 56.9546 89.1873C56.9546 90.835 58.193 92.1831 59.7065 92.1831H96.9952C98.5088 92.1831 99.7471 90.835 99.7471 89.1873Z" fill="#8D8D8D"/>
<path d="M49.9365 86.1914H45.8086C44.295 86.1914 43.0566 87.5395 43.0566 89.1873C43.0566 90.835 44.295 92.1831 45.8086 92.1831H49.9365C51.45 92.1831 52.6884 90.835 52.6884 89.1873C52.6884 87.5395 51.45 86.1914 49.9365 86.1914Z" fill="#8D8D8D"/>
</svg>
