<svg width="176" height="171" viewBox="0 0 176 171" fill="none" xmlns="http://www.w3.org/2000/svg">
<path d="M35.6323 166.479H34.7223L31.0623 160.929V166.479H30.1523V159.499H31.0623L34.7223 165.039V159.499H35.6323V166.479ZM39.5736 166.569C39.0602 166.569 38.5936 166.453 38.1736 166.219C37.7602 165.986 37.4336 165.656 37.1936 165.229C36.9602 164.796 36.8436 164.296 36.8436 163.729C36.8436 163.169 36.9636 162.676 37.2036 162.249C37.4502 161.816 37.7836 161.486 38.2036 161.259C38.6236 161.026 39.0936 160.909 39.6136 160.909C40.1336 160.909 40.6036 161.026 41.0236 161.259C41.4436 161.486 41.7736 161.813 42.0136 162.239C42.2602 162.666 42.3836 163.163 42.3836 163.729C42.3836 164.296 42.2569 164.796 42.0036 165.229C41.7569 165.656 41.4202 165.986 40.9936 166.219C40.5669 166.453 40.0936 166.569 39.5736 166.569ZM39.5736 165.769C39.9002 165.769 40.2069 165.693 40.4936 165.539C40.7802 165.386 41.0102 165.156 41.1836 164.849C41.3636 164.543 41.4536 164.169 41.4536 163.729C41.4536 163.289 41.3669 162.916 41.1936 162.609C41.0202 162.303 40.7936 162.076 40.5136 161.929C40.2336 161.776 39.9302 161.699 39.6036 161.699C39.2702 161.699 38.9636 161.776 38.6836 161.929C38.4102 162.076 38.1902 162.303 38.0236 162.609C37.8569 162.916 37.7736 163.289 37.7736 163.729C37.7736 164.176 37.8536 164.553 38.0136 164.859C38.1802 165.166 38.4002 165.396 38.6736 165.549C38.9469 165.696 39.2469 165.769 39.5736 165.769ZM50.9061 161.549C50.9061 162.129 50.7061 162.613 50.3061 162.999C49.9127 163.379 49.3094 163.569 48.4961 163.569H47.1561V166.479H46.2461V159.509H48.4961C49.2827 159.509 49.8794 159.699 50.2861 160.079C50.6994 160.459 50.9061 160.949 50.9061 161.549ZM48.4961 162.819C49.0027 162.819 49.3761 162.709 49.6161 162.489C49.8561 162.269 49.9761 161.956 49.9761 161.549C49.9761 160.689 49.4827 160.259 48.4961 160.259H47.1561V162.819H48.4961ZM52.9471 159.079V166.479H52.0371V159.079H52.9471ZM54.158 163.719C54.158 163.159 54.2714 162.669 54.498 162.249C54.7247 161.823 55.0347 161.493 55.428 161.259C55.828 161.026 56.2714 160.909 56.758 160.909C57.238 160.909 57.6547 161.013 58.008 161.219C58.3614 161.426 58.6247 161.686 58.798 161.999V160.999H59.718V166.479H58.798V165.459C58.618 165.779 58.348 166.046 57.988 166.259C57.6347 166.466 57.2214 166.569 56.748 166.569C56.2614 166.569 55.8214 166.449 55.428 166.209C55.0347 165.969 54.7247 165.633 54.498 165.199C54.2714 164.766 54.158 164.273 54.158 163.719ZM58.798 163.729C58.798 163.316 58.7147 162.956 58.548 162.649C58.3814 162.343 58.1547 162.109 57.868 161.949C57.588 161.783 57.278 161.699 56.938 161.699C56.598 161.699 56.288 161.779 56.008 161.939C55.728 162.099 55.5047 162.333 55.338 162.639C55.1714 162.946 55.088 163.306 55.088 163.719C55.088 164.139 55.1714 164.506 55.338 164.819C55.5047 165.126 55.728 165.363 56.008 165.529C56.288 165.689 56.598 165.769 56.938 165.769C57.278 165.769 57.588 165.689 57.868 165.529C58.1547 165.363 58.3814 165.126 58.548 164.819C58.7147 164.506 58.798 164.143 58.798 163.729ZM65.9758 160.999L62.6758 169.059H61.7358L62.8158 166.419L60.6058 160.999H61.6158L63.3358 165.439L65.0358 160.999H65.9758ZM67.8006 159.079V166.479H66.8906V159.079H67.8006ZM69.8215 160.109C69.6482 160.109 69.5015 160.049 69.3815 159.929C69.2615 159.809 69.2015 159.663 69.2015 159.489C69.2015 159.316 69.2615 159.169 69.3815 159.049C69.5015 158.929 69.6482 158.869 69.8215 158.869C69.9882 158.869 70.1282 158.929 70.2415 159.049C70.3615 159.169 70.4215 159.316 70.4215 159.489C70.4215 159.663 70.3615 159.809 70.2415 159.929C70.1282 160.049 69.9882 160.109 69.8215 160.109ZM70.2615 160.999V166.479H69.3515V160.999H70.2615ZM73.7525 166.569C73.3325 166.569 72.9558 166.499 72.6225 166.359C72.2891 166.213 72.0258 166.013 71.8325 165.759C71.6391 165.499 71.5325 165.203 71.5125 164.869H72.4525C72.4791 165.143 72.6058 165.366 72.8325 165.539C73.0658 165.713 73.3691 165.799 73.7425 165.799C74.0891 165.799 74.3625 165.723 74.5625 165.569C74.7625 165.416 74.8625 165.223 74.8625 164.989C74.8625 164.749 74.7558 164.573 74.5425 164.459C74.3291 164.339 73.9991 164.223 73.5525 164.109C73.1458 164.003 72.8125 163.896 72.5525 163.789C72.2991 163.676 72.0791 163.513 71.8925 163.299C71.7125 163.079 71.6225 162.793 71.6225 162.439C71.6225 162.159 71.7058 161.903 71.8725 161.669C72.0391 161.436 72.2758 161.253 72.5825 161.119C72.8891 160.979 73.2391 160.909 73.6325 160.909C74.2391 160.909 74.7291 161.063 75.1025 161.369C75.4758 161.676 75.6758 162.096 75.7025 162.629H74.7925C74.7725 162.343 74.6558 162.113 74.4425 161.939C74.2358 161.766 73.9558 161.679 73.6025 161.679C73.2758 161.679 73.0158 161.749 72.8225 161.889C72.6291 162.029 72.5325 162.213 72.5325 162.439C72.5325 162.619 72.5891 162.769 72.7025 162.889C72.8225 163.003 72.9691 163.096 73.1425 163.169C73.3225 163.236 73.5691 163.313 73.8825 163.399C74.2758 163.506 74.5958 163.613 74.8425 163.719C75.0891 163.819 75.2991 163.973 75.4725 164.179C75.6525 164.386 75.7458 164.656 75.7525 164.989C75.7525 165.289 75.6691 165.559 75.5025 165.799C75.3358 166.039 75.0991 166.229 74.7925 166.369C74.4925 166.503 74.1458 166.569 73.7525 166.569ZM78.1471 161.749V164.979C78.1471 165.246 78.2038 165.436 78.3171 165.549C78.4304 165.656 78.6271 165.709 78.9071 165.709H79.5771V166.479H78.7571C78.2504 166.479 77.8704 166.363 77.6171 166.129C77.3638 165.896 77.2371 165.513 77.2371 164.979V161.749H76.5271V160.999H77.2371V159.619H78.1471V160.999H79.5771V161.749H78.1471ZM82.6197 166.569C82.1997 166.569 81.823 166.499 81.4897 166.359C81.1563 166.213 80.893 166.013 80.6997 165.759C80.5063 165.499 80.3997 165.203 80.3797 164.869H81.3197C81.3463 165.143 81.473 165.366 81.6997 165.539C81.933 165.713 82.2363 165.799 82.6097 165.799C82.9563 165.799 83.2297 165.723 83.4297 165.569C83.6297 165.416 83.7297 165.223 83.7297 164.989C83.7297 164.749 83.623 164.573 83.4097 164.459C83.1963 164.339 82.8663 164.223 82.4197 164.109C82.013 164.003 81.6797 163.896 81.4197 163.789C81.1663 163.676 80.9463 163.513 80.7597 163.299C80.5797 163.079 80.4897 162.793 80.4897 162.439C80.4897 162.159 80.573 161.903 80.7397 161.669C80.9063 161.436 81.143 161.253 81.4497 161.119C81.7563 160.979 82.1063 160.909 82.4997 160.909C83.1063 160.909 83.5963 161.063 83.9697 161.369C84.343 161.676 84.543 162.096 84.5697 162.629H83.6597C83.6397 162.343 83.523 162.113 83.3097 161.939C83.103 161.766 82.823 161.679 82.4697 161.679C82.143 161.679 81.883 161.749 81.6897 161.889C81.4963 162.029 81.3997 162.213 81.3997 162.439C81.3997 162.619 81.4563 162.769 81.5697 162.889C81.6897 163.003 81.8363 163.096 82.0097 163.169C82.1897 163.236 82.4363 163.313 82.7497 163.399C83.143 163.506 83.463 163.613 83.7097 163.719C83.9563 163.819 84.1663 163.973 84.3397 164.179C84.5197 164.386 84.613 164.656 84.6197 164.989C84.6197 165.289 84.5363 165.559 84.3697 165.799C84.203 166.039 83.9663 166.229 83.6597 166.369C83.3597 166.503 83.013 166.569 82.6197 166.569ZM88.2303 163.729C88.2303 163.163 88.3436 162.669 88.5703 162.249C88.797 161.823 89.1103 161.493 89.5103 161.259C89.917 161.026 90.3803 160.909 90.9003 160.909C91.5736 160.909 92.127 161.073 92.5603 161.399C93.0003 161.726 93.2903 162.179 93.4303 162.759H92.4503C92.357 162.426 92.1736 162.163 91.9003 161.969C91.6336 161.776 91.3003 161.679 90.9003 161.679C90.3803 161.679 89.9603 161.859 89.6403 162.219C89.3203 162.573 89.1603 163.076 89.1603 163.729C89.1603 164.389 89.3203 164.899 89.6403 165.259C89.9603 165.619 90.3803 165.799 90.9003 165.799C91.3003 165.799 91.6336 165.706 91.9003 165.519C92.167 165.333 92.3503 165.066 92.4503 164.719H93.4303C93.2836 165.279 92.9903 165.729 92.5503 166.069C92.1103 166.403 91.5603 166.569 90.9003 166.569C90.3803 166.569 89.917 166.453 89.5103 166.219C89.1103 165.986 88.797 165.656 88.5703 165.229C88.3436 164.803 88.2303 164.303 88.2303 163.729ZM95.5545 161.889C95.7145 161.576 95.9412 161.333 96.2345 161.159C96.5345 160.986 96.8978 160.899 97.3245 160.899V161.839H97.0845C96.0645 161.839 95.5545 162.393 95.5545 163.499V166.479H94.6445V160.999H95.5545V161.889ZM103.375 163.529C103.375 163.703 103.365 163.886 103.345 164.079H98.965C98.9983 164.619 99.1816 165.043 99.515 165.349C99.855 165.649 100.265 165.799 100.745 165.799C101.138 165.799 101.465 165.709 101.725 165.529C101.992 165.343 102.178 165.096 102.285 164.789H103.265C103.118 165.316 102.825 165.746 102.385 166.079C101.945 166.406 101.398 166.569 100.745 166.569C100.225 166.569 99.7583 166.453 99.345 166.219C98.9383 165.986 98.6183 165.656 98.385 165.229C98.1516 164.796 98.035 164.296 98.035 163.729C98.035 163.163 98.1483 162.666 98.375 162.239C98.6016 161.813 98.9183 161.486 99.325 161.259C99.7383 161.026 100.212 160.909 100.745 160.909C101.265 160.909 101.725 161.023 102.125 161.249C102.525 161.476 102.832 161.789 103.045 162.189C103.265 162.583 103.375 163.029 103.375 163.529ZM102.435 163.339C102.435 162.993 102.358 162.696 102.205 162.449C102.052 162.196 101.842 162.006 101.575 161.879C101.315 161.746 101.025 161.679 100.705 161.679C100.245 161.679 99.8516 161.826 99.525 162.119C99.205 162.413 99.0216 162.819 98.975 163.339H102.435ZM104.236 163.719C104.236 163.159 104.349 162.669 104.576 162.249C104.803 161.823 105.113 161.493 105.506 161.259C105.906 161.026 106.349 160.909 106.836 160.909C107.316 160.909 107.733 161.013 108.086 161.219C108.439 161.426 108.703 161.686 108.876 161.999V160.999H109.796V166.479H108.876V165.459C108.696 165.779 108.426 166.046 108.066 166.259C107.713 166.466 107.299 166.569 106.826 166.569C106.339 166.569 105.899 166.449 105.506 166.209C105.113 165.969 104.803 165.633 104.576 165.199C104.349 164.766 104.236 164.273 104.236 163.719ZM108.876 163.729C108.876 163.316 108.793 162.956 108.626 162.649C108.459 162.343 108.233 162.109 107.946 161.949C107.666 161.783 107.356 161.699 107.016 161.699C106.676 161.699 106.366 161.779 106.086 161.939C105.806 162.099 105.583 162.333 105.416 162.639C105.249 162.946 105.166 163.306 105.166 163.719C105.166 164.139 105.249 164.506 105.416 164.819C105.583 165.126 105.806 165.363 106.086 165.529C106.366 165.689 106.676 165.769 107.016 165.769C107.356 165.769 107.666 165.689 107.946 165.529C108.233 165.363 108.459 165.126 108.626 164.819C108.793 164.506 108.876 164.143 108.876 163.729ZM112.444 161.749V164.979C112.444 165.246 112.501 165.436 112.614 165.549C112.727 165.656 112.924 165.709 113.204 165.709H113.874V166.479H113.054C112.547 166.479 112.167 166.363 111.914 166.129C111.661 165.896 111.534 165.513 111.534 164.979V161.749H110.824V160.999H111.534V159.619H112.444V160.999H113.874V161.749H112.444ZM119.977 163.529C119.977 163.703 119.967 163.886 119.947 164.079H115.567C115.6 164.619 115.783 165.043 116.117 165.349C116.457 165.649 116.867 165.799 117.347 165.799C117.74 165.799 118.067 165.709 118.327 165.529C118.593 165.343 118.78 165.096 118.887 164.789H119.867C119.72 165.316 119.427 165.746 118.987 166.079C118.547 166.406 118 166.569 117.347 166.569C116.827 166.569 116.36 166.453 115.947 166.219C115.54 165.986 115.22 165.656 114.987 165.229C114.753 164.796 114.637 164.296 114.637 163.729C114.637 163.163 114.75 162.666 114.977 162.239C115.203 161.813 115.52 161.486 115.927 161.259C116.34 161.026 116.813 160.909 117.347 160.909C117.867 160.909 118.327 161.023 118.727 161.249C119.127 161.476 119.433 161.789 119.647 162.189C119.867 162.583 119.977 163.029 119.977 163.529ZM119.037 163.339C119.037 162.993 118.96 162.696 118.807 162.449C118.653 162.196 118.443 162.006 118.177 161.879C117.917 161.746 117.627 161.679 117.307 161.679C116.847 161.679 116.453 161.826 116.127 162.119C115.807 162.413 115.623 162.819 115.577 163.339H119.037ZM120.838 163.719C120.838 163.159 120.951 162.669 121.178 162.249C121.404 161.823 121.714 161.493 122.108 161.259C122.508 161.026 122.954 160.909 123.448 160.909C123.874 160.909 124.271 161.009 124.638 161.209C125.004 161.403 125.284 161.659 125.478 161.979V159.079H126.398V166.479H125.478V165.449C125.298 165.776 125.031 166.046 124.678 166.259C124.324 166.466 123.911 166.569 123.438 166.569C122.951 166.569 122.508 166.449 122.108 166.209C121.714 165.969 121.404 165.633 121.178 165.199C120.951 164.766 120.838 164.273 120.838 163.719ZM125.478 163.729C125.478 163.316 125.394 162.956 125.228 162.649C125.061 162.343 124.834 162.109 124.548 161.949C124.268 161.783 123.958 161.699 123.618 161.699C123.278 161.699 122.968 161.779 122.688 161.939C122.408 162.099 122.184 162.333 122.018 162.639C121.851 162.946 121.768 163.306 121.768 163.719C121.768 164.139 121.851 164.506 122.018 164.819C122.184 165.126 122.408 165.363 122.688 165.529C122.968 165.689 123.278 165.769 123.618 165.769C123.958 165.769 124.268 165.689 124.548 165.529C124.834 165.363 125.061 165.126 125.228 164.819C125.394 164.506 125.478 164.143 125.478 163.729ZM135.322 160.999L132.022 169.059H131.082L132.162 166.419L129.952 160.999H130.962L132.682 165.439L134.382 160.999H135.322ZM141.236 163.529C141.236 163.703 141.226 163.886 141.206 164.079H136.826C136.86 164.619 137.043 165.043 137.376 165.349C137.716 165.649 138.126 165.799 138.606 165.799C139 165.799 139.326 165.709 139.586 165.529C139.853 165.343 140.04 165.096 140.146 164.789H141.126C140.98 165.316 140.686 165.746 140.246 166.079C139.806 166.406 139.26 166.569 138.606 166.569C138.086 166.569 137.62 166.453 137.206 166.219C136.8 165.986 136.48 165.656 136.246 165.229C136.013 164.796 135.896 164.296 135.896 163.729C135.896 163.163 136.01 162.666 136.236 162.239C136.463 161.813 136.78 161.486 137.186 161.259C137.6 161.026 138.073 160.909 138.606 160.909C139.126 160.909 139.586 161.023 139.986 161.249C140.386 161.476 140.693 161.789 140.906 162.189C141.126 162.583 141.236 163.029 141.236 163.529ZM140.296 163.339C140.296 162.993 140.22 162.696 140.066 162.449C139.913 162.196 139.703 162.006 139.436 161.879C139.176 161.746 138.886 161.679 138.566 161.679C138.106 161.679 137.713 161.826 137.386 162.119C137.066 162.413 136.883 162.819 136.836 163.339H140.296ZM143.547 161.749V164.979C143.547 165.246 143.604 165.436 143.717 165.549C143.831 165.656 144.027 165.709 144.307 165.709H144.977V166.479H144.157C143.651 166.479 143.271 166.363 143.017 166.129C142.764 165.896 142.637 165.513 142.637 164.979V161.749H141.927V160.999H142.637V159.619H143.547V160.999H144.977V161.749H143.547Z" fill="#8D8D8D"/>
<path d="M65.8369 151.591C64.8023 151.591 63.8476 151.351 62.9729 150.871C62.1089 150.381 61.4209 149.703 60.9089 148.839C60.4076 147.965 60.1569 146.983 60.1569 145.895C60.1569 144.807 60.4076 143.831 60.9089 142.967C61.4209 142.103 62.1089 141.431 62.9729 140.951C63.8476 140.461 64.8023 140.215 65.8369 140.215C66.8823 140.215 67.8369 140.461 68.7009 140.951C69.5756 141.431 70.2636 142.103 70.7649 142.967C71.2663 143.831 71.5169 144.807 71.5169 145.895C71.5169 146.983 71.2663 147.965 70.7649 148.839C70.2636 149.703 69.5756 150.381 68.7009 150.871C67.8369 151.351 66.8823 151.591 65.8369 151.591ZM65.8369 150.007C66.5729 150.007 67.2289 149.842 67.8049 149.511C68.3809 149.17 68.8289 148.69 69.1489 148.071C69.4796 147.442 69.6449 146.717 69.6449 145.895C69.6449 145.074 69.4796 144.354 69.1489 143.735C68.8289 143.117 68.3809 142.642 67.8049 142.311C67.2289 141.981 66.5729 141.815 65.8369 141.815C65.1009 141.815 64.4449 141.981 63.8689 142.311C63.2929 142.642 62.8396 143.117 62.5089 143.735C62.1889 144.354 62.0289 145.074 62.0289 145.895C62.0289 146.717 62.1889 147.442 62.5089 148.071C62.8396 148.69 63.2929 149.17 63.8689 149.511C64.4449 149.842 65.1009 150.007 65.8369 150.007ZM78.3838 151.591C77.3492 151.591 76.3945 151.351 75.5198 150.871C74.6558 150.381 73.9678 149.703 73.4558 148.839C72.9545 147.965 72.7038 146.983 72.7038 145.895C72.7038 144.807 72.9545 143.831 73.4558 142.967C73.9678 142.103 74.6558 141.431 75.5198 140.951C76.3945 140.461 77.3492 140.215 78.3838 140.215C79.4291 140.215 80.3838 140.461 81.2478 140.951C82.1225 141.431 82.8105 142.103 83.3118 142.967C83.8132 143.831 84.0638 144.807 84.0638 145.895C84.0638 146.983 83.8132 147.965 83.3118 148.839C82.8105 149.703 82.1225 150.381 81.2478 150.871C80.3838 151.351 79.4291 151.591 78.3838 151.591ZM78.3838 150.007C79.1198 150.007 79.7758 149.842 80.3518 149.511C80.9278 149.17 81.3758 148.69 81.6958 148.071C82.0265 147.442 82.1918 146.717 82.1918 145.895C82.1918 145.074 82.0265 144.354 81.6958 143.735C81.3758 143.117 80.9278 142.642 80.3518 142.311C79.7758 141.981 79.1198 141.815 78.3838 141.815C77.6478 141.815 76.9918 141.981 76.4158 142.311C75.8398 142.642 75.3865 143.117 75.0558 143.735C74.7358 144.354 74.5758 145.074 74.5758 145.895C74.5758 146.717 74.7358 147.442 75.0558 148.071C75.3865 148.69 75.8398 149.17 76.4158 149.511C76.9918 149.842 77.6478 150.007 78.3838 150.007ZM93.6347 143.671C93.6347 144.237 93.5014 144.77 93.2347 145.271C92.968 145.773 92.5414 146.183 91.9547 146.503C91.368 146.813 90.616 146.967 89.6987 146.967H87.6827V151.479H85.8587V140.359H89.6987C90.552 140.359 91.272 140.509 91.8587 140.807C92.456 141.095 92.8987 141.49 93.1867 141.991C93.4854 142.493 93.6347 143.053 93.6347 143.671ZM89.6987 145.479C90.392 145.479 90.9094 145.325 91.2507 145.015C91.592 144.695 91.7627 144.247 91.7627 143.671C91.7627 142.455 91.0747 141.847 89.6987 141.847H87.6827V145.479H89.6987ZM99.0383 151.591C98.2916 151.591 97.6196 151.463 97.0223 151.207C96.425 150.941 95.9556 150.567 95.6143 150.087C95.273 149.607 95.1023 149.047 95.1023 148.407H97.0543C97.097 148.887 97.2836 149.282 97.6143 149.591C97.9556 149.901 98.4303 150.055 99.0383 150.055C99.6676 150.055 100.158 149.906 100.51 149.607C100.862 149.298 101.038 148.903 101.038 148.423C101.038 148.05 100.926 147.746 100.702 147.511C100.489 147.277 100.217 147.095 99.8863 146.967C99.5663 146.839 99.1183 146.701 98.5423 146.551C97.817 146.359 97.225 146.167 96.7663 145.975C96.3183 145.773 95.9343 145.463 95.6143 145.047C95.2943 144.631 95.1343 144.077 95.1343 143.383C95.1343 142.743 95.2943 142.183 95.6143 141.703C95.9343 141.223 96.3823 140.855 96.9583 140.599C97.5343 140.343 98.201 140.215 98.9583 140.215C100.036 140.215 100.916 140.487 101.598 141.031C102.292 141.565 102.676 142.301 102.75 143.239H100.734C100.702 142.834 100.51 142.487 100.158 142.199C99.8063 141.911 99.3423 141.767 98.7663 141.767C98.2436 141.767 97.817 141.901 97.4863 142.167C97.1556 142.434 96.9903 142.818 96.9903 143.319C96.9903 143.661 97.0916 143.943 97.2943 144.167C97.5076 144.381 97.7743 144.551 98.0943 144.679C98.4143 144.807 98.8516 144.946 99.4063 145.095C100.142 145.298 100.74 145.501 101.198 145.703C101.668 145.906 102.062 146.221 102.382 146.647C102.713 147.063 102.878 147.623 102.878 148.327C102.878 148.893 102.724 149.426 102.414 149.927C102.116 150.429 101.673 150.834 101.086 151.143C100.51 151.442 99.8277 151.591 99.0383 151.591ZM111.475 140.359L111.267 148.119H109.747L109.539 140.359H111.475ZM110.563 151.591C110.232 151.591 109.955 151.479 109.731 151.255C109.507 151.031 109.395 150.754 109.395 150.423C109.395 150.093 109.507 149.815 109.731 149.591C109.955 149.367 110.232 149.255 110.563 149.255C110.883 149.255 111.155 149.367 111.379 149.591C111.603 149.815 111.715 150.093 111.715 150.423C111.715 150.754 111.603 151.031 111.379 151.255C111.155 151.479 110.883 151.591 110.563 151.591Z" fill="#EC407A"/>
<circle cx="59.2541" cy="96.7581" r="5" transform="rotate(19.1799 59.2541 96.7581)" fill="#EC407A"/>
<circle cx="132.227" cy="103.083" r="3" transform="rotate(19.1799 132.227 103.083)" fill="#EC407A"/>
<circle cx="44.2248" cy="60.8259" r="2.5" transform="rotate(19.1799 44.2248 60.8259)" stroke="#EC407A"/>
<circle cx="119.004" cy="49.7804" r="1.5" transform="rotate(19.1799 119.004 49.7804)" stroke="#EC407A"/>
<path d="M74.0577 113.742L73.458 112.993L72.4986 112.992L38.0371 112.96C34.7234 112.957 32.0396 110.268 32.0427 106.955L32.1015 43.591C32.1045 40.2773 34.7933 37.5935 38.107 37.5965L137.107 37.6884C140.421 37.6915 143.104 40.3802 143.101 43.6939L143.043 107.058C143.04 110.371 140.351 113.055 137.037 113.052L99.9217 113.018L98.9236 113.017L98.3228 113.814L86.5863 129.383L74.0577 113.742Z" stroke="#8D8D8D" stroke-width="4"/>
<path d="M111.956 75.5412C111.956 75.4941 111.956 75.4941 111.913 75.4471C111.913 75.4 111.87 75.4 111.87 75.3529C111.87 75.3059 111.827 75.3059 111.827 75.2588L111.784 75.2118C111.784 75.1647 111.74 75.1647 111.74 75.1176L110.66 74.0824C109.233 72.7647 108.196 70.9765 107.677 68.9529L107.504 68.4353C106.164 63.4941 102.663 59.6824 98.0805 58.1765L94.5358 57.0471C94.2765 56.9529 93.9739 57 93.7577 57.1882C93.5416 57.3765 93.4119 57.6588 93.4119 57.9412V86.9765C93.0229 86.6471 92.5474 86.3647 91.9854 86.1765C90.5157 85.6118 88.7433 85.5647 87.0142 86.0824C83.2535 87.1647 80.9192 90.3647 81.6108 93.2824C81.9566 94.7412 83.0373 95.9176 84.6367 96.5294C85.4148 96.8118 86.2794 97 87.1872 97C87.9652 97 88.7866 96.8588 89.6079 96.6235C93.3254 95.5412 95.703 92.3882 95.0113 89.4706C95.0978 89.3294 95.141 89.1882 95.141 89V66.4588L97.043 67.2588C99.2908 68.1529 101.236 69.9882 102.317 72.2941L102.446 72.5765C103.743 75.2118 106.207 76.8588 108.974 76.8588H111.135C111.135 76.8588 111.135 76.8588 111.178 76.8588C111.222 76.8588 111.222 76.8588 111.265 76.8588C111.308 76.8588 111.308 76.8588 111.351 76.8588C111.395 76.8588 111.395 76.8588 111.438 76.8118C111.481 76.8118 111.481 76.8118 111.524 76.7647C111.567 76.7647 111.567 76.7176 111.611 76.7176C111.654 76.7176 111.654 76.6706 111.697 76.6706L111.74 76.6235C111.784 76.6235 111.784 76.5765 111.827 76.5765C111.784 76.5294 111.784 76.5294 111.827 76.4824C111.827 76.4353 111.87 76.4353 111.87 76.3882C111.87 76.3412 111.913 76.3412 111.913 76.2941C111.913 76.2471 111.956 76.2471 111.956 76.2C111.956 76.1529 111.956 76.1529 112 76.1059C112 76.0588 112 76.0588 112 76.0118C112 75.9647 112 75.9647 112 75.9176V75.8706C112 75.8706 112 75.8706 112 75.8235C112 75.7765 112 75.7765 112 75.7294C112 75.6824 112 75.6824 112 75.6353C112 75.5882 112 75.5882 111.956 75.5412ZM89.1756 94.9294C87.7923 95.3529 86.3658 95.3059 85.2419 94.8824C84.2045 94.5059 83.5128 93.8 83.2967 92.9529C82.8212 91.0706 84.7232 88.8118 87.4465 88.0588C88.0949 87.8706 88.7866 87.7765 89.435 87.7765C90.1266 87.7765 90.775 87.8706 91.3802 88.1059C92.4177 88.4824 93.1093 89.1882 93.3254 90.0353C93.801 91.8706 91.8989 94.1294 89.1756 94.9294ZM104.003 71.7294L103.873 71.4471C102.576 68.6706 100.328 66.5529 97.6482 65.5176L95.141 64.4353V59.2588L97.5617 60.0118C101.539 61.2824 104.608 64.6235 105.818 69L105.991 69.5176C106.51 71.5882 107.504 73.4235 108.887 74.8824C106.812 74.9294 104.954 73.7059 104.003 71.7294Z" fill="#EC407A"/>
<path d="M104.003 71.7294L103.873 71.4471C102.576 68.6706 100.328 66.5529 97.6482 65.5176L95.141 64.4353V59.2588L97.5617 60.0118C101.539 61.2824 104.608 64.6235 105.818 69L105.991 69.5176C106.51 71.5882 107.504 73.4235 108.887 74.8824C106.812 74.9294 104.954 73.7059 104.003 71.7294Z" fill="#EC407A"/>
<path d="M89.1756 94.9294C87.7923 95.3529 86.3658 95.3059 85.2419 94.8824C84.2045 94.5059 83.5128 93.8 83.2967 92.9529C82.8212 91.0706 84.7232 88.8118 87.4465 88.0588C88.0949 87.8706 88.7866 87.7765 89.435 87.7765C90.1266 87.7765 90.775 87.8706 91.3802 88.1059C92.4177 88.4824 93.1093 89.1882 93.3254 90.0353C93.801 91.8706 91.8989 94.1294 89.1756 94.9294Z" fill="#EC407A"/>
<path d="M72.2308 63.2118H88.2681C88.7436 63.2118 89.1327 62.7883 89.1327 62.2706C89.1327 61.753 88.7436 61.3295 88.2681 61.3295H72.2308C71.7553 61.3295 71.3662 61.753 71.3662 62.2706C71.3662 62.7883 71.7553 63.2118 72.2308 63.2118Z" fill="#EC407A"/>
<path d="M69.1614 61.3295H67.8645C67.389 61.3295 67 61.753 67 62.2706C67 62.7883 67.389 63.2118 67.8645 63.2118H69.1614C69.6369 63.2118 70.0259 62.7883 70.0259 62.2706C70.0259 61.753 69.6369 61.3295 69.1614 61.3295Z" fill="#EC407A"/>
<path d="M72.2308 68.8588H86.1068C86.5823 68.8588 86.9713 68.4353 86.9713 67.9176C86.9713 67.4 86.5823 66.9764 86.1068 66.9764H72.2308C71.7553 66.9764 71.3662 67.4 71.3662 67.9176C71.3662 68.4353 71.7553 68.8588 72.2308 68.8588Z" fill="#EC407A"/>
<path d="M69.1614 66.9764H67.8645C67.389 66.9764 67 67.4 67 67.9176C67 68.4353 67.389 68.8588 67.8645 68.8588H69.1614C69.6369 68.8588 70.0259 68.4353 70.0259 67.9176C70.0259 67.4 69.6369 66.9764 69.1614 66.9764Z" fill="#EC407A"/>
<path d="M72.2308 74.5059H89.565C90.0405 74.5059 90.4295 74.0824 90.4295 73.5647C90.4295 73.0471 90.0405 72.6235 89.565 72.6235H72.2308C71.7553 72.6235 71.3662 73.0471 71.3662 73.5647C71.3662 74.0824 71.7553 74.5059 72.2308 74.5059Z" fill="#EC407A"/>
<path d="M69.1614 72.6235H67.8645C67.389 72.6235 67 73.0471 67 73.5647C67 74.0824 67.389 74.5059 67.8645 74.5059H69.1614C69.6369 74.5059 70.0259 74.0824 70.0259 73.5647C70.0259 73.0471 69.6369 72.6235 69.1614 72.6235Z" fill="#EC407A"/>
<path d="M84.8099 79.2117C84.8099 78.694 84.4209 78.2705 83.9454 78.2705H72.2308C71.7553 78.2705 71.3662 78.694 71.3662 79.2117C71.3662 79.7293 71.7553 80.1529 72.2308 80.1529H83.9454C84.4209 80.1529 84.8099 79.7293 84.8099 79.2117Z" fill="#EC407A"/>
<path d="M69.1614 78.2705H67.8645C67.389 78.2705 67 78.694 67 79.2117C67 79.7293 67.389 80.1529 67.8645 80.1529H69.1614C69.6369 80.1529 70.0259 79.7293 70.0259 79.2117C70.0259 78.694 69.6369 78.2705 69.1614 78.2705Z" fill="#EC407A"/>
</svg>
