<svg width="116" height="156" viewBox="0 0 116 156" fill="none" xmlns="http://www.w3.org/2000/svg">
<path d="M19.9008 106.023L19.9003 106.022C19.0758 104.686 18.5375 103.114 18.3211 101.385L18.3147 101.334L18.3057 101.283L7.14184 38.4171C6.63906 34.2691 7.49271 30.6763 9.35402 28.019L9.3544 28.0185C11.21 25.3676 13.808 24 16.6944 24H29.5108C30.4532 24 33.2506 24.0629 36.034 24.6982C37.4252 25.0158 38.7266 25.4576 39.7665 26.0488C40.8059 26.6398 41.4628 27.3088 41.7882 28.0366L41.9674 28.4374L42.2979 28.7263C42.7462 29.1181 43.3541 29.436 43.9513 29.6898C44.5901 29.9613 45.3704 30.2233 46.2686 30.4525C48.0671 30.9114 50.4083 31.2565 53.1567 31.2565H72.9718C79.2824 31.2565 84.7719 35.4589 85.7624 40.3116L85.7627 40.313L86.9386 46.0532L87.266 47.6518H88.8979H94.2642C97.2052 47.6518 99.6655 49.0252 101.282 51.6318C102.925 54.2835 103.459 57.8585 102.582 61.7742C102.582 61.7742 102.582 61.7743 102.582 61.7744L94.7437 96.7266L94.7436 96.7271C93.0245 104.401 86.6816 110 80.8449 110H26.9034C23.9608 110 21.5047 108.625 19.9008 106.023ZM101.385 60.9229L101.385 60.9225C101.98 58.2627 101.777 55.5648 100.474 53.4622C99.125 51.2854 96.8425 50.1502 94.2624 50.1502H79.1137C76.0855 50.1502 73.5307 50.8215 71.6465 51.6706C70.7077 52.0937 69.9053 52.5744 69.2819 53.0652C68.9708 53.3101 68.6795 53.577 68.4332 53.8622C68.2051 54.1264 67.9277 54.5067 67.7688 54.9841L67.7459 55.0526L67.7281 55.1227C67.2542 56.9849 65.7274 58.6043 63.3446 59.799C60.9778 60.9857 58.0036 61.6198 55.177 61.6198H37.9868C35.0324 61.6198 32.1781 63.076 29.9582 65.1424C27.721 67.2248 25.9475 70.086 25.2255 73.2368L25.2254 73.2369L19.8362 96.7566L19.8361 96.7569C19.2288 99.4099 19.4169 102.102 20.7108 104.201L20.7115 104.202C22.0528 106.375 24.3312 107.504 26.9034 107.504H80.8449C83.7991 107.504 86.6469 106.046 88.857 103.977C91.0841 101.893 92.8425 99.0293 93.5485 95.8772L101.385 60.9229ZM40.8808 29.7155L40.7022 29.3165L40.3735 29.0283C39.9247 28.635 39.3162 28.3163 38.7188 28.062C38.0797 27.79 37.2992 27.5277 36.4009 27.2984C34.6022 26.8391 32.2609 26.494 29.5125 26.494H16.6962C14.0059 26.494 11.6334 27.7516 10.0869 29.9586C8.56825 32.1258 8.02822 34.9306 8.37692 37.7745L8.38348 37.8279L8.3929 37.881L16.9553 86.0684L20.874 86.165L24.0348 72.365C24.0349 72.3649 24.0349 72.3648 24.0349 72.3647C25.7901 64.7084 32.1551 59.1193 37.9886 59.1193H55.1787C58.2062 59.1193 60.7606 58.4479 62.6446 57.5989C63.5834 57.1758 64.3857 56.6951 65.0092 56.2045C65.538 55.7884 66.2391 55.1357 66.5227 54.2883L66.5462 54.2183L66.5644 54.1467C67.0383 52.2844 68.5648 50.665 70.9473 49.4704C73.3138 48.2838 76.2879 47.6497 79.1155 47.6497H83.4452H85.8954L85.4047 45.2491L84.555 41.0926C84.555 41.0925 84.555 41.0924 84.555 41.0923C84.1239 38.9828 82.4165 37.1553 80.4601 35.9167C78.4319 34.6329 75.7973 33.7527 72.9735 33.7527H53.1567C52.2143 33.7527 49.4177 33.6898 46.635 33.0545C45.2442 32.7369 43.9431 32.2951 42.9033 31.7039C41.8638 31.1129 41.2066 30.4438 40.8808 29.7155Z" stroke="#8D8D8D" stroke-width="4"/>
<line x1="37.7112" y1="2.80602" x2="45.3317" y2="16.8747" stroke="#EC407A" stroke-width="4" stroke-linecap="round"/>
<line x1="2" y1="-2" x2="18" y2="-2" transform="matrix(-0.476283 0.879292 0.879292 0.476283 78.5259 2)" stroke="#EC407A" stroke-width="4" stroke-linecap="round"/>
<line x1="2" y1="-2" x2="18" y2="-2" transform="matrix(0 -1 -1 0 55 20)" stroke="#EC407A" stroke-width="4" stroke-linecap="round"/>
<path d="M24.3018 152H23.3918L19.7318 146.45V152H18.8218V145.02H19.7318L23.3918 150.56V145.02H24.3018V152ZM28.243 152.09C27.7297 152.09 27.263 151.973 26.843 151.74C26.4297 151.507 26.103 151.177 25.863 150.75C25.6297 150.317 25.513 149.817 25.513 149.25C25.513 148.69 25.633 148.197 25.873 147.77C26.1197 147.337 26.453 147.007 26.873 146.78C27.293 146.547 27.763 146.43 28.283 146.43C28.803 146.43 29.273 146.547 29.693 146.78C30.113 147.007 30.443 147.333 30.683 147.76C30.9297 148.187 31.053 148.683 31.053 149.25C31.053 149.817 30.9263 150.317 30.673 150.75C30.4263 151.177 30.0897 151.507 29.663 151.74C29.2363 151.973 28.763 152.09 28.243 152.09ZM28.243 151.29C28.5697 151.29 28.8763 151.213 29.163 151.06C29.4497 150.907 29.6797 150.677 29.853 150.37C30.033 150.063 30.123 149.69 30.123 149.25C30.123 148.81 30.0363 148.437 29.863 148.13C29.6897 147.823 29.463 147.597 29.183 147.45C28.903 147.297 28.5997 147.22 28.273 147.22C27.9397 147.22 27.633 147.297 27.353 147.45C27.0797 147.597 26.8597 147.823 26.693 148.13C26.5263 148.437 26.443 148.81 26.443 149.25C26.443 149.697 26.523 150.073 26.683 150.38C26.8497 150.687 27.0697 150.917 27.343 151.07C27.6163 151.217 27.9163 151.29 28.243 151.29ZM39.5755 147.07C39.5755 147.65 39.3755 148.133 38.9755 148.52C38.5822 148.9 37.9788 149.09 37.1655 149.09H35.8255V152H34.9155V145.03H37.1655C37.9522 145.03 38.5488 145.22 38.9555 145.6C39.3688 145.98 39.5755 146.47 39.5755 147.07ZM37.1655 148.34C37.6722 148.34 38.0455 148.23 38.2855 148.01C38.5255 147.79 38.6455 147.477 38.6455 147.07C38.6455 146.21 38.1522 145.78 37.1655 145.78H35.8255V148.34H37.1655ZM41.6165 144.6V152H40.7065V144.6H41.6165ZM42.8275 149.24C42.8275 148.68 42.9408 148.19 43.1675 147.77C43.3941 147.343 43.7041 147.013 44.0975 146.78C44.4975 146.547 44.9408 146.43 45.4275 146.43C45.9075 146.43 46.3241 146.533 46.6775 146.74C47.0308 146.947 47.2941 147.207 47.4675 147.52V146.52H48.3875V152H47.4675V150.98C47.2875 151.3 47.0175 151.567 46.6575 151.78C46.3041 151.987 45.8908 152.09 45.4175 152.09C44.9308 152.09 44.4908 151.97 44.0975 151.73C43.7041 151.49 43.3941 151.153 43.1675 150.72C42.9408 150.287 42.8275 149.793 42.8275 149.24ZM47.4675 149.25C47.4675 148.837 47.3841 148.477 47.2175 148.17C47.0508 147.863 46.8241 147.63 46.5375 147.47C46.2575 147.303 45.9475 147.22 45.6075 147.22C45.2675 147.22 44.9575 147.3 44.6775 147.46C44.3975 147.62 44.1741 147.853 44.0075 148.16C43.8408 148.467 43.7575 148.827 43.7575 149.24C43.7575 149.66 43.8408 150.027 44.0075 150.34C44.1741 150.647 44.3975 150.883 44.6775 151.05C44.9575 151.21 45.2675 151.29 45.6075 151.29C45.9475 151.29 46.2575 151.21 46.5375 151.05C46.8241 150.883 47.0508 150.647 47.2175 150.34C47.3841 150.027 47.4675 149.663 47.4675 149.25ZM54.6453 146.52L51.3453 154.58H50.4053L51.4853 151.94L49.2753 146.52H50.2853L52.0053 150.96L53.7053 146.52H54.6453ZM56.47 144.6V152H55.56V144.6H56.47ZM58.491 145.63C58.3176 145.63 58.171 145.57 58.051 145.45C57.931 145.33 57.871 145.183 57.871 145.01C57.871 144.837 57.931 144.69 58.051 144.57C58.171 144.45 58.3176 144.39 58.491 144.39C58.6576 144.39 58.7976 144.45 58.911 144.57C59.031 144.69 59.091 144.837 59.091 145.01C59.091 145.183 59.031 145.33 58.911 145.45C58.7976 145.57 58.6576 145.63 58.491 145.63ZM58.931 146.52V152H58.021V146.52H58.931ZM62.4219 152.09C62.0019 152.09 61.6252 152.02 61.2919 151.88C60.9586 151.733 60.6952 151.533 60.5019 151.28C60.3086 151.02 60.2019 150.723 60.1819 150.39H61.1219C61.1486 150.663 61.2752 150.887 61.5019 151.06C61.7352 151.233 62.0386 151.32 62.4119 151.32C62.7586 151.32 63.0319 151.243 63.2319 151.09C63.4319 150.937 63.5319 150.743 63.5319 150.51C63.5319 150.27 63.4252 150.093 63.2119 149.98C62.9986 149.86 62.6686 149.743 62.2219 149.63C61.8152 149.523 61.4819 149.417 61.2219 149.31C60.9686 149.197 60.7486 149.033 60.5619 148.82C60.3819 148.6 60.2919 148.313 60.2919 147.96C60.2919 147.68 60.3752 147.423 60.5419 147.19C60.7086 146.957 60.9452 146.773 61.2519 146.64C61.5586 146.5 61.9086 146.43 62.3019 146.43C62.9086 146.43 63.3986 146.583 63.7719 146.89C64.1452 147.197 64.3452 147.617 64.3719 148.15H63.4619C63.4419 147.863 63.3252 147.633 63.1119 147.46C62.9052 147.287 62.6252 147.2 62.2719 147.2C61.9452 147.2 61.6852 147.27 61.4919 147.41C61.2986 147.55 61.2019 147.733 61.2019 147.96C61.2019 148.14 61.2586 148.29 61.3719 148.41C61.4919 148.523 61.6386 148.617 61.8119 148.69C61.9919 148.757 62.2386 148.833 62.5519 148.92C62.9452 149.027 63.2652 149.133 63.5119 149.24C63.7586 149.34 63.9686 149.493 64.1419 149.7C64.3219 149.907 64.4152 150.177 64.4219 150.51C64.4219 150.81 64.3386 151.08 64.1719 151.32C64.0052 151.56 63.7686 151.75 63.4619 151.89C63.1619 152.023 62.8152 152.09 62.4219 152.09ZM66.8165 147.27V150.5C66.8165 150.767 66.8732 150.957 66.9865 151.07C67.0999 151.177 67.2965 151.23 67.5765 151.23H68.2465V152H67.4265C66.9199 152 66.5399 151.883 66.2865 151.65C66.0332 151.417 65.9065 151.033 65.9065 150.5V147.27H65.1965V146.52H65.9065V145.14H66.8165V146.52H68.2465V147.27H66.8165ZM71.2891 152.09C70.8691 152.09 70.4924 152.02 70.1591 151.88C69.8258 151.733 69.5624 151.533 69.3691 151.28C69.1758 151.02 69.0691 150.723 69.0491 150.39H69.9891C70.0158 150.663 70.1424 150.887 70.3691 151.06C70.6024 151.233 70.9058 151.32 71.2791 151.32C71.6258 151.32 71.8991 151.243 72.0991 151.09C72.2991 150.937 72.3991 150.743 72.3991 150.51C72.3991 150.27 72.2924 150.093 72.0791 149.98C71.8658 149.86 71.5358 149.743 71.0891 149.63C70.6824 149.523 70.3491 149.417 70.0891 149.31C69.8358 149.197 69.6158 149.033 69.4291 148.82C69.2491 148.6 69.1591 148.313 69.1591 147.96C69.1591 147.68 69.2424 147.423 69.4091 147.19C69.5758 146.957 69.8124 146.773 70.1191 146.64C70.4258 146.5 70.7758 146.43 71.1691 146.43C71.7758 146.43 72.2658 146.583 72.6391 146.89C73.0124 147.197 73.2124 147.617 73.2391 148.15H72.3291C72.3091 147.863 72.1924 147.633 71.9791 147.46C71.7724 147.287 71.4924 147.2 71.1391 147.2C70.8124 147.2 70.5524 147.27 70.3591 147.41C70.1658 147.55 70.0691 147.733 70.0691 147.96C70.0691 148.14 70.1258 148.29 70.2391 148.41C70.3591 148.523 70.5058 148.617 70.6791 148.69C70.8591 148.757 71.1058 148.833 71.4191 148.92C71.8124 149.027 72.1324 149.133 72.3791 149.24C72.6258 149.34 72.8358 149.493 73.0091 149.7C73.1891 149.907 73.2824 150.177 73.2891 150.51C73.2891 150.81 73.2058 151.08 73.0391 151.32C72.8724 151.56 72.6358 151.75 72.3291 151.89C72.0291 152.023 71.6824 152.09 71.2891 152.09ZM81.9597 146.52L78.6597 154.58H77.7197L78.7997 151.94L76.5897 146.52H77.5997L79.3197 150.96L81.0197 146.52H81.9597ZM87.8745 149.05C87.8745 149.223 87.8645 149.407 87.8445 149.6H83.4645C83.4978 150.14 83.6812 150.563 84.0145 150.87C84.3545 151.17 84.7645 151.32 85.2445 151.32C85.6378 151.32 85.9645 151.23 86.2245 151.05C86.4912 150.863 86.6778 150.617 86.7845 150.31H87.7645C87.6178 150.837 87.3245 151.267 86.8845 151.6C86.4445 151.927 85.8978 152.09 85.2445 152.09C84.7245 152.09 84.2578 151.973 83.8445 151.74C83.4378 151.507 83.1178 151.177 82.8845 150.75C82.6512 150.317 82.5345 149.817 82.5345 149.25C82.5345 148.683 82.6478 148.187 82.8745 147.76C83.1012 147.333 83.4178 147.007 83.8245 146.78C84.2378 146.547 84.7112 146.43 85.2445 146.43C85.7645 146.43 86.2245 146.543 86.6245 146.77C87.0245 146.997 87.3312 147.31 87.5445 147.71C87.7645 148.103 87.8745 148.55 87.8745 149.05ZM86.9345 148.86C86.9345 148.513 86.8578 148.217 86.7045 147.97C86.5512 147.717 86.3412 147.527 86.0745 147.4C85.8145 147.267 85.5245 147.2 85.2045 147.2C84.7445 147.2 84.3512 147.347 84.0245 147.64C83.7045 147.933 83.5212 148.34 83.4745 148.86H86.9345ZM90.1857 147.27V150.5C90.1857 150.767 90.2423 150.957 90.3557 151.07C90.469 151.177 90.6657 151.23 90.9457 151.23H91.6157V152H90.7957C90.289 152 89.909 151.883 89.6557 151.65C89.4023 151.417 89.2757 151.033 89.2757 150.5V147.27H88.5657V146.52H89.2757V145.14H90.1857V146.52H91.6157V147.27H90.1857Z" fill="#8D8D8D"/>
<path d="M34.4908 135.112C33.4561 135.112 32.5014 134.872 31.6268 134.392C30.7628 133.901 30.0748 133.224 29.5628 132.36C29.0614 131.485 28.8108 130.504 28.8108 129.416C28.8108 128.328 29.0614 127.352 29.5628 126.488C30.0748 125.624 30.7628 124.952 31.6268 124.472C32.5014 123.981 33.4561 123.736 34.4908 123.736C35.5361 123.736 36.4908 123.981 37.3548 124.472C38.2294 124.952 38.9174 125.624 39.4188 126.488C39.9201 127.352 40.1708 128.328 40.1708 129.416C40.1708 130.504 39.9201 131.485 39.4188 132.36C38.9174 133.224 38.2294 133.901 37.3548 134.392C36.4908 134.872 35.5361 135.112 34.4908 135.112ZM34.4908 133.528C35.2268 133.528 35.8828 133.363 36.4588 133.032C37.0348 132.691 37.4828 132.211 37.8028 131.592C38.1334 130.963 38.2988 130.237 38.2988 129.416C38.2988 128.595 38.1334 127.875 37.8028 127.256C37.4828 126.637 37.0348 126.163 36.4588 125.832C35.8828 125.501 35.2268 125.336 34.4908 125.336C33.7548 125.336 33.0988 125.501 32.5228 125.832C31.9468 126.163 31.4934 126.637 31.1628 127.256C30.8428 127.875 30.6828 128.595 30.6828 129.416C30.6828 130.237 30.8428 130.963 31.1628 131.592C31.4934 132.211 31.9468 132.691 32.5228 133.032C33.0988 133.363 33.7548 133.528 34.4908 133.528ZM47.0376 135.112C46.003 135.112 45.0483 134.872 44.1736 134.392C43.3096 133.901 42.6216 133.224 42.1096 132.36C41.6083 131.485 41.3576 130.504 41.3576 129.416C41.3576 128.328 41.6083 127.352 42.1096 126.488C42.6216 125.624 43.3096 124.952 44.1736 124.472C45.0483 123.981 46.003 123.736 47.0376 123.736C48.083 123.736 49.0376 123.981 49.9016 124.472C50.7763 124.952 51.4643 125.624 51.9656 126.488C52.467 127.352 52.7176 128.328 52.7176 129.416C52.7176 130.504 52.467 131.485 51.9656 132.36C51.4643 133.224 50.7763 133.901 49.9016 134.392C49.0376 134.872 48.083 135.112 47.0376 135.112ZM47.0376 133.528C47.7736 133.528 48.4296 133.363 49.0056 133.032C49.5816 132.691 50.0296 132.211 50.3496 131.592C50.6803 130.963 50.8456 130.237 50.8456 129.416C50.8456 128.595 50.6803 127.875 50.3496 127.256C50.0296 126.637 49.5816 126.163 49.0056 125.832C48.4296 125.501 47.7736 125.336 47.0376 125.336C46.3016 125.336 45.6456 125.501 45.0696 125.832C44.4936 126.163 44.0403 126.637 43.7096 127.256C43.3896 127.875 43.2296 128.595 43.2296 129.416C43.2296 130.237 43.3896 130.963 43.7096 131.592C44.0403 132.211 44.4936 132.691 45.0696 133.032C45.6456 133.363 46.3016 133.528 47.0376 133.528ZM62.2885 127.192C62.2885 127.757 62.1552 128.291 61.8885 128.792C61.6218 129.293 61.1952 129.704 60.6085 130.024C60.0218 130.333 59.2698 130.488 58.3525 130.488H56.3365V135H54.5125V123.88H58.3525C59.2058 123.88 59.9258 124.029 60.5125 124.328C61.1098 124.616 61.5525 125.011 61.8405 125.512C62.1392 126.013 62.2885 126.573 62.2885 127.192ZM58.3525 129C59.0458 129 59.5632 128.845 59.9045 128.536C60.2458 128.216 60.4165 127.768 60.4165 127.192C60.4165 125.976 59.7285 125.368 58.3525 125.368H56.3365V129H58.3525ZM67.6921 135.112C66.9455 135.112 66.2735 134.984 65.6761 134.728C65.0788 134.461 64.6095 134.088 64.2681 133.608C63.9268 133.128 63.7561 132.568 63.7561 131.928H65.7081C65.7508 132.408 65.9375 132.803 66.2681 133.112C66.6095 133.421 67.0841 133.576 67.6921 133.576C68.3215 133.576 68.8121 133.427 69.1641 133.128C69.5161 132.819 69.6921 132.424 69.6921 131.944C69.6921 131.571 69.5801 131.267 69.3561 131.032C69.1428 130.797 68.8708 130.616 68.5401 130.488C68.2201 130.36 67.7721 130.221 67.1961 130.072C66.4708 129.88 65.8788 129.688 65.4201 129.496C64.9721 129.293 64.5881 128.984 64.2681 128.568C63.9481 128.152 63.7881 127.597 63.7881 126.904C63.7881 126.264 63.9481 125.704 64.2681 125.224C64.5881 124.744 65.0361 124.376 65.6121 124.12C66.1881 123.864 66.8548 123.736 67.6121 123.736C68.6895 123.736 69.5695 124.008 70.2521 124.552C70.9455 125.085 71.3295 125.821 71.4041 126.76H69.3881C69.3561 126.355 69.1641 126.008 68.8121 125.72C68.4601 125.432 67.9961 125.288 67.4201 125.288C66.8975 125.288 66.4708 125.421 66.1401 125.688C65.8095 125.955 65.6441 126.339 65.6441 126.84C65.6441 127.181 65.7455 127.464 65.9481 127.688C66.1615 127.901 66.4281 128.072 66.7481 128.2C67.0681 128.328 67.5055 128.467 68.0601 128.616C68.7961 128.819 69.3935 129.021 69.8521 129.224C70.3215 129.427 70.7161 129.741 71.0361 130.168C71.3668 130.584 71.5321 131.144 71.5321 131.848C71.5321 132.413 71.3775 132.947 71.0681 133.448C70.7695 133.949 70.3268 134.355 69.7401 134.664C69.1641 134.963 68.4815 135.112 67.6921 135.112ZM80.1286 123.88L79.9206 131.64H78.4006L78.1926 123.88H80.1286ZM79.2166 135.112C78.886 135.112 78.6086 135 78.3846 134.776C78.1606 134.552 78.0486 134.275 78.0486 133.944C78.0486 133.613 78.1606 133.336 78.3846 133.112C78.6086 132.888 78.886 132.776 79.2166 132.776C79.5366 132.776 79.8086 132.888 80.0326 133.112C80.2566 133.336 80.3686 133.613 80.3686 133.944C80.3686 134.275 80.2566 134.552 80.0326 134.776C79.8086 135 79.5366 135.112 79.2166 135.112Z" fill="#EC407A"/>
<circle cx="6.45" cy="119.45" r="6.45" fill="#EC407A"/>
<circle cx="105.87" cy="34.87" r="3.87" fill="#EC407A"/>
<circle cx="110.16" cy="107.16" r="4.515" stroke="#EC407A" stroke-width="1.29"/>
</svg>
