<svg width="125" height="146" viewBox="0 0 125 146" fill="none" xmlns="http://www.w3.org/2000/svg">
<path d="M6.39355 142H5.48356L1.82355 136.45V142H0.913555V135.02H1.82355L5.48356 140.56V135.02H6.39355V142ZM10.3348 142.09C9.82147 142.09 9.3548 141.973 8.9348 141.74C8.52147 141.507 8.1948 141.177 7.9548 140.75C7.72147 140.317 7.6048 139.817 7.6048 139.25C7.6048 138.69 7.7248 138.197 7.9648 137.77C8.21147 137.337 8.5448 137.007 8.9648 136.78C9.3848 136.547 9.8548 136.43 10.3748 136.43C10.8948 136.43 11.3648 136.547 11.7848 136.78C12.2048 137.007 12.5348 137.333 12.7748 137.76C13.0215 138.187 13.1448 138.683 13.1448 139.25C13.1448 139.817 13.0181 140.317 12.7648 140.75C12.5181 141.177 12.1815 141.507 11.7548 141.74C11.3281 141.973 10.8548 142.09 10.3348 142.09ZM10.3348 141.29C10.6615 141.29 10.9681 141.213 11.2548 141.06C11.5415 140.907 11.7715 140.677 11.9448 140.37C12.1248 140.063 12.2148 139.69 12.2148 139.25C12.2148 138.81 12.1281 138.437 11.9548 138.13C11.7815 137.823 11.5548 137.597 11.2748 137.45C10.9948 137.297 10.6915 137.22 10.3648 137.22C10.0315 137.22 9.7248 137.297 9.4448 137.45C9.17147 137.597 8.95147 137.823 8.7848 138.13C8.61814 138.437 8.5348 138.81 8.5348 139.25C8.5348 139.697 8.6148 140.073 8.7748 140.38C8.94147 140.687 9.16147 140.917 9.4348 141.07C9.70814 141.217 10.0081 141.29 10.3348 141.29ZM15.4513 137.27V140.5C15.4513 140.767 15.508 140.957 15.6213 141.07C15.7346 141.177 15.9313 141.23 16.2113 141.23H16.8813V142H16.0613C15.5546 142 15.1746 141.883 14.9213 141.65C14.668 141.417 14.5413 141.033 14.5413 140.5V137.27H13.8313V136.52H14.5413V135.14H15.4513V136.52H16.8813V137.27H15.4513ZM20.7039 136.42C21.1172 136.42 21.4905 136.51 21.8239 136.69C22.1572 136.863 22.4172 137.127 22.6039 137.48C22.7972 137.833 22.8939 138.263 22.8939 138.77V142H21.9939V138.9C21.9939 138.353 21.8572 137.937 21.5839 137.65C21.3105 137.357 20.9372 137.21 20.4639 137.21C19.9839 137.21 19.6005 137.36 19.3139 137.66C19.0339 137.96 18.8939 138.397 18.8939 138.97V142H17.9839V134.6H18.8939V137.3C19.0739 137.02 19.3205 136.803 19.6339 136.65C19.9539 136.497 20.3105 136.42 20.7039 136.42ZM24.8504 135.63C24.677 135.63 24.5304 135.57 24.4104 135.45C24.2904 135.33 24.2304 135.183 24.2304 135.01C24.2304 134.837 24.2904 134.69 24.4104 134.57C24.5304 134.45 24.677 134.39 24.8504 134.39C25.017 134.39 25.157 134.45 25.2704 134.57C25.3904 134.69 25.4504 134.837 25.4504 135.01C25.4504 135.183 25.3904 135.33 25.2704 135.45C25.157 135.57 25.017 135.63 24.8504 135.63ZM25.2904 136.52V142H24.3804V136.52H25.2904ZM29.5113 136.42C30.178 136.42 30.718 136.623 31.1313 137.03C31.5446 137.43 31.7513 138.01 31.7513 138.77V142H30.8513V138.9C30.8513 138.353 30.7146 137.937 30.4413 137.65C30.168 137.357 29.7946 137.21 29.3213 137.21C28.8413 137.21 28.458 137.36 28.1713 137.66C27.8913 137.96 27.7513 138.397 27.7513 138.97V142H26.8413V136.52H27.7513V137.3C27.9313 137.02 28.1746 136.803 28.4813 136.65C28.7946 136.497 29.138 136.42 29.5113 136.42ZM35.4978 136.43C35.9711 136.43 36.3844 136.533 36.7378 136.74C37.0978 136.947 37.3644 137.207 37.5378 137.52V136.52H38.4578V142.12C38.4578 142.62 38.3511 143.063 38.1378 143.45C37.9244 143.843 37.6178 144.15 37.2178 144.37C36.8244 144.59 36.3644 144.7 35.8378 144.7C35.1178 144.7 34.5178 144.53 34.0378 144.19C33.5578 143.85 33.2744 143.387 33.1878 142.8H34.0878C34.1878 143.133 34.3944 143.4 34.7078 143.6C35.0211 143.807 35.3978 143.91 35.8378 143.91C36.3378 143.91 36.7444 143.753 37.0578 143.44C37.3778 143.127 37.5378 142.687 37.5378 142.12V140.97C37.3578 141.29 37.0911 141.557 36.7378 141.77C36.3844 141.983 35.9711 142.09 35.4978 142.09C35.0111 142.09 34.5678 141.97 34.1678 141.73C33.7744 141.49 33.4644 141.153 33.2378 140.72C33.0111 140.287 32.8978 139.793 32.8978 139.24C32.8978 138.68 33.0111 138.19 33.2378 137.77C33.4644 137.343 33.7744 137.013 34.1678 136.78C34.5678 136.547 35.0111 136.43 35.4978 136.43ZM37.5378 139.25C37.5378 138.837 37.4544 138.477 37.2878 138.17C37.1211 137.863 36.8944 137.63 36.6078 137.47C36.3278 137.303 36.0178 137.22 35.6778 137.22C35.3378 137.22 35.0278 137.3 34.7478 137.46C34.4678 137.62 34.2444 137.853 34.0778 138.16C33.9111 138.467 33.8278 138.827 33.8278 139.24C33.8278 139.66 33.9111 140.027 34.0778 140.34C34.2444 140.647 34.4678 140.883 34.7478 141.05C35.0278 141.21 35.3378 141.29 35.6778 141.29C36.0178 141.29 36.3278 141.21 36.6078 141.05C36.8944 140.883 37.1211 140.647 37.2878 140.34C37.4544 140.027 37.5378 139.663 37.5378 139.25ZM46.3316 142L44.6716 139.15H43.5716V142H42.6616V135.03H44.9116C45.4383 135.03 45.8816 135.12 46.2416 135.3C46.6083 135.48 46.8816 135.723 47.0616 136.03C47.2416 136.337 47.3316 136.687 47.3316 137.08C47.3316 137.56 47.1916 137.983 46.9116 138.35C46.6383 138.717 46.2249 138.96 45.6716 139.08L47.4216 142H46.3316ZM43.5716 138.42H44.9116C45.4049 138.42 45.7749 138.3 46.0216 138.06C46.2683 137.813 46.3916 137.487 46.3916 137.08C46.3916 136.667 46.2683 136.347 46.0216 136.12C45.7816 135.893 45.4116 135.78 44.9116 135.78H43.5716V138.42ZM53.7456 139.05C53.7456 139.223 53.7356 139.407 53.7156 139.6H49.3356C49.3689 140.14 49.5523 140.563 49.8856 140.87C50.2256 141.17 50.6356 141.32 51.1156 141.32C51.5089 141.32 51.8356 141.23 52.0956 141.05C52.3623 140.863 52.5489 140.617 52.6556 140.31H53.6356C53.4889 140.837 53.1956 141.267 52.7556 141.6C52.3156 141.927 51.7689 142.09 51.1156 142.09C50.5956 142.09 50.1289 141.973 49.7156 141.74C49.3089 141.507 48.9889 141.177 48.7556 140.75C48.5223 140.317 48.4056 139.817 48.4056 139.25C48.4056 138.683 48.5189 138.187 48.7456 137.76C48.9723 137.333 49.2889 137.007 49.6956 136.78C50.1089 136.547 50.5823 136.43 51.1156 136.43C51.6356 136.43 52.0956 136.543 52.4956 136.77C52.8956 136.997 53.2023 137.31 53.4156 137.71C53.6356 138.103 53.7456 138.55 53.7456 139.05ZM52.8056 138.86C52.8056 138.513 52.7289 138.217 52.5756 137.97C52.4223 137.717 52.2123 137.527 51.9456 137.4C51.6856 137.267 51.3956 137.2 51.0756 137.2C50.6156 137.2 50.2223 137.347 49.8956 137.64C49.5756 137.933 49.3923 138.34 49.3456 138.86H52.8056ZM54.6068 139.25C54.6068 138.683 54.7201 138.19 54.9468 137.77C55.1734 137.343 55.4868 137.013 55.8868 136.78C56.2934 136.547 56.7568 136.43 57.2768 136.43C57.9501 136.43 58.5034 136.593 58.9368 136.92C59.3768 137.247 59.6668 137.7 59.8068 138.28H58.8268C58.7334 137.947 58.5501 137.683 58.2768 137.49C58.0101 137.297 57.6768 137.2 57.2768 137.2C56.7568 137.2 56.3368 137.38 56.0168 137.74C55.6968 138.093 55.5368 138.597 55.5368 139.25C55.5368 139.91 55.6968 140.42 56.0168 140.78C56.3368 141.14 56.7568 141.32 57.2768 141.32C57.6768 141.32 58.0101 141.227 58.2768 141.04C58.5434 140.853 58.7268 140.587 58.8268 140.24H59.8068C59.6601 140.8 59.3668 141.25 58.9268 141.59C58.4868 141.923 57.9368 142.09 57.2768 142.09C56.7568 142.09 56.2934 141.973 55.8868 141.74C55.4868 141.507 55.1734 141.177 54.9468 140.75C54.7201 140.323 54.6068 139.823 54.6068 139.25ZM66.021 139.05C66.021 139.223 66.011 139.407 65.991 139.6H61.611C61.6443 140.14 61.8276 140.563 62.161 140.87C62.501 141.17 62.911 141.32 63.391 141.32C63.7843 141.32 64.111 141.23 64.371 141.05C64.6376 140.863 64.8243 140.617 64.931 140.31H65.911C65.7643 140.837 65.471 141.267 65.031 141.6C64.591 141.927 64.0443 142.09 63.391 142.09C62.871 142.09 62.4043 141.973 61.991 141.74C61.5843 141.507 61.2643 141.177 61.031 140.75C60.7976 140.317 60.681 139.817 60.681 139.25C60.681 138.683 60.7943 138.187 61.021 137.76C61.2476 137.333 61.5643 137.007 61.971 136.78C62.3843 136.547 62.8576 136.43 63.391 136.43C63.911 136.43 64.371 136.543 64.771 136.77C65.171 136.997 65.4776 137.31 65.691 137.71C65.911 138.103 66.021 138.55 66.021 139.05ZM65.081 138.86C65.081 138.513 65.0043 138.217 64.851 137.97C64.6976 137.717 64.4876 137.527 64.221 137.4C63.961 137.267 63.671 137.2 63.351 137.2C62.891 137.2 62.4976 137.347 62.171 137.64C61.851 137.933 61.6676 138.34 61.621 138.86H65.081ZM69.8921 136.42C70.5588 136.42 71.0988 136.623 71.5121 137.03C71.9255 137.43 72.1321 138.01 72.1321 138.77V142H71.2321V138.9C71.2321 138.353 71.0955 137.937 70.8221 137.65C70.5488 137.357 70.1755 137.21 69.7021 137.21C69.2221 137.21 68.8388 137.36 68.5521 137.66C68.2721 137.96 68.1321 138.397 68.1321 138.97V142H67.2221V136.52H68.1321V137.3C68.3121 137.02 68.5555 136.803 68.8621 136.65C69.1755 136.497 69.5188 136.42 69.8921 136.42ZM74.7286 137.27V140.5C74.7286 140.767 74.7853 140.957 74.8986 141.07C75.012 141.177 75.2086 141.23 75.4886 141.23H76.1586V142H75.3386C74.832 142 74.452 141.883 74.1986 141.65C73.9453 141.417 73.8186 141.033 73.8186 140.5V137.27H73.1086V136.52H73.8186V135.14H74.7286V136.52H76.1586V137.27H74.7286ZM78.1712 134.6V142H77.2612V134.6H78.1712ZM84.4421 136.52L81.1421 144.58H80.2021L81.2821 141.94L79.0721 136.52H80.0821L81.8021 140.96L83.5021 136.52H84.4421ZM92.6829 137.07C92.6829 137.65 92.4829 138.133 92.0829 138.52C91.6896 138.9 91.0863 139.09 90.2729 139.09H88.9329V142H88.0229V135.03H90.2729C91.0596 135.03 91.6563 135.22 92.0629 135.6C92.4763 135.98 92.6829 136.47 92.6829 137.07ZM90.2729 138.34C90.7796 138.34 91.1529 138.23 91.3929 138.01C91.6329 137.79 91.7529 137.477 91.7529 137.07C91.7529 136.21 91.2596 135.78 90.2729 135.78H88.9329V138.34H90.2729ZM94.7239 134.6V142H93.8139V134.6H94.7239ZM95.9349 139.24C95.9349 138.68 96.0482 138.19 96.2749 137.77C96.5015 137.343 96.8115 137.013 97.2049 136.78C97.6049 136.547 98.0482 136.43 98.5349 136.43C99.0149 136.43 99.4315 136.533 99.7849 136.74C100.138 136.947 100.402 137.207 100.575 137.52V136.52H101.495V142H100.575V140.98C100.395 141.3 100.125 141.567 99.7649 141.78C99.4115 141.987 98.9982 142.09 98.5249 142.09C98.0382 142.09 97.5982 141.97 97.2049 141.73C96.8115 141.49 96.5015 141.153 96.2749 140.72C96.0482 140.287 95.9349 139.793 95.9349 139.24ZM100.575 139.25C100.575 138.837 100.492 138.477 100.325 138.17C100.158 137.863 99.9315 137.63 99.6449 137.47C99.3649 137.303 99.0549 137.22 98.7149 137.22C98.3749 137.22 98.0649 137.3 97.7849 137.46C97.5049 137.62 97.2815 137.853 97.1149 138.16C96.9482 138.467 96.8649 138.827 96.8649 139.24C96.8649 139.66 96.9482 140.027 97.1149 140.34C97.2815 140.647 97.5049 140.883 97.7849 141.05C98.0649 141.21 98.3749 141.29 98.7149 141.29C99.0549 141.29 99.3649 141.21 99.6449 141.05C99.9315 140.883 100.158 140.647 100.325 140.34C100.492 140.027 100.575 139.663 100.575 139.25ZM107.753 136.52L104.453 144.58H103.513L104.593 141.94L102.383 136.52H103.393L105.113 140.96L106.813 136.52H107.753ZM113.667 139.05C113.667 139.223 113.657 139.407 113.637 139.6H109.257C109.291 140.14 109.474 140.563 109.807 140.87C110.147 141.17 110.557 141.32 111.037 141.32C111.431 141.32 111.757 141.23 112.017 141.05C112.284 140.863 112.471 140.617 112.577 140.31H113.557C113.411 140.837 113.117 141.267 112.677 141.6C112.237 141.927 111.691 142.09 111.037 142.09C110.517 142.09 110.051 141.973 109.637 141.74C109.231 141.507 108.911 141.177 108.677 140.75C108.444 140.317 108.327 139.817 108.327 139.25C108.327 138.683 108.441 138.187 108.667 137.76C108.894 137.333 109.211 137.007 109.617 136.78C110.031 136.547 110.504 136.43 111.037 136.43C111.557 136.43 112.017 136.543 112.417 136.77C112.817 136.997 113.124 137.31 113.337 137.71C113.557 138.103 113.667 138.55 113.667 139.05ZM112.727 138.86C112.727 138.513 112.651 138.217 112.497 137.97C112.344 137.717 112.134 137.527 111.867 137.4C111.607 137.267 111.317 137.2 110.997 137.2C110.537 137.2 110.144 137.347 109.817 137.64C109.497 137.933 109.314 138.34 109.267 138.86H112.727ZM114.529 139.24C114.529 138.68 114.642 138.19 114.869 137.77C115.095 137.343 115.405 137.013 115.799 136.78C116.199 136.547 116.645 136.43 117.139 136.43C117.565 136.43 117.962 136.53 118.329 136.73C118.695 136.923 118.975 137.18 119.169 137.5V134.6H120.089V142H119.169V140.97C118.989 141.297 118.722 141.567 118.369 141.78C118.015 141.987 117.602 142.09 117.129 142.09C116.642 142.09 116.199 141.97 115.799 141.73C115.405 141.49 115.095 141.153 114.869 140.72C114.642 140.287 114.529 139.793 114.529 139.24ZM119.169 139.25C119.169 138.837 119.085 138.477 118.919 138.17C118.752 137.863 118.525 137.63 118.239 137.47C117.959 137.303 117.649 137.22 117.309 137.22C116.969 137.22 116.659 137.3 116.379 137.46C116.099 137.62 115.875 137.853 115.709 138.16C115.542 138.467 115.459 138.827 115.459 139.24C115.459 139.66 115.542 140.027 115.709 140.34C115.875 140.647 116.099 140.883 116.379 141.05C116.659 141.21 116.969 141.29 117.309 141.29C117.649 141.29 117.959 141.21 118.239 141.05C118.525 140.883 118.752 140.647 118.919 140.34C119.085 140.027 119.169 139.663 119.169 139.25Z" fill="#8D8D8D"/>
<path d="M38.4908 125.112C37.4561 125.112 36.5014 124.872 35.6268 124.392C34.7628 123.901 34.0748 123.224 33.5628 122.36C33.0614 121.485 32.8108 120.504 32.8108 119.416C32.8108 118.328 33.0614 117.352 33.5628 116.488C34.0748 115.624 34.7628 114.952 35.6268 114.472C36.5014 113.981 37.4561 113.736 38.4908 113.736C39.5361 113.736 40.4908 113.981 41.3548 114.472C42.2294 114.952 42.9174 115.624 43.4188 116.488C43.9201 117.352 44.1708 118.328 44.1708 119.416C44.1708 120.504 43.9201 121.485 43.4188 122.36C42.9174 123.224 42.2294 123.901 41.3548 124.392C40.4908 124.872 39.5361 125.112 38.4908 125.112ZM38.4908 123.528C39.2268 123.528 39.8828 123.363 40.4588 123.032C41.0348 122.691 41.4828 122.211 41.8028 121.592C42.1334 120.963 42.2988 120.237 42.2988 119.416C42.2988 118.595 42.1334 117.875 41.8028 117.256C41.4828 116.637 41.0348 116.163 40.4588 115.832C39.8828 115.501 39.2268 115.336 38.4908 115.336C37.7548 115.336 37.0988 115.501 36.5228 115.832C35.9468 116.163 35.4934 116.637 35.1628 117.256C34.8428 117.875 34.6828 118.595 34.6828 119.416C34.6828 120.237 34.8428 120.963 35.1628 121.592C35.4934 122.211 35.9468 122.691 36.5228 123.032C37.0988 123.363 37.7548 123.528 38.4908 123.528ZM51.0376 125.112C50.003 125.112 49.0483 124.872 48.1736 124.392C47.3096 123.901 46.6216 123.224 46.1096 122.36C45.6083 121.485 45.3576 120.504 45.3576 119.416C45.3576 118.328 45.6083 117.352 46.1096 116.488C46.6216 115.624 47.3096 114.952 48.1736 114.472C49.0483 113.981 50.003 113.736 51.0376 113.736C52.083 113.736 53.0376 113.981 53.9016 114.472C54.7763 114.952 55.4643 115.624 55.9656 116.488C56.467 117.352 56.7176 118.328 56.7176 119.416C56.7176 120.504 56.467 121.485 55.9656 122.36C55.4643 123.224 54.7763 123.901 53.9016 124.392C53.0376 124.872 52.083 125.112 51.0376 125.112ZM51.0376 123.528C51.7736 123.528 52.4296 123.363 53.0056 123.032C53.5816 122.691 54.0296 122.211 54.3496 121.592C54.6803 120.963 54.8456 120.237 54.8456 119.416C54.8456 118.595 54.6803 117.875 54.3496 117.256C54.0296 116.637 53.5816 116.163 53.0056 115.832C52.4296 115.501 51.7736 115.336 51.0376 115.336C50.3016 115.336 49.6456 115.501 49.0696 115.832C48.4936 116.163 48.0403 116.637 47.7096 117.256C47.3896 117.875 47.2296 118.595 47.2296 119.416C47.2296 120.237 47.3896 120.963 47.7096 121.592C48.0403 122.211 48.4936 122.691 49.0696 123.032C49.6456 123.363 50.3016 123.528 51.0376 123.528ZM66.2885 117.192C66.2885 117.757 66.1552 118.291 65.8885 118.792C65.6218 119.293 65.1952 119.704 64.6085 120.024C64.0218 120.333 63.2698 120.488 62.3525 120.488H60.3365V125H58.5125V113.88H62.3525C63.2058 113.88 63.9258 114.029 64.5125 114.328C65.1098 114.616 65.5525 115.011 65.8405 115.512C66.1392 116.013 66.2885 116.573 66.2885 117.192ZM62.3525 119C63.0458 119 63.5632 118.845 63.9045 118.536C64.2458 118.216 64.4165 117.768 64.4165 117.192C64.4165 115.976 63.7285 115.368 62.3525 115.368H60.3365V119H62.3525ZM71.6921 125.112C70.9455 125.112 70.2735 124.984 69.6761 124.728C69.0788 124.461 68.6095 124.088 68.2681 123.608C67.9268 123.128 67.7561 122.568 67.7561 121.928H69.7081C69.7508 122.408 69.9375 122.803 70.2681 123.112C70.6095 123.421 71.0841 123.576 71.6921 123.576C72.3215 123.576 72.8121 123.427 73.1641 123.128C73.5161 122.819 73.6921 122.424 73.6921 121.944C73.6921 121.571 73.5801 121.267 73.3561 121.032C73.1428 120.797 72.8708 120.616 72.5401 120.488C72.2201 120.36 71.7721 120.221 71.1961 120.072C70.4708 119.88 69.8788 119.688 69.4201 119.496C68.9721 119.293 68.5881 118.984 68.2681 118.568C67.9481 118.152 67.7881 117.597 67.7881 116.904C67.7881 116.264 67.9481 115.704 68.2681 115.224C68.5881 114.744 69.0361 114.376 69.6121 114.12C70.1881 113.864 70.8548 113.736 71.6121 113.736C72.6895 113.736 73.5695 114.008 74.2521 114.552C74.9455 115.085 75.3295 115.821 75.4041 116.76H73.3881C73.3561 116.355 73.1641 116.008 72.8121 115.72C72.4601 115.432 71.9961 115.288 71.4201 115.288C70.8975 115.288 70.4708 115.421 70.1401 115.688C69.8095 115.955 69.6441 116.339 69.6441 116.84C69.6441 117.181 69.7455 117.464 69.9481 117.688C70.1615 117.901 70.4281 118.072 70.7481 118.2C71.0681 118.328 71.5055 118.467 72.0601 118.616C72.7961 118.819 73.3935 119.021 73.8521 119.224C74.3215 119.427 74.7161 119.741 75.0361 120.168C75.3668 120.584 75.5321 121.144 75.5321 121.848C75.5321 122.413 75.3775 122.947 75.0681 123.448C74.7695 123.949 74.3268 124.355 73.7401 124.664C73.1641 124.963 72.4815 125.112 71.6921 125.112ZM84.1286 113.88L83.9206 121.64H82.4006L82.1926 113.88H84.1286ZM83.2166 125.112C82.886 125.112 82.6086 125 82.3846 124.776C82.1606 124.552 82.0486 124.275 82.0486 123.944C82.0486 123.613 82.1606 123.336 82.3846 123.112C82.6086 122.888 82.886 122.776 83.2166 122.776C83.5366 122.776 83.8086 122.888 84.0326 123.112C84.2566 123.336 84.3686 123.613 84.3686 123.944C84.3686 124.275 84.2566 124.552 84.0326 124.776C83.8086 125 83.5366 125.112 83.2166 125.112Z" fill="#EC407A"/>
<path d="M101.315 74.7692L98.9068 74.3059C97.7785 74.0892 96.8902 73.3508 96.4702 72.2808C96.0485 71.2091 96.1985 70.0641 96.8785 69.1374L98.3902 67.0773C98.8768 66.4139 98.8068 65.4939 98.2235 64.9122L94.9585 61.6488C94.3935 61.0838 93.5052 61.0021 92.8452 61.4471L90.8168 62.8205C89.8652 63.4655 88.7152 63.5722 87.6585 63.1122C86.6052 62.6538 85.9002 61.7371 85.7252 60.6004L85.3368 58.0737C85.2118 57.262 84.5118 56.6603 83.6902 56.6603H79.0735C78.2752 56.6603 77.5868 57.2286 77.4368 58.0137L76.8402 61.1221C76.6285 62.2255 75.9102 63.1055 74.8718 63.5355C73.8368 63.9672 72.7035 63.8505 71.7718 63.2205L69.1518 61.4471C68.4918 61.0021 67.6052 61.0838 67.0385 61.6488L63.7735 64.9122C63.1902 65.4939 63.1202 66.4123 63.6068 67.0773L65.1185 69.1357C65.7985 70.0641 65.9485 71.2091 65.5268 72.2808C65.1068 73.3508 64.2185 74.0892 63.0885 74.3059L60.6818 74.7692C59.9002 74.9209 59.3335 75.6076 59.3335 76.4076V81.0228C59.3335 81.8444 59.9335 82.5445 60.7468 82.6695L63.2718 83.0578C64.4102 83.2328 65.3252 83.9378 65.7852 84.9912C66.2452 86.0463 66.1385 87.1963 65.4935 88.1497L64.1202 90.1797C63.6718 90.8414 63.7568 91.7281 64.3218 92.2931L67.5852 95.5566C68.1668 96.1366 69.0868 96.2066 69.7485 95.7232L71.8102 94.2115C72.7368 93.5332 73.8802 93.3865 74.9518 93.8032C76.0235 94.2232 76.7618 95.1116 76.9785 96.2416L77.4402 98.6467C77.5918 99.4317 78.2785 100 79.0768 100H83.6935C84.5152 100 85.2152 99.4 85.3402 98.5867L85.6135 96.8116C85.7885 95.6649 86.5335 94.7182 87.6035 94.2749C88.6768 93.8315 89.8702 93.9765 90.8035 94.6615L92.2518 95.7249C92.9135 96.2083 93.8335 96.1383 94.4168 95.5582L97.6802 92.2948C98.2452 91.7298 98.3302 90.8447 97.8818 90.1814L96.5085 88.1513C95.8635 87.1996 95.7568 86.0479 96.2168 84.9929C96.6752 83.9395 97.5918 83.2345 98.7302 83.0595L101.255 82.6711C102.067 82.5428 102.667 81.8428 102.667 81.0211V76.4059C102.667 75.6076 102.1 74.9209 101.315 74.7692ZM99.3335 79.5927L98.2218 79.7644C95.9652 80.1111 94.0735 81.5678 93.1618 83.6595C92.2485 85.7529 92.4685 88.1297 93.7485 90.0181L94.3502 90.9081L93.0702 92.1881L92.7752 91.9698C90.8918 90.5931 88.4835 90.3031 86.3268 91.1914C84.1718 92.0848 82.6735 93.9965 82.3185 96.2999L82.2635 96.6633H80.4535L80.2518 95.6099C79.8202 93.3665 78.2935 91.5314 76.1685 90.6964C74.0402 89.8647 71.6768 90.1747 69.8385 91.5214L68.9302 92.1865L67.6502 90.9064L68.2518 90.0164C69.5318 88.1263 69.7502 85.7496 68.8385 83.6578C67.9268 81.5661 66.0335 80.1094 63.7785 79.7627L62.6668 79.5927V77.7843L63.7218 77.581C65.9635 77.1493 67.7985 75.6226 68.6335 73.4992C69.4668 71.3758 69.1585 69.009 67.8102 67.1656L67.1452 66.2589L68.4252 64.9789L69.9068 65.9823C71.7535 67.2323 74.0868 67.474 76.1518 66.6173C78.2135 65.7622 79.6968 63.9438 80.1185 61.7521L80.4552 59.9954H82.2652L82.4368 61.1088C82.7835 63.3655 84.2402 65.2556 86.3318 66.1673C88.4235 67.079 90.8018 66.8606 92.6902 65.5806L93.5785 64.9789L94.8585 66.2589L94.1935 67.1673C92.8435 69.0074 92.5368 71.3741 93.3702 73.4992C94.2052 75.6226 96.0418 77.1493 98.2802 77.5793L99.3335 77.7843V79.5927Z" fill="#EC407A"/>
<path d="M80.9998 69.9956C76.4048 69.9956 72.6665 73.7341 72.6665 78.3292C72.6665 82.9244 76.4048 86.6628 80.9998 86.6628C85.5948 86.6628 89.3332 82.9244 89.3332 78.3292C89.3332 73.7341 85.5948 69.9956 80.9998 69.9956ZM80.9998 83.3294C78.2432 83.3294 75.9998 81.086 75.9998 78.3292C75.9998 75.5725 78.2432 73.329 80.9998 73.329C83.7565 73.329 85.9998 75.5725 85.9998 78.3292C85.9998 81.086 83.7565 83.3294 80.9998 83.3294Z" fill="#EC407A"/>
<path d="M59.3333 43.3698C56.9333 43.9932 55.055 45.9049 54.5067 48.335H42.6667C41.745 48.335 41 49.08 41 50.0017C41 50.9234 41.745 51.6684 42.6667 51.6684H54.6333C55.4467 54.4319 57.9767 56.4669 61 56.4669C64.6767 56.4669 67.6667 53.4768 67.6667 49.8C67.6667 46.7016 65.5333 44.1148 62.6667 43.3698V26.4659C62.6667 25.5442 61.9217 24.7992 61 24.7992C60.0783 24.7992 59.3333 25.5442 59.3333 26.4659V43.3698ZM64.3333 49.8C64.3333 51.6384 62.8383 53.1335 61 53.1335C59.1617 53.1335 57.6667 51.6384 57.6667 49.8C57.6667 47.9616 59.1617 46.4666 61 46.4666C62.8383 46.4666 64.3333 47.9616 64.3333 49.8Z" fill="#8D8D8D"/>
<path d="M61.0002 16.4656C61.9218 16.4656 62.6668 15.7206 62.6668 14.7989V13.1322C62.6668 12.2105 61.9218 11.4655 61.0002 11.4655C60.0785 11.4655 59.3335 12.2105 59.3335 13.1322V14.7989C59.3335 15.7206 60.0785 16.4656 61.0002 16.4656Z" fill="#8D8D8D"/>
<path d="M97.6668 51.4667C98.5885 51.4667 99.3335 50.7217 99.3335 49.8C99.3335 48.8783 98.5885 48.1333 97.6668 48.1333H96.0002C95.0785 48.1333 94.3335 48.8783 94.3335 49.8C94.3335 50.7217 95.0785 51.4667 96.0002 51.4667H97.6668Z" fill="#8D8D8D"/>
<path d="M24.3332 48.1333C23.4115 48.1333 22.6665 48.8783 22.6665 49.8C22.6665 50.7217 23.4115 51.4667 24.3332 51.4667H25.9998C26.9215 51.4667 27.6665 50.7217 27.6665 49.8C27.6665 48.8783 26.9215 48.1333 25.9998 48.1333H24.3332Z" fill="#8D8D8D"/>
<path d="M86.9279 26.2276L88.1063 25.0492C88.7579 24.3976 88.7579 23.3442 88.1063 22.6925C87.4546 22.0408 86.4013 22.0408 85.7496 22.6925L84.5713 23.8709C83.9196 24.5226 83.9196 25.5759 84.5713 26.2276C84.8963 26.5526 85.3229 26.716 85.7496 26.716C86.1763 26.716 86.6013 26.5543 86.9279 26.2276Z" fill="#8D8D8D"/>
<path d="M35.0719 73.3692L33.8935 74.5476C33.2419 75.1993 33.2419 76.2527 33.8935 76.9044C34.2185 77.2294 34.6452 77.3927 35.0719 77.3927C35.4985 77.3927 35.9252 77.2294 36.2502 76.9044L37.4285 75.726C38.0802 75.0743 38.0802 74.0209 37.4285 73.3692C36.7769 72.7176 35.7235 72.7192 35.0719 73.3692Z" fill="#8D8D8D"/>
<path d="M37.4285 23.8709L36.2502 22.6925C35.5985 22.0408 34.5452 22.0408 33.8935 22.6925C33.2419 23.3442 33.2419 24.3976 33.8935 25.0492L35.0719 26.2276C35.3969 26.5526 35.8235 26.716 36.2502 26.716C36.6769 26.716 37.1035 26.5526 37.4285 26.2276C38.0802 25.5776 38.0802 24.5226 37.4285 23.8709Z" fill="#8D8D8D"/>
<path d="M55.0809 97.6336C45.4519 96.4371 36.4116 92.3504 29.152 85.9125C21.8924 79.4745 16.7544 70.9875 14.4154 61.5705C12.0765 52.1536 12.6464 42.2489 16.0501 33.1624C19.4538 24.0759 25.5314 16.2343 33.4815 10.6715C41.4317 5.1087 50.8811 2.08595 60.5838 2.00181C70.2865 1.91766 79.7869 4.77607 87.8323 10.2001C95.8777 15.6242 102.09 23.3592 105.651 32.3853C109.212 41.4115 109.954 51.3048 107.778 60.7609" stroke="#8D8D8D" stroke-width="4" stroke-linecap="round" stroke-linejoin="round"/>
<circle cx="6.45" cy="98.45" r="6.45" fill="#EC407A"/>
<circle cx="16.87" cy="6.87" r="3.87" fill="#EC407A"/>
<circle cx="119.16" cy="24.16" r="4.515" stroke="#EC407A" stroke-width="1.29"/>
</svg>
