<svg width="127" height="176" viewBox="0 0 127 176" fill="none" xmlns="http://www.w3.org/2000/svg">
<circle cx="4" cy="127" r="4" fill="#EC407A"/>
<path d="M127 118C127 120.761 124.761 123 122 123C119.239 123 117 120.761 117 118C117 115.239 119.239 113 122 113C124.761 113 127 115.239 127 118ZM118.159 118C118.159 120.121 119.879 121.841 122 121.841C124.121 121.841 125.841 120.121 125.841 118C125.841 115.879 124.121 114.159 122 114.159C119.879 114.159 118.159 115.879 118.159 118Z" fill="#EC407A"/>
<path d="M30 15C30 17.7614 27.7614 20 25 20C22.2386 20 20 17.7614 20 15C20 12.2386 22.2386 10 25 10C27.7614 10 30 12.2386 30 15ZM21.159 15C21.159 17.1213 22.8787 18.841 25 18.841C27.1213 18.841 28.841 17.1213 28.841 15C28.841 12.8787 27.1213 11.159 25 11.159C22.8787 11.159 21.159 12.8787 21.159 15Z" fill="#EC407A"/>
<path d="M42.5859 172H41.6759L38.0159 166.45V172H37.1059V165.02H38.0159L41.6759 170.56V165.02H42.5859V172ZM46.5272 172.09C46.0139 172.09 45.5472 171.973 45.1272 171.74C44.7139 171.507 44.3872 171.177 44.1472 170.75C43.9139 170.317 43.7972 169.817 43.7972 169.25C43.7972 168.69 43.9172 168.197 44.1572 167.77C44.4039 167.337 44.7372 167.007 45.1572 166.78C45.5772 166.547 46.0472 166.43 46.5672 166.43C47.0872 166.43 47.5572 166.547 47.9772 166.78C48.3972 167.007 48.7272 167.333 48.9672 167.76C49.2139 168.187 49.3372 168.683 49.3372 169.25C49.3372 169.817 49.2105 170.317 48.9572 170.75C48.7105 171.177 48.3739 171.507 47.9472 171.74C47.5205 171.973 47.0472 172.09 46.5272 172.09ZM46.5272 171.29C46.8539 171.29 47.1605 171.213 47.4472 171.06C47.7339 170.907 47.9639 170.677 48.1372 170.37C48.3172 170.063 48.4072 169.69 48.4072 169.25C48.4072 168.81 48.3205 168.437 48.1472 168.13C47.9739 167.823 47.7472 167.597 47.4672 167.45C47.1872 167.297 46.8839 167.22 46.5572 167.22C46.2239 167.22 45.9172 167.297 45.6372 167.45C45.3639 167.597 45.1439 167.823 44.9772 168.13C44.8105 168.437 44.7272 168.81 44.7272 169.25C44.7272 169.697 44.8072 170.073 44.9672 170.38C45.1339 170.687 45.3539 170.917 45.6272 171.07C45.9005 171.217 46.2005 171.29 46.5272 171.29ZM56.8697 172L55.2097 169.15H54.1097V172H53.1997V165.03H55.4497C55.9764 165.03 56.4197 165.12 56.7797 165.3C57.1464 165.48 57.4197 165.723 57.5997 166.03C57.7797 166.337 57.8697 166.687 57.8697 167.08C57.8697 167.56 57.7297 167.983 57.4497 168.35C57.1764 168.717 56.763 168.96 56.2097 169.08L57.9597 172H56.8697ZM54.1097 168.42H55.4497C55.943 168.42 56.313 168.3 56.5597 168.06C56.8064 167.813 56.9297 167.487 56.9297 167.08C56.9297 166.667 56.8064 166.347 56.5597 166.12C56.3197 165.893 55.9497 165.78 55.4497 165.78H54.1097V168.42ZM64.2837 169.05C64.2837 169.223 64.2737 169.407 64.2537 169.6H59.8737C59.907 170.14 60.0903 170.563 60.4237 170.87C60.7637 171.17 61.1737 171.32 61.6537 171.32C62.047 171.32 62.3737 171.23 62.6337 171.05C62.9003 170.863 63.087 170.617 63.1937 170.31H64.1737C64.027 170.837 63.7337 171.267 63.2937 171.6C62.8537 171.927 62.307 172.09 61.6537 172.09C61.1337 172.09 60.667 171.973 60.2537 171.74C59.847 171.507 59.527 171.177 59.2937 170.75C59.0603 170.317 58.9437 169.817 58.9437 169.25C58.9437 168.683 59.057 168.187 59.2837 167.76C59.5103 167.333 59.827 167.007 60.2337 166.78C60.647 166.547 61.1203 166.43 61.6537 166.43C62.1737 166.43 62.6337 166.543 63.0337 166.77C63.4337 166.997 63.7403 167.31 63.9537 167.71C64.1737 168.103 64.2837 168.55 64.2837 169.05ZM63.3437 168.86C63.3437 168.513 63.267 168.217 63.1137 167.97C62.9603 167.717 62.7503 167.527 62.4837 167.4C62.2237 167.267 61.9337 167.2 61.6137 167.2C61.1537 167.2 60.7603 167.347 60.4337 167.64C60.1137 167.933 59.9303 168.34 59.8837 168.86H63.3437ZM67.4248 172.09C67.0048 172.09 66.6282 172.02 66.2948 171.88C65.9615 171.733 65.6982 171.533 65.5048 171.28C65.3115 171.02 65.2048 170.723 65.1848 170.39H66.1248C66.1515 170.663 66.2782 170.887 66.5048 171.06C66.7382 171.233 67.0415 171.32 67.4148 171.32C67.7615 171.32 68.0348 171.243 68.2348 171.09C68.4348 170.937 68.5348 170.743 68.5348 170.51C68.5348 170.27 68.4282 170.093 68.2148 169.98C68.0015 169.86 67.6715 169.743 67.2248 169.63C66.8182 169.523 66.4848 169.417 66.2248 169.31C65.9715 169.197 65.7515 169.033 65.5648 168.82C65.3848 168.6 65.2948 168.313 65.2948 167.96C65.2948 167.68 65.3782 167.423 65.5448 167.19C65.7115 166.957 65.9482 166.773 66.2548 166.64C66.5615 166.5 66.9115 166.43 67.3048 166.43C67.9115 166.43 68.4015 166.583 68.7748 166.89C69.1482 167.197 69.3482 167.617 69.3748 168.15H68.4648C68.4448 167.863 68.3282 167.633 68.1148 167.46C67.9082 167.287 67.6282 167.2 67.2748 167.2C66.9482 167.2 66.6882 167.27 66.4948 167.41C66.3015 167.55 66.2048 167.733 66.2048 167.96C66.2048 168.14 66.2615 168.29 66.3748 168.41C66.4948 168.523 66.6415 168.617 66.8148 168.69C66.9948 168.757 67.2415 168.833 67.5548 168.92C67.9482 169.027 68.2682 169.133 68.5148 169.24C68.7615 169.34 68.9715 169.493 69.1448 169.7C69.3248 169.907 69.4182 170.177 69.4248 170.51C69.4248 170.81 69.3415 171.08 69.1748 171.32C69.0082 171.56 68.7715 171.75 68.4648 171.89C68.1648 172.023 67.8182 172.09 67.4248 172.09ZM75.5695 166.52V172H74.6595V171.19C74.4861 171.47 74.2428 171.69 73.9295 171.85C73.6228 172.003 73.2828 172.08 72.9095 172.08C72.4828 172.08 72.0995 171.993 71.7595 171.82C71.4195 171.64 71.1495 171.373 70.9495 171.02C70.7561 170.667 70.6595 170.237 70.6595 169.73V166.52H71.5595V169.61C71.5595 170.15 71.6961 170.567 71.9695 170.86C72.2428 171.147 72.6161 171.29 73.0895 171.29C73.5761 171.29 73.9595 171.14 74.2395 170.84C74.5195 170.54 74.6595 170.103 74.6595 169.53V166.52H75.5695ZM78.0159 164.6V172H77.1059V164.6H78.0159ZM80.6769 167.27V170.5C80.6769 170.767 80.7335 170.957 80.8469 171.07C80.9602 171.177 81.1569 171.23 81.4369 171.23H82.1069V172H81.2869C80.7802 172 80.4002 171.883 80.1469 171.65C79.8935 171.417 79.7669 171.033 79.7669 170.5V167.27H79.0569V166.52H79.7669V165.14H80.6769V166.52H82.1069V167.27H80.6769ZM85.1495 172.09C84.7295 172.09 84.3528 172.02 84.0195 171.88C83.6861 171.733 83.4228 171.533 83.2295 171.28C83.0361 171.02 82.9295 170.723 82.9095 170.39H83.8495C83.8761 170.663 84.0028 170.887 84.2295 171.06C84.4628 171.233 84.7661 171.32 85.1395 171.32C85.4861 171.32 85.7595 171.243 85.9595 171.09C86.1595 170.937 86.2595 170.743 86.2595 170.51C86.2595 170.27 86.1528 170.093 85.9395 169.98C85.7261 169.86 85.3961 169.743 84.9495 169.63C84.5428 169.523 84.2095 169.417 83.9495 169.31C83.6961 169.197 83.4761 169.033 83.2895 168.82C83.1095 168.6 83.0195 168.313 83.0195 167.96C83.0195 167.68 83.1028 167.423 83.2695 167.19C83.4361 166.957 83.6728 166.773 83.9795 166.64C84.2861 166.5 84.6361 166.43 85.0295 166.43C85.6361 166.43 86.1261 166.583 86.4995 166.89C86.8728 167.197 87.0728 167.617 87.0995 168.15H86.1895C86.1695 167.863 86.0528 167.633 85.8395 167.46C85.6328 167.287 85.3528 167.2 84.9995 167.2C84.6728 167.2 84.4128 167.27 84.2195 167.41C84.0261 167.55 83.9295 167.733 83.9295 167.96C83.9295 168.14 83.9861 168.29 84.0995 168.41C84.2195 168.523 84.3661 168.617 84.5395 168.69C84.7195 168.757 84.9661 168.833 85.2795 168.92C85.6728 169.027 85.9928 169.133 86.2395 169.24C86.4861 169.34 86.6961 169.493 86.8695 169.7C87.0495 169.907 87.1428 170.177 87.1495 170.51C87.1495 170.81 87.0661 171.08 86.8995 171.32C86.7328 171.56 86.4961 171.75 86.1895 171.89C85.8895 172.023 85.5428 172.09 85.1495 172.09Z" fill="#8D8D8D"/>
<path d="M41.4908 155.112C40.4561 155.112 39.5014 154.872 38.6268 154.392C37.7628 153.901 37.0748 153.224 36.5628 152.36C36.0614 151.485 35.8108 150.504 35.8108 149.416C35.8108 148.328 36.0614 147.352 36.5628 146.488C37.0748 145.624 37.7628 144.952 38.6268 144.472C39.5014 143.981 40.4561 143.736 41.4908 143.736C42.5361 143.736 43.4908 143.981 44.3548 144.472C45.2294 144.952 45.9174 145.624 46.4188 146.488C46.9201 147.352 47.1708 148.328 47.1708 149.416C47.1708 150.504 46.9201 151.485 46.4188 152.36C45.9174 153.224 45.2294 153.901 44.3548 154.392C43.4908 154.872 42.5361 155.112 41.4908 155.112ZM41.4908 153.528C42.2268 153.528 42.8828 153.363 43.4588 153.032C44.0348 152.691 44.4828 152.211 44.8028 151.592C45.1334 150.963 45.2988 150.237 45.2988 149.416C45.2988 148.595 45.1334 147.875 44.8028 147.256C44.4828 146.637 44.0348 146.163 43.4588 145.832C42.8828 145.501 42.2268 145.336 41.4908 145.336C40.7548 145.336 40.0988 145.501 39.5228 145.832C38.9468 146.163 38.4934 146.637 38.1628 147.256C37.8428 147.875 37.6828 148.595 37.6828 149.416C37.6828 150.237 37.8428 150.963 38.1628 151.592C38.4934 152.211 38.9468 152.691 39.5228 153.032C40.0988 153.363 40.7548 153.528 41.4908 153.528ZM54.0376 155.112C53.003 155.112 52.0483 154.872 51.1736 154.392C50.3096 153.901 49.6216 153.224 49.1096 152.36C48.6083 151.485 48.3576 150.504 48.3576 149.416C48.3576 148.328 48.6083 147.352 49.1096 146.488C49.6216 145.624 50.3096 144.952 51.1736 144.472C52.0483 143.981 53.003 143.736 54.0376 143.736C55.083 143.736 56.0376 143.981 56.9016 144.472C57.7763 144.952 58.4643 145.624 58.9656 146.488C59.467 147.352 59.7176 148.328 59.7176 149.416C59.7176 150.504 59.467 151.485 58.9656 152.36C58.4643 153.224 57.7763 153.901 56.9016 154.392C56.0376 154.872 55.083 155.112 54.0376 155.112ZM54.0376 153.528C54.7736 153.528 55.4296 153.363 56.0056 153.032C56.5816 152.691 57.0296 152.211 57.3496 151.592C57.6803 150.963 57.8456 150.237 57.8456 149.416C57.8456 148.595 57.6803 147.875 57.3496 147.256C57.0296 146.637 56.5816 146.163 56.0056 145.832C55.4296 145.501 54.7736 145.336 54.0376 145.336C53.3016 145.336 52.6456 145.501 52.0696 145.832C51.4936 146.163 51.0403 146.637 50.7096 147.256C50.3896 147.875 50.2296 148.595 50.2296 149.416C50.2296 150.237 50.3896 150.963 50.7096 151.592C51.0403 152.211 51.4936 152.691 52.0696 153.032C52.6456 153.363 53.3016 153.528 54.0376 153.528ZM69.2885 147.192C69.2885 147.757 69.1552 148.291 68.8885 148.792C68.6218 149.293 68.1952 149.704 67.6085 150.024C67.0218 150.333 66.2698 150.488 65.3525 150.488H63.3365V155H61.5125V143.88H65.3525C66.2058 143.88 66.9258 144.029 67.5125 144.328C68.1098 144.616 68.5525 145.011 68.8405 145.512C69.1392 146.013 69.2885 146.573 69.2885 147.192ZM65.3525 149C66.0458 149 66.5632 148.845 66.9045 148.536C67.2458 148.216 67.4165 147.768 67.4165 147.192C67.4165 145.976 66.7285 145.368 65.3525 145.368H63.3365V149H65.3525ZM74.6921 155.112C73.9455 155.112 73.2735 154.984 72.6761 154.728C72.0788 154.461 71.6095 154.088 71.2681 153.608C70.9268 153.128 70.7561 152.568 70.7561 151.928H72.7081C72.7508 152.408 72.9375 152.803 73.2681 153.112C73.6095 153.421 74.0841 153.576 74.6921 153.576C75.3215 153.576 75.8121 153.427 76.1641 153.128C76.5161 152.819 76.6921 152.424 76.6921 151.944C76.6921 151.571 76.5801 151.267 76.3561 151.032C76.1428 150.797 75.8708 150.616 75.5401 150.488C75.2201 150.36 74.7721 150.221 74.1961 150.072C73.4708 149.88 72.8788 149.688 72.4201 149.496C71.9721 149.293 71.5881 148.984 71.2681 148.568C70.9481 148.152 70.7881 147.597 70.7881 146.904C70.7881 146.264 70.9481 145.704 71.2681 145.224C71.5881 144.744 72.0361 144.376 72.6121 144.12C73.1881 143.864 73.8548 143.736 74.6121 143.736C75.6895 143.736 76.5695 144.008 77.2521 144.552C77.9455 145.085 78.3295 145.821 78.4041 146.76H76.3881C76.3561 146.355 76.1641 146.008 75.8121 145.72C75.4601 145.432 74.9961 145.288 74.4201 145.288C73.8975 145.288 73.4708 145.421 73.1401 145.688C72.8095 145.955 72.6441 146.339 72.6441 146.84C72.6441 147.181 72.7455 147.464 72.9481 147.688C73.1615 147.901 73.4281 148.072 73.7481 148.2C74.0681 148.328 74.5055 148.467 75.0601 148.616C75.7961 148.819 76.3935 149.021 76.8521 149.224C77.3215 149.427 77.7161 149.741 78.0361 150.168C78.3668 150.584 78.5321 151.144 78.5321 151.848C78.5321 152.413 78.3775 152.947 78.0681 153.448C77.7695 153.949 77.3268 154.355 76.7401 154.664C76.1641 154.963 75.4815 155.112 74.6921 155.112ZM87.1286 143.88L86.9206 151.64H85.4006L85.1926 143.88H87.1286ZM86.2166 155.112C85.886 155.112 85.6086 155 85.3846 154.776C85.1606 154.552 85.0486 154.275 85.0486 153.944C85.0486 153.613 85.1606 153.336 85.3846 153.112C85.6086 152.888 85.886 152.776 86.2166 152.776C86.5366 152.776 86.8086 152.888 87.0326 153.112C87.2566 153.336 87.3686 153.613 87.3686 153.944C87.3686 154.275 87.2566 154.552 87.0326 154.776C86.8086 155 86.5366 155.112 86.2166 155.112Z" fill="#EC407A"/>
<path d="M89.3646 16.1L87.5646 18.5H90.5646H111.065V134.5H13.5V1.5H89.6542C89.8753 2.04529 90.0922 2.80146 90.2721 3.75112C90.5349 5.13788 90.6908 6.78167 90.7148 8.44658C90.7388 10.113 90.6299 11.7584 90.3816 13.1527C90.1252 14.5931 89.7503 15.5858 89.3646 16.1ZM93.7145 8.40342C93.6931 6.91667 93.5752 5.42409 93.3677 4.06166L108.17 15.5H92.9058C93.0847 14.9143 93.2249 14.298 93.3352 13.6786C93.6244 12.0541 93.7405 10.212 93.7145 8.40342Z" stroke="#8D8D8D" stroke-width="3"/>
<circle cx="63" cy="63" r="33" fill="#E5E5E5" stroke="#8D8D8D" stroke-width="4"/>
<line x1="87.8284" y1="87" x2="106.213" y2="105.385" stroke="#8D8D8D" stroke-width="4" stroke-linecap="round"/>
<line x1="28" y1="33" x2="87" y2="33" stroke="#8D8D8D" stroke-width="4" stroke-linecap="round"/>
<line x1="28" y1="48" x2="87" y2="48" stroke="#8D8D8D" stroke-width="4" stroke-linecap="round"/>
<line x1="28" y1="63" x2="87" y2="63" stroke="#8D8D8D" stroke-width="4" stroke-linecap="round"/>
<line x1="28" y1="78" x2="87" y2="78" stroke="#8D8D8D" stroke-width="4" stroke-linecap="round"/>
<line x1="28" y1="93" x2="87" y2="93" stroke="#8D8D8D" stroke-width="4" stroke-linecap="round"/>
<line x1="28" y1="108" x2="87" y2="108" stroke="#8D8D8D" stroke-width="4" stroke-linecap="round"/>
<circle cx="63" cy="63" r="33" fill="#E5E5E5" stroke="#8D8D8D" stroke-width="4"/>
<mask id="mask0_206_269" style="mask-type:alpha" maskUnits="userSpaceOnUse" x="4" y="90" width="5" height="5">
<circle cx="6.5" cy="92.5" r="2.5" fill="#EC407A"/>
</mask>
<g mask="url(#mask0_206_269)">
</g>
<line x1="50.828" y1="51.3078" x2="74.1568" y2="75.424" stroke="#EC407A" stroke-width="4" stroke-linecap="round"/>
<line x1="2" y1="-2" x2="36" y2="-2" transform="matrix(-0.686973 0.726683 0.726683 0.686973 77.375 51)" stroke="#EC407A" stroke-width="4" stroke-linecap="round"/>
</svg>
