<svg width="125" height="146" viewBox="0 0 125 146" fill="none" xmlns="http://www.w3.org/2000/svg">
<path d="M29.7188 142H28.8088L25.1488 136.45V142H24.2388V135.02H25.1488L28.8088 140.56V135.02H29.7188V142ZM33.66 142.09C33.1467 142.09 32.68 141.973 32.26 141.74C31.8467 141.507 31.52 141.177 31.28 140.75C31.0467 140.317 30.93 139.817 30.93 139.25C30.93 138.69 31.05 138.197 31.29 137.77C31.5367 137.337 31.87 137.007 32.29 136.78C32.71 136.547 33.18 136.43 33.7 136.43C34.22 136.43 34.69 136.547 35.11 136.78C35.53 137.007 35.86 137.333 36.1 137.76C36.3467 138.187 36.47 138.683 36.47 139.25C36.47 139.817 36.3433 140.317 36.09 140.75C35.8433 141.177 35.5067 141.507 35.08 141.74C34.6533 141.973 34.18 142.09 33.66 142.09ZM33.66 141.29C33.9867 141.29 34.2933 141.213 34.58 141.06C34.8667 140.907 35.0967 140.677 35.27 140.37C35.45 140.063 35.54 139.69 35.54 139.25C35.54 138.81 35.4533 138.437 35.28 138.13C35.1067 137.823 34.88 137.597 34.6 137.45C34.32 137.297 34.0167 137.22 33.69 137.22C33.3567 137.22 33.05 137.297 32.77 137.45C32.4967 137.597 32.2767 137.823 32.11 138.13C31.9433 138.437 31.86 138.81 31.86 139.25C31.86 139.697 31.94 140.073 32.1 140.38C32.2667 140.687 32.4867 140.917 32.76 141.07C33.0333 141.217 33.3333 141.29 33.66 141.29ZM44.0025 142L42.3425 139.15H41.2425V142H40.3325V135.03H42.5825C43.1092 135.03 43.5525 135.12 43.9125 135.3C44.2792 135.48 44.5525 135.723 44.7325 136.03C44.9125 136.337 45.0025 136.687 45.0025 137.08C45.0025 137.56 44.8625 137.983 44.5825 138.35C44.3092 138.717 43.8958 138.96 43.3425 139.08L45.0925 142H44.0025ZM41.2425 138.42H42.5825C43.0758 138.42 43.4458 138.3 43.6925 138.06C43.9392 137.813 44.0625 137.487 44.0625 137.08C44.0625 136.667 43.9392 136.347 43.6925 136.12C43.4525 135.893 43.0825 135.78 42.5825 135.78H41.2425V138.42ZM51.4165 139.05C51.4165 139.223 51.4065 139.407 51.3865 139.6H47.0065C47.0398 140.14 47.2232 140.563 47.5565 140.87C47.8965 141.17 48.3065 141.32 48.7865 141.32C49.1798 141.32 49.5065 141.23 49.7665 141.05C50.0332 140.863 50.2198 140.617 50.3265 140.31H51.3065C51.1598 140.837 50.8665 141.267 50.4265 141.6C49.9865 141.927 49.4398 142.09 48.7865 142.09C48.2665 142.09 47.7998 141.973 47.3865 141.74C46.9798 141.507 46.6598 141.177 46.4265 140.75C46.1932 140.317 46.0765 139.817 46.0765 139.25C46.0765 138.683 46.1898 138.187 46.4165 137.76C46.6432 137.333 46.9598 137.007 47.3665 136.78C47.7798 136.547 48.2532 136.43 48.7865 136.43C49.3065 136.43 49.7665 136.543 50.1665 136.77C50.5665 136.997 50.8732 137.31 51.0865 137.71C51.3065 138.103 51.4165 138.55 51.4165 139.05ZM50.4765 138.86C50.4765 138.513 50.3998 138.217 50.2465 137.97C50.0932 137.717 49.8832 137.527 49.6165 137.4C49.3565 137.267 49.0665 137.2 48.7465 137.2C48.2865 137.2 47.8932 137.347 47.5665 137.64C47.2465 137.933 47.0632 138.34 47.0165 138.86H50.4765ZM52.2777 139.25C52.2777 138.683 52.391 138.19 52.6177 137.77C52.8443 137.343 53.1577 137.013 53.5577 136.78C53.9643 136.547 54.4277 136.43 54.9477 136.43C55.621 136.43 56.1743 136.593 56.6077 136.92C57.0477 137.247 57.3377 137.7 57.4777 138.28H56.4977C56.4043 137.947 56.221 137.683 55.9477 137.49C55.681 137.297 55.3477 137.2 54.9477 137.2C54.4277 137.2 54.0077 137.38 53.6877 137.74C53.3677 138.093 53.2077 138.597 53.2077 139.25C53.2077 139.91 53.3677 140.42 53.6877 140.78C54.0077 141.14 54.4277 141.32 54.9477 141.32C55.3477 141.32 55.681 141.227 55.9477 141.04C56.2143 140.853 56.3977 140.587 56.4977 140.24H57.4777C57.331 140.8 57.0377 141.25 56.5977 141.59C56.1577 141.923 55.6077 142.09 54.9477 142.09C54.4277 142.09 53.9643 141.973 53.5577 141.74C53.1577 141.507 52.8443 141.177 52.6177 140.75C52.391 140.323 52.2777 139.823 52.2777 139.25ZM63.6919 139.05C63.6919 139.223 63.6819 139.407 63.6619 139.6H59.2819C59.3152 140.14 59.4985 140.563 59.8319 140.87C60.1719 141.17 60.5819 141.32 61.0619 141.32C61.4552 141.32 61.7819 141.23 62.0419 141.05C62.3085 140.863 62.4952 140.617 62.6019 140.31H63.5819C63.4352 140.837 63.1419 141.267 62.7019 141.6C62.2619 141.927 61.7152 142.09 61.0619 142.09C60.5419 142.09 60.0752 141.973 59.6619 141.74C59.2552 141.507 58.9352 141.177 58.7019 140.75C58.4685 140.317 58.3519 139.817 58.3519 139.25C58.3519 138.683 58.4652 138.187 58.6919 137.76C58.9185 137.333 59.2352 137.007 59.6419 136.78C60.0552 136.547 60.5285 136.43 61.0619 136.43C61.5819 136.43 62.0419 136.543 62.4419 136.77C62.8419 136.997 63.1485 137.31 63.3619 137.71C63.5819 138.103 63.6919 138.55 63.6919 139.05ZM62.7519 138.86C62.7519 138.513 62.6752 138.217 62.5219 137.97C62.3685 137.717 62.1585 137.527 61.8919 137.4C61.6319 137.267 61.3419 137.2 61.0219 137.2C60.5619 137.2 60.1685 137.347 59.8419 137.64C59.5219 137.933 59.3385 138.34 59.2919 138.86H62.7519ZM67.563 136.42C68.2297 136.42 68.7697 136.623 69.183 137.03C69.5964 137.43 69.803 138.01 69.803 138.77V142H68.903V138.9C68.903 138.353 68.7664 137.937 68.493 137.65C68.2197 137.357 67.8464 137.21 67.373 137.21C66.893 137.21 66.5097 137.36 66.223 137.66C65.943 137.96 65.803 138.397 65.803 138.97V142H64.893V136.52H65.803V137.3C65.983 137.02 66.2264 136.803 66.533 136.65C66.8464 136.497 67.1897 136.42 67.563 136.42ZM72.3995 137.27V140.5C72.3995 140.767 72.4562 140.957 72.5695 141.07C72.6829 141.177 72.8795 141.23 73.1595 141.23H73.8295V142H73.0095C72.5029 142 72.1229 141.883 71.8695 141.65C71.6162 141.417 71.4895 141.033 71.4895 140.5V137.27H70.7795V136.52H71.4895V135.14H72.3995V136.52H73.8295V137.27H72.3995ZM76.8721 142.09C76.4521 142.09 76.0754 142.02 75.7421 141.88C75.4088 141.733 75.1454 141.533 74.9521 141.28C74.7588 141.02 74.6521 140.723 74.6321 140.39H75.5721C75.5988 140.663 75.7254 140.887 75.9521 141.06C76.1854 141.233 76.4888 141.32 76.8621 141.32C77.2088 141.32 77.4821 141.243 77.6821 141.09C77.8821 140.937 77.9821 140.743 77.9821 140.51C77.9821 140.27 77.8754 140.093 77.6621 139.98C77.4488 139.86 77.1188 139.743 76.6721 139.63C76.2654 139.523 75.9321 139.417 75.6721 139.31C75.4188 139.197 75.1988 139.033 75.0121 138.82C74.8321 138.6 74.7421 138.313 74.7421 137.96C74.7421 137.68 74.8254 137.423 74.9921 137.19C75.1588 136.957 75.3954 136.773 75.7021 136.64C76.0088 136.5 76.3588 136.43 76.7521 136.43C77.3588 136.43 77.8488 136.583 78.2221 136.89C78.5954 137.197 78.7954 137.617 78.8221 138.15H77.9121C77.8921 137.863 77.7754 137.633 77.5621 137.46C77.3554 137.287 77.0754 137.2 76.7221 137.2C76.3954 137.2 76.1354 137.27 75.9421 137.41C75.7488 137.55 75.6521 137.733 75.6521 137.96C75.6521 138.14 75.7088 138.29 75.8221 138.41C75.9421 138.523 76.0888 138.617 76.2621 138.69C76.4421 138.757 76.6888 138.833 77.0021 138.92C77.3954 139.027 77.7154 139.133 77.9621 139.24C78.2088 139.34 78.4188 139.493 78.5921 139.7C78.7721 139.907 78.8654 140.177 78.8721 140.51C78.8721 140.81 78.7888 141.08 78.6221 141.32C78.4554 141.56 78.2188 141.75 77.9121 141.89C77.6121 142.023 77.2654 142.09 76.8721 142.09ZM87.5427 136.52L84.2427 144.58H83.3027L84.3827 141.94L82.1727 136.52H83.1827L84.9027 140.96L86.6027 136.52H87.5427ZM93.4575 139.05C93.4575 139.223 93.4475 139.407 93.4275 139.6H89.0475C89.0808 140.14 89.2642 140.563 89.5975 140.87C89.9375 141.17 90.3475 141.32 90.8275 141.32C91.2208 141.32 91.5475 141.23 91.8075 141.05C92.0742 140.863 92.2608 140.617 92.3675 140.31H93.3475C93.2008 140.837 92.9075 141.267 92.4675 141.6C92.0275 141.927 91.4808 142.09 90.8275 142.09C90.3075 142.09 89.8408 141.973 89.4275 141.74C89.0208 141.507 88.7008 141.177 88.4675 140.75C88.2342 140.317 88.1175 139.817 88.1175 139.25C88.1175 138.683 88.2308 138.187 88.4575 137.76C88.6842 137.333 89.0008 137.007 89.4075 136.78C89.8208 136.547 90.2942 136.43 90.8275 136.43C91.3475 136.43 91.8075 136.543 92.2075 136.77C92.6075 136.997 92.9142 137.31 93.1275 137.71C93.3475 138.103 93.4575 138.55 93.4575 139.05ZM92.5175 138.86C92.5175 138.513 92.4408 138.217 92.2875 137.97C92.1342 137.717 91.9242 137.527 91.6575 137.4C91.3975 137.267 91.1075 137.2 90.7875 137.2C90.3275 137.2 89.9342 137.347 89.6075 137.64C89.2875 137.933 89.1042 138.34 89.0575 138.86H92.5175ZM95.7687 137.27V140.5C95.7687 140.767 95.8253 140.957 95.9387 141.07C96.052 141.177 96.2487 141.23 96.5287 141.23H97.1987V142H96.3787C95.872 142 95.492 141.883 95.2387 141.65C94.9853 141.417 94.8587 141.033 94.8587 140.5V137.27H94.1487V136.52H94.8587V135.14H95.7687V136.52H97.1987V137.27H95.7687Z" fill="#8D8D8D"/>
<path d="M38.4908 125.112C37.4561 125.112 36.5014 124.872 35.6268 124.392C34.7628 123.901 34.0748 123.224 33.5628 122.36C33.0614 121.485 32.8108 120.504 32.8108 119.416C32.8108 118.328 33.0614 117.352 33.5628 116.488C34.0748 115.624 34.7628 114.952 35.6268 114.472C36.5014 113.981 37.4561 113.736 38.4908 113.736C39.5361 113.736 40.4908 113.981 41.3548 114.472C42.2294 114.952 42.9174 115.624 43.4188 116.488C43.9201 117.352 44.1708 118.328 44.1708 119.416C44.1708 120.504 43.9201 121.485 43.4188 122.36C42.9174 123.224 42.2294 123.901 41.3548 124.392C40.4908 124.872 39.5361 125.112 38.4908 125.112ZM38.4908 123.528C39.2268 123.528 39.8828 123.363 40.4588 123.032C41.0348 122.691 41.4828 122.211 41.8028 121.592C42.1334 120.963 42.2988 120.237 42.2988 119.416C42.2988 118.595 42.1334 117.875 41.8028 117.256C41.4828 116.637 41.0348 116.163 40.4588 115.832C39.8828 115.501 39.2268 115.336 38.4908 115.336C37.7548 115.336 37.0988 115.501 36.5228 115.832C35.9468 116.163 35.4934 116.637 35.1628 117.256C34.8428 117.875 34.6828 118.595 34.6828 119.416C34.6828 120.237 34.8428 120.963 35.1628 121.592C35.4934 122.211 35.9468 122.691 36.5228 123.032C37.0988 123.363 37.7548 123.528 38.4908 123.528ZM51.0376 125.112C50.003 125.112 49.0483 124.872 48.1736 124.392C47.3096 123.901 46.6216 123.224 46.1096 122.36C45.6083 121.485 45.3576 120.504 45.3576 119.416C45.3576 118.328 45.6083 117.352 46.1096 116.488C46.6216 115.624 47.3096 114.952 48.1736 114.472C49.0483 113.981 50.003 113.736 51.0376 113.736C52.083 113.736 53.0376 113.981 53.9016 114.472C54.7763 114.952 55.4643 115.624 55.9656 116.488C56.467 117.352 56.7176 118.328 56.7176 119.416C56.7176 120.504 56.467 121.485 55.9656 122.36C55.4643 123.224 54.7763 123.901 53.9016 124.392C53.0376 124.872 52.083 125.112 51.0376 125.112ZM51.0376 123.528C51.7736 123.528 52.4296 123.363 53.0056 123.032C53.5816 122.691 54.0296 122.211 54.3496 121.592C54.6803 120.963 54.8456 120.237 54.8456 119.416C54.8456 118.595 54.6803 117.875 54.3496 117.256C54.0296 116.637 53.5816 116.163 53.0056 115.832C52.4296 115.501 51.7736 115.336 51.0376 115.336C50.3016 115.336 49.6456 115.501 49.0696 115.832C48.4936 116.163 48.0403 116.637 47.7096 117.256C47.3896 117.875 47.2296 118.595 47.2296 119.416C47.2296 120.237 47.3896 120.963 47.7096 121.592C48.0403 122.211 48.4936 122.691 49.0696 123.032C49.6456 123.363 50.3016 123.528 51.0376 123.528ZM66.2885 117.192C66.2885 117.757 66.1552 118.291 65.8885 118.792C65.6218 119.293 65.1952 119.704 64.6085 120.024C64.0218 120.333 63.2698 120.488 62.3525 120.488H60.3365V125H58.5125V113.88H62.3525C63.2058 113.88 63.9258 114.029 64.5125 114.328C65.1098 114.616 65.5525 115.011 65.8405 115.512C66.1392 116.013 66.2885 116.573 66.2885 117.192ZM62.3525 119C63.0458 119 63.5632 118.845 63.9045 118.536C64.2458 118.216 64.4165 117.768 64.4165 117.192C64.4165 115.976 63.7285 115.368 62.3525 115.368H60.3365V119H62.3525ZM71.6921 125.112C70.9455 125.112 70.2735 124.984 69.6761 124.728C69.0788 124.461 68.6095 124.088 68.2681 123.608C67.9268 123.128 67.7561 122.568 67.7561 121.928H69.7081C69.7508 122.408 69.9375 122.803 70.2681 123.112C70.6095 123.421 71.0841 123.576 71.6921 123.576C72.3215 123.576 72.8121 123.427 73.1641 123.128C73.5161 122.819 73.6921 122.424 73.6921 121.944C73.6921 121.571 73.5801 121.267 73.3561 121.032C73.1428 120.797 72.8708 120.616 72.5401 120.488C72.2201 120.36 71.7721 120.221 71.1961 120.072C70.4708 119.88 69.8788 119.688 69.4201 119.496C68.9721 119.293 68.5881 118.984 68.2681 118.568C67.9481 118.152 67.7881 117.597 67.7881 116.904C67.7881 116.264 67.9481 115.704 68.2681 115.224C68.5881 114.744 69.0361 114.376 69.6121 114.12C70.1881 113.864 70.8548 113.736 71.6121 113.736C72.6895 113.736 73.5695 114.008 74.2521 114.552C74.9455 115.085 75.3295 115.821 75.4041 116.76H73.3881C73.3561 116.355 73.1641 116.008 72.8121 115.72C72.4601 115.432 71.9961 115.288 71.4201 115.288C70.8975 115.288 70.4708 115.421 70.1401 115.688C69.8095 115.955 69.6441 116.339 69.6441 116.84C69.6441 117.181 69.7455 117.464 69.9481 117.688C70.1615 117.901 70.4281 118.072 70.7481 118.2C71.0681 118.328 71.5055 118.467 72.0601 118.616C72.7961 118.819 73.3935 119.021 73.8521 119.224C74.3215 119.427 74.7161 119.741 75.0361 120.168C75.3668 120.584 75.5321 121.144 75.5321 121.848C75.5321 122.413 75.3775 122.947 75.0681 123.448C74.7695 123.949 74.3268 124.355 73.7401 124.664C73.1641 124.963 72.4815 125.112 71.6921 125.112ZM84.1286 113.88L83.9206 121.64H82.4006L82.1926 113.88H84.1286ZM83.2166 125.112C82.886 125.112 82.6086 125 82.3846 124.776C82.1606 124.552 82.0486 124.275 82.0486 123.944C82.0486 123.613 82.1606 123.336 82.3846 123.112C82.6086 122.888 82.886 122.776 83.2166 122.776C83.5366 122.776 83.8086 122.888 84.0326 123.112C84.2566 123.336 84.3686 123.613 84.3686 123.944C84.3686 124.275 84.2566 124.552 84.0326 124.776C83.8086 125 83.5366 125.112 83.2166 125.112Z" fill="#EC407A"/>
<path d="M101.315 74.7692L98.9068 74.3059C97.7785 74.0892 96.8902 73.3508 96.4702 72.2808C96.0485 71.2091 96.1985 70.0641 96.8785 69.1374L98.3902 67.0773C98.8768 66.4139 98.8068 65.4939 98.2235 64.9122L94.9585 61.6488C94.3935 61.0838 93.5052 61.0021 92.8452 61.4471L90.8168 62.8205C89.8652 63.4655 88.7152 63.5722 87.6585 63.1122C86.6052 62.6538 85.9002 61.7371 85.7252 60.6004L85.3368 58.0737C85.2118 57.262 84.5118 56.6603 83.6902 56.6603H79.0735C78.2752 56.6603 77.5868 57.2286 77.4368 58.0137L76.8402 61.1221C76.6285 62.2255 75.9102 63.1055 74.8718 63.5355C73.8368 63.9672 72.7035 63.8505 71.7718 63.2205L69.1518 61.4471C68.4918 61.0021 67.6052 61.0838 67.0385 61.6488L63.7735 64.9122C63.1902 65.4939 63.1202 66.4123 63.6068 67.0773L65.1185 69.1357C65.7985 70.0641 65.9485 71.2091 65.5268 72.2808C65.1068 73.3508 64.2185 74.0892 63.0885 74.3059L60.6818 74.7692C59.9002 74.9209 59.3335 75.6076 59.3335 76.4076V81.0228C59.3335 81.8444 59.9335 82.5445 60.7468 82.6695L63.2718 83.0578C64.4102 83.2328 65.3252 83.9378 65.7852 84.9912C66.2452 86.0463 66.1385 87.1963 65.4935 88.1497L64.1202 90.1797C63.6718 90.8414 63.7568 91.7281 64.3218 92.2931L67.5852 95.5566C68.1668 96.1366 69.0868 96.2066 69.7485 95.7232L71.8102 94.2115C72.7368 93.5332 73.8802 93.3865 74.9518 93.8032C76.0235 94.2232 76.7618 95.1116 76.9785 96.2416L77.4402 98.6467C77.5918 99.4317 78.2785 100 79.0768 100H83.6935C84.5152 100 85.2152 99.4 85.3402 98.5867L85.6135 96.8116C85.7885 95.6649 86.5335 94.7182 87.6035 94.2749C88.6768 93.8315 89.8702 93.9765 90.8035 94.6615L92.2518 95.7249C92.9135 96.2083 93.8335 96.1383 94.4168 95.5582L97.6802 92.2948C98.2452 91.7298 98.3302 90.8447 97.8818 90.1814L96.5085 88.1513C95.8635 87.1996 95.7568 86.0479 96.2168 84.9929C96.6752 83.9395 97.5918 83.2345 98.7302 83.0595L101.255 82.6711C102.067 82.5428 102.667 81.8428 102.667 81.0211V76.4059C102.667 75.6076 102.1 74.9209 101.315 74.7692ZM99.3335 79.5927L98.2218 79.7644C95.9652 80.1111 94.0735 81.5678 93.1618 83.6595C92.2485 85.7529 92.4685 88.1297 93.7485 90.0181L94.3502 90.9081L93.0702 92.1881L92.7752 91.9698C90.8918 90.5931 88.4835 90.3031 86.3268 91.1914C84.1718 92.0848 82.6735 93.9965 82.3185 96.2999L82.2635 96.6633H80.4535L80.2518 95.6099C79.8202 93.3665 78.2935 91.5314 76.1685 90.6964C74.0402 89.8647 71.6768 90.1747 69.8385 91.5214L68.9302 92.1865L67.6502 90.9064L68.2518 90.0164C69.5318 88.1263 69.7502 85.7496 68.8385 83.6578C67.9268 81.5661 66.0335 80.1094 63.7785 79.7627L62.6668 79.5927V77.7843L63.7218 77.581C65.9635 77.1493 67.7985 75.6226 68.6335 73.4992C69.4668 71.3758 69.1585 69.009 67.8102 67.1656L67.1452 66.2589L68.4252 64.9789L69.9068 65.9823C71.7535 67.2323 74.0868 67.474 76.1518 66.6173C78.2135 65.7622 79.6968 63.9438 80.1185 61.7521L80.4552 59.9954H82.2652L82.4368 61.1088C82.7835 63.3655 84.2402 65.2556 86.3318 66.1673C88.4235 67.079 90.8018 66.8606 92.6902 65.5806L93.5785 64.9789L94.8585 66.2589L94.1935 67.1673C92.8435 69.0074 92.5368 71.3741 93.3702 73.4992C94.2052 75.6226 96.0418 77.1493 98.2802 77.5793L99.3335 77.7843V79.5927Z" fill="#EC407A"/>
<path d="M80.9998 69.9956C76.4048 69.9956 72.6665 73.7341 72.6665 78.3292C72.6665 82.9244 76.4048 86.6628 80.9998 86.6628C85.5948 86.6628 89.3332 82.9244 89.3332 78.3292C89.3332 73.7341 85.5948 69.9956 80.9998 69.9956ZM80.9998 83.3294C78.2432 83.3294 75.9998 81.086 75.9998 78.3292C75.9998 75.5725 78.2432 73.329 80.9998 73.329C83.7565 73.329 85.9998 75.5725 85.9998 78.3292C85.9998 81.086 83.7565 83.3294 80.9998 83.3294Z" fill="#EC407A"/>
<path d="M59.3333 43.3698C56.9333 43.9932 55.055 45.9049 54.5067 48.335H42.6667C41.745 48.335 41 49.08 41 50.0017C41 50.9234 41.745 51.6684 42.6667 51.6684H54.6333C55.4467 54.4319 57.9767 56.4669 61 56.4669C64.6767 56.4669 67.6667 53.4768 67.6667 49.8C67.6667 46.7016 65.5333 44.1148 62.6667 43.3698V26.4659C62.6667 25.5442 61.9217 24.7992 61 24.7992C60.0783 24.7992 59.3333 25.5442 59.3333 26.4659V43.3698ZM64.3333 49.8C64.3333 51.6384 62.8383 53.1335 61 53.1335C59.1617 53.1335 57.6667 51.6384 57.6667 49.8C57.6667 47.9616 59.1617 46.4666 61 46.4666C62.8383 46.4666 64.3333 47.9616 64.3333 49.8Z" fill="#8D8D8D"/>
<path d="M61.0002 16.4656C61.9218 16.4656 62.6668 15.7206 62.6668 14.7989V13.1322C62.6668 12.2105 61.9218 11.4655 61.0002 11.4655C60.0785 11.4655 59.3335 12.2105 59.3335 13.1322V14.7989C59.3335 15.7206 60.0785 16.4656 61.0002 16.4656Z" fill="#8D8D8D"/>
<path d="M97.6668 51.4667C98.5885 51.4667 99.3335 50.7217 99.3335 49.8C99.3335 48.8783 98.5885 48.1333 97.6668 48.1333H96.0002C95.0785 48.1333 94.3335 48.8783 94.3335 49.8C94.3335 50.7217 95.0785 51.4667 96.0002 51.4667H97.6668Z" fill="#8D8D8D"/>
<path d="M24.3332 48.1333C23.4115 48.1333 22.6665 48.8783 22.6665 49.8C22.6665 50.7217 23.4115 51.4667 24.3332 51.4667H25.9998C26.9215 51.4667 27.6665 50.7217 27.6665 49.8C27.6665 48.8783 26.9215 48.1333 25.9998 48.1333H24.3332Z" fill="#8D8D8D"/>
<path d="M86.9279 26.2276L88.1063 25.0492C88.7579 24.3976 88.7579 23.3442 88.1063 22.6925C87.4546 22.0408 86.4013 22.0408 85.7496 22.6925L84.5713 23.8709C83.9196 24.5226 83.9196 25.5759 84.5713 26.2276C84.8963 26.5526 85.3229 26.716 85.7496 26.716C86.1763 26.716 86.6013 26.5543 86.9279 26.2276Z" fill="#8D8D8D"/>
<path d="M35.0719 73.3692L33.8935 74.5476C33.2419 75.1993 33.2419 76.2527 33.8935 76.9044C34.2185 77.2294 34.6452 77.3927 35.0719 77.3927C35.4985 77.3927 35.9252 77.2294 36.2502 76.9044L37.4285 75.726C38.0802 75.0743 38.0802 74.0209 37.4285 73.3692C36.7769 72.7176 35.7235 72.7192 35.0719 73.3692Z" fill="#8D8D8D"/>
<path d="M37.4285 23.8709L36.2502 22.6925C35.5985 22.0408 34.5452 22.0408 33.8935 22.6925C33.2419 23.3442 33.2419 24.3976 33.8935 25.0492L35.0719 26.2276C35.3969 26.5526 35.8235 26.716 36.2502 26.716C36.6769 26.716 37.1035 26.5526 37.4285 26.2276C38.0802 25.5776 38.0802 24.5226 37.4285 23.8709Z" fill="#8D8D8D"/>
<path d="M55.0809 97.6336C45.4519 96.4371 36.4116 92.3504 29.152 85.9125C21.8924 79.4745 16.7544 70.9875 14.4154 61.5705C12.0765 52.1536 12.6464 42.2489 16.0501 33.1624C19.4538 24.0759 25.5314 16.2343 33.4815 10.6715C41.4317 5.1087 50.8811 2.08595 60.5838 2.00181C70.2865 1.91766 79.7869 4.77607 87.8323 10.2001C95.8777 15.6242 102.09 23.3592 105.651 32.3853C109.212 41.4115 109.954 51.3048 107.778 60.7609" stroke="#8D8D8D" stroke-width="4" stroke-linecap="round" stroke-linejoin="round"/>
<circle cx="6.45" cy="98.45" r="6.45" fill="#EC407A"/>
<circle cx="16.87" cy="6.87" r="3.87" fill="#EC407A"/>
<circle cx="119.16" cy="24.16" r="4.515" stroke="#EC407A" stroke-width="1.29"/>
</svg>
