<svg width="96" height="101" viewBox="0 0 96 101" fill="none" xmlns="http://www.w3.org/2000/svg">
<path d="M95.9999 47.5271H94.9441V17.423C94.9441 12.8021 93.1809 8.37052 90.0424 5.10308C86.9039 1.83563 82.6472 0 78.2087 0H16.9458C12.5073 0 8.25063 1.83563 5.11214 5.10308C1.97364 8.37052 0.210449 12.8021 0.210449 17.423V100H94.9438V68.9557H95.9997L95.9999 47.5271Z" fill="#636363"/>
<path d="M32.3819 13.5167C31.4082 13.5166 30.4494 13.2672 29.5901 12.7905C28.7307 12.3137 27.9972 11.6243 27.454 10.7829C26.9109 9.94151 26.5749 8.97397 26.4755 7.96552C26.3762 6.95707 26.5166 5.93866 26.8843 5H19.4141C16.0994 5 12.9204 6.37087 10.5765 8.81105C8.23267 11.2512 6.91589 14.5608 6.91589 18.0117V100.467H50.5001L50.0212 13.5167H32.3819Z" fill="#1C1C1C"/>
<path d="M76.1835 5H68.1867C68.5547 5.93872 68.6952 6.95725 68.5959 7.96584C68.4966 8.97442 68.1606 9.94211 67.6174 10.7836C67.0742 11.6251 66.3406 12.3146 65.4811 12.7914C64.6216 13.2681 63.6627 13.5175 62.6888 13.5175H49.5421V100.468H88.6794V18.0117C88.6794 14.5608 87.3626 11.2512 85.0187 8.81105C82.6749 6.37088 79.4959 5 76.1812 5L76.1835 5Z" fill="white"/>
<rect x="19.3685" y="29" width="57.4737" height="10" rx="2" fill="#919191"/>
<rect x="19.3685" y="54" width="57.4737" height="4" rx="2" fill="#909090"/>
<rect x="19.3685" y="80" width="50.7684" height="4" rx="2" fill="#909090"/>
<rect x="19.3685" y="67" width="43.1053" height="4" rx="2" fill="#909090"/>
<rect y="95" width="95" height="6" fill="url(#paint0_linear_87_1509)"/>
<defs>
<linearGradient id="paint0_linear_87_1509" x1="47.5" y1="95" x2="47.5" y2="101" gradientUnits="userSpaceOnUse">
<stop stop-color="#121212" stop-opacity="0"/>
<stop offset="1" stop-color="#121212"/>
</linearGradient>
</defs>
</svg>
